<svg xmlns="http://www.w3.org/2000/svg" version="1.1" xmlns:xlink="http://www.w3.org/1999/xlink" xmlns:svgjs="http://svgjs.dev/svgjs" width="32" height="32"><svg width="32.000000" height="32.000000" viewBox="0 0 32 32" fill="none" xmlns="http://www.w3.org/2000/svg" xmlns:xlink="http://www.w3.org/1999/xlink">
	<desc>
			Created with Pixso.
	</desc>
	<defs>
		<clipPath id="SvgjsClipPath1009">
			<rect id="SvgjsRect1008" width="32.000000" height="32.000000" fill="white" fill-opacity="0"></rect>
		</clipPath>
	</defs>
	<rect id="SvgjsRect1007" width="32.000000" height="32.000000" fill="#FFFFFF" fill-opacity="1.000000"></rect>
	<g clip-path="url(#clip61_332)">
		<rect id="SvgjsRect1006" x="5.000000" y="5.000000" width="22.000000" height="22.000002" stroke="#000000" stroke-opacity="1.000000" stroke-width="2.000000"></rect>
		<path id="SvgjsPath1005" d="M21.03 13.94C20.64 11.45 18.69 10 16.23 10C13.22 10 11 12.25 11 15.98C11 19.69 13.21 21.95 16.23 21.95C18.78 21.95 20.66 20.35 21.03 18.05L19.26 18.04C18.96 19.53 17.71 20.35 16.24 20.35C14.25 20.35 12.74 18.82 12.74 15.98C12.74 13.15 14.24 11.6 16.25 11.6C17.73 11.6 18.97 12.43 19.26 13.94L21.03 13.94Z" fill="#000000" fill-opacity="1.000000" fill-rule="nonzero"></path>
	</g>
</svg><style>@media (prefers-color-scheme: light) { :root { filter: none; } }
@media (prefers-color-scheme: dark) { :root { filter: none; } }
</style></svg>