<svg width="96" height="47" fill="none" xmlns="http://www.w3.org/2000/svg"><path d="M74 9.99L68.86 6v2.83H62v1.89h6.86V14L74 9.99z" fill="#FFF" fill-rule="evenodd"/><path d="M68.86 6v2.83H62v1.89h6.86V14L74 9.99 68.86 6z"/><path d="M34.44 35.99L29.31 32v2.83L1 34.52v2.2h28.31V40l5.13-4.01z" fill="#FFF" fill-rule="evenodd"/><path d="M29.31 32v2.83L1 34.52v2.2h28.31V40l5.13-4.01L29.31 32z"/><path d="M7.21 3.72c3.03 0 5.32 1.74 5.68 4.77h-2.8c-.21-1.44-1.3-2.32-2.81-2.32-2.03 0-3.36 1.56-3.36 4.28 0 2.8 1.35 4.28 3.34 4.28 1.47 0 2.58-.81 2.83-2.21l2.8.01c-.29 2.41-2.32 4.65-5.68 4.65-3.5 0-6.09-2.46-6.09-6.73 0-4.28 2.63-6.73 6.09-6.73zm12.24 5.59c-1.12 0-1.89.74-1.89 2.01V17h-2.73V3.9h2.65v5.01h.12c.44-1.16 1.44-1.86 2.93-1.86 2.04 0 3.4 1.39 3.39 3.69V17H21.2v-5.77c0-1.21-.65-1.92-1.75-1.92zM50.12 17H47.4V3.9h2.72v7h.15l3.14-3.72h3.13l-3.64 4.25L56.72 17h-3.18l-2.68-3.96-.74.83V17zm-15.13-2.82c-.38 1.83-2.02 3.01-4.45 3.01-3.02 0-4.87-1.95-4.87-5.06 0-3.03 1.87-5.08 4.77-5.08 2.59 0 4.61 1.65 4.61 4.98v.75h-6.69v.01c0 1.46.87 2.36 2.23 2.36.91 0 1.61-.39 1.89-1.13l2.51.16zm10.66-.78c-.13 2.25-1.77 3.79-4.39 3.79-3.02 0-4.83-2.08-4.83-5.06 0-3.01 1.84-5.08 4.82-5.08 2.56 0 4.28 1.49 4.4 3.76h-2.57c-.15-.98-.79-1.64-1.78-1.64-1.27 0-2.1 1.06-2.1 2.92 0 1.88.83 2.94 2.1 2.94.93 0 1.62-.58 1.78-1.63h2.57zM30.48 9.08c-1.21 0-2.06.9-2.12 2.01h4.13c-.01-1.17-.83-2.01-2.01-2.01zM43.11 32.18h-4V29.9h10.75v2.28h-4.01V43h-2.74V32.18zm45.6-2.28h2.72V43h-2.72V29.9zM53.29 43h-2.73v-9.82h2.64v1.71h.1c.36-1.22 1.27-1.85 2.36-1.85.28 0 .62.04.86.09v2.42c-.25-.08-.77-.15-1.15-.15-1.2 0-2.08.83-2.08 2.04V43zm10.02-1.37c-.48.92-1.41 1.55-2.87 1.55-1.87 0-3.25-.98-3.25-2.93 0-2.19 1.74-2.84 3.68-3.02 1.71-.17 2.38-.25 2.38-.88v-.04c0-.81-.53-1.27-1.46-1.27-.97 0-1.56.48-1.74 1.13l-2.52-.21c.38-1.78 1.92-2.91 4.28-2.91 2.18 0 4.17.98 4.17 3.32V43h-2.59v-1.37h-.08zm23.57-1.45c-.39 1.83-2.02 3.01-4.45 3.01-3.03 0-4.87-1.95-4.87-5.06 0-3.03 1.87-5.08 4.76-5.08 2.59 0 4.61 1.65 4.61 4.98v.75h-6.68v.01c0 1.46.86 2.36 2.22 2.36.91 0 1.61-.39 1.89-1.13l2.52.16zm-12.88-7h2.88L73.45 43h-3.06l-3.44-9.82h2.88l2.04 7.02h.1L74 33.18zm8.36 1.9c-1.2 0-2.05.9-2.11 2.01h4.12c-.01-1.17-.82-2.01-2.01-2.01zm-22.57 5.08c0 .75.6 1.14 1.44 1.14 1.19 0 2.04-.78 2.04-1.82v-1.04c-.33.22-1.3.36-1.89.45-.96.13-1.59.51-1.59 1.27zM80.51 3.9h2.77V17h-2.77V3.9zm9.58 5.41c-1.1 0-1.85.74-1.86 2.01V17h-2.72V7.18h2.6v1.73h.11c.44-1.14 1.49-1.86 2.95-1.86 2.05 0 3.39 1.41 3.39 3.69V17h-2.72v-5.77c.01-1.2-.65-1.92-1.75-1.92z" fill="#FFF" fill-rule="evenodd"/></svg>