<svg width="114.71" height="49.412" fill="none" xmlns="http://www.w3.org/2000/svg"><path d="M3.37 49.05H0v-.47h.97v-7.92h-.9v-.47h5.99c1.27 0 2.99.02 3 .02l.35 2.77h-.45l-.04-.12c-.53-1.71-.91-2.2-2.86-2.2H2.54v3.87h2.07c1.75 0 2.26-.15 2.26-1.21v-.17h.44v3.17h-.44v-.16c0-.76-.5-1.16-2.26-1.16H2.54v3.58h.83v.47z" fill="#000"/><path d="M0 49.05v-.47h.97v-7.92h-.9v-.47h5.99c1.27 0 2.99.02 3 .02l.35 2.77h-.45l-.04-.12c-.53-1.71-.91-2.2-2.86-2.2H2.54v3.87h2.07c1.75 0 2.26-.15 2.26-1.21v-.17h.44v3.17h-.44v-.16c0-.76-.5-1.16-2.26-1.16H2.54v3.58h.83v.47H0z"/><path d="M15.05 42.04c-2.34 0-3.68 1.24-3.68 3.4s1.31 3.35 3.68 3.35c2.38 0 3.7-1.19 3.7-3.35s-1.35-3.4-3.7-3.4zm0 7.17c-3.42 0-5.27-1.94-5.27-3.77 0-2.4 2.68-3.82 5.27-3.82 3.43 0 5.27 1.96 5.27 3.82 0 2.45-2.71 3.77-5.27 3.77z" fill="#000"/><path d="M11.37 45.44c0 2.16 1.31 3.35 3.68 3.35 2.38 0 3.7-1.19 3.7-3.35s-1.35-3.4-3.7-3.4c-2.34 0-3.68 1.24-3.68 3.4zm-1.59 0c0-2.4 2.68-3.82 5.27-3.82 3.43 0 5.27 1.96 5.27 3.82 0 2.45-2.71 3.77-5.27 3.77-3.42 0-5.27-1.94-5.27-3.77z"/><path d="M25.82 49.21c-1.93 0-4.22-.64-4.22-3.7V42.2h-.79v-.42h3.12v.42h-.87v3.31c0 2.85 1.73 3.28 2.76 3.28 1.61 0 3.33-.86 3.33-3.28V42.2h-.78v-.42h1.91v.42h-.72v3.31c0 2.74-2.02 3.7-3.74 3.7z" fill="#000"/><path d="M21.6 45.51V42.2h-.79v-.42h3.12v.42h-.87v3.31c0 2.85 1.73 3.28 2.76 3.28 1.61 0 3.33-.86 3.33-3.28V42.2h-.78v-.42h1.91v.42h-.72v3.31c0 2.74-2.02 3.7-3.74 3.7-1.93 0-4.22-.64-4.22-3.7z"/><path d="M33.24 45.4h2.8c1.33 0 1.96-.51 1.96-1.6s-.62-1.6-1.95-1.6h-2.81v3.2zm2.88.42h-2.88v2.81h.72v.42h-3.02v-.42h.9V42.2h-.9v-.42h5.11c.87 0 3.53 0 3.53 2.02 0 .92-.55 1.56-1.59 1.84 0 0-.59.18-1.87.18z" fill="#000"/><path d="M36.04 45.4c1.33 0 1.96-.51 1.96-1.6s-.62-1.6-1.95-1.6h-2.81v3.2h2.8zm-2.8.42v2.81h.72v.42h-3.02v-.42h.9V42.2h-.9v-.42h5.11c.87 0 3.53 0 3.53 2.02 0 .92-.55 1.56-1.59 1.84 0 0-.59.18-1.87.18h-2.88z"/><path d="M54.82 41.03l.21 2.16-.42-.01-.12-.36c-.59-1.63-1.8-2.33-3.72-2.33-1.89 0-3.02.51-3.02 1.35 0 .92 1.56 1.29 3.22 1.69 2.05.48 4.37 1.03 4.37 2.85 0 1.91-1.56 2.88-4.64 2.88 0 0-2.26-.08-4.02-.7l-.51-2.57h.39l.15.39c.63 1.46 2.2 2.41 3.99 2.41 1.33 0 3.56-.23 3.56-1.74 0-1.09-1.66-1.46-3.42-1.86-2.06-.47-4.18-.96-4.18-2.68 0-1.58 1.5-2.49 4.11-2.49.8 0 1.27.09 2.03.29 0 0 1.31.36 2.02.72z" fill="#000"/><path d="M55.03 43.19l-.42-.01-.12-.36c-.59-1.63-1.8-2.33-3.72-2.33-1.89 0-3.02.51-3.02 1.35 0 .92 1.56 1.29 3.22 1.69 2.05.48 4.37 1.03 4.37 2.85 0 1.91-1.56 2.88-4.64 2.88 0 0-2.26-.08-4.02-.7l-.51-2.57h.39l.15.39c.63 1.46 2.2 2.41 3.99 2.41 1.33 0 3.56-.23 3.56-1.74 0-1.09-1.66-1.46-3.42-1.86-2.06-.47-4.18-.96-4.18-2.68 0-1.58 1.5-2.49 4.11-2.49.8 0 1.27.09 2.03.29 0 0 1.31.36 2.02.72l.21 2.16z"/><path d="M64.65 49.12c-.02-.01-1.39-.07-2.12-.07h-5.8v-.42h.87V42.2h-.87v-.42h5.61c.71 0 1.44 0 1.61-.06l.42-.05.25 2.05-.34.01-.03-.1c-.47-1.35-1.17-1.43-1.91-1.43H59v2.85h1.88c1.34 0 1.78-.16 1.78-1.06v-.16h.41v2.79h-.41v-.15c0-.68-.43-.99-1.78-.99H59v3.15h3.53c1.29 0 1.59-.38 2.03-1.34l.03-.1h.42l-.36 1.93z" fill="#000"/><path d="M62.53 49.05h-5.8v-.42h.87V42.2h-.87v-.42h5.61c.71 0 1.44 0 1.61-.06l.42-.05.25 2.05-.34.01-.03-.1c-.47-1.35-1.17-1.43-1.91-1.43H59v2.85h1.88c1.34 0 1.78-.16 1.78-1.06v-.16h.41v2.79h-.41v-.15c0-.68-.43-.99-1.78-.99H59v3.15h3.53c1.29 0 1.59-.38 2.03-1.34l.03-.1h.42l-.36 1.93c-.02-.01-1.39-.07-2.12-.07z"/><path d="M68.26 46.23h4.38l-2.18-3.7-2.2 3.7zm5 2.82v-.42h.8l-1.17-1.97H68l-1.18 1.97h.81v.42h-1.97v-.42h.69l3.82-6.43h-.68v-.42h2.08l.05.07 3.99 6.78h.76v.42h-3.11z" fill="#000"/><path d="M72.64 46.23l-2.18-3.7-2.2 3.7h4.38zm.62 2.4h.8l-1.17-1.97H68l-1.18 1.97h.81v.42h-1.97v-.42h.69l3.82-6.43h-.68v-.42h2.08l.05.07 3.99 6.78h.76v.42h-3.11v-.42z"/><path d="M91 41.62c-2.59 0-5.27 1.42-5.27 3.82 0 1.83 1.85 3.77 5.27 3.77 2.55 0 5.27-1.32 5.27-3.77 0-1.86-1.85-3.82-5.27-3.82zm0 7.17c-2.38 0-3.68-1.19-3.68-3.35s1.34-3.4 3.68-3.4c2.35 0 3.69 1.24 3.69 3.4s-1.31 3.35-3.69 3.35z" fill="#000"/><path d="M85.73 45.44c0 1.83 1.85 3.77 5.27 3.77 2.55 0 5.27-1.32 5.27-3.77 0-1.86-1.85-3.82-5.27-3.82-2.59 0-5.27 1.42-5.27 3.82zm1.59 0c0-2.16 1.34-3.4 3.68-3.4 2.35 0 3.69 1.24 3.69 3.4s-1.31 3.35-3.69 3.35-3.68-1.19-3.68-3.35z"/><path d="M96.92 41.78v.42h.61l.34.3v6.13h-.92v.42h2.15v-.42h-.83v-5.77l7.33 6.47.09.08V42.2h.69v-.42h-1.94v.42h.84v5.05l-6.16-5.46-2.2-.01z" fill="#000"/><path d="M96.92 42.2h.61l.34.3v6.13h-.92v.42h2.15v-.42h-.83v-5.77l7.33 6.47.09.08V42.2h.69v-.42h-1.94v.42h.84v5.05l-6.16-5.46-2.2-.01v.42z"/><path d="M40.49 48.8c-1.18-.04-1.31-.45-1.6-1l-1.08-2.19h-1.58l1.98 3.61h2.28v-.42z" fill="#000"/><path d="M38.89 47.8l-1.08-2.19h-1.58l1.98 3.61h2.28v-.42c-1.18-.04-1.31-.45-1.6-1z"/><path d="M84.18 42.53l.17 1.77-.35-.01-.1-.3c-.47-1.33-1.47-1.89-3.03-1.89-1.55 0-2.47.41-2.47 1.1 0 .75 1.28 1.05 2.63 1.37 1.68.4 3.58.85 3.58 2.34 0 1.56-1.28 2.35-3.8 2.35 0 0-1.85-.07-3.29-.57l-.41-2.11h.31l.13.32c.51 1.2 1.79 1.97 3.26 1.97 1.09 0 2.91-.18 2.91-1.42 0-.88-1.36-1.19-2.8-1.52-1.68-.38-3.41-.78-3.41-2.19 0-1.29 1.22-2.03 3.36-2.03.65 0 1.04.08 1.66.24 0 0 1.07.29 1.65.58z" fill="#000"/><path d="M84.35 44.3l-.35-.01-.1-.3c-.47-1.33-1.47-1.89-3.03-1.89-1.55 0-2.47.41-2.47 1.1 0 .75 1.28 1.05 2.63 1.37 1.68.4 3.58.85 3.58 2.34 0 1.56-1.28 2.35-3.8 2.35 0 0-1.85-.07-3.29-.57l-.41-2.11h.31l.13.32c.51 1.2 1.79 1.97 3.26 1.97 1.09 0 2.91-.18 2.91-1.42 0-.88-1.36-1.19-2.8-1.52-1.68-.38-3.41-.78-3.41-2.19 0-1.29 1.22-2.03 3.36-2.03.65 0 1.04.08 1.66.24 0 0 1.07.29 1.65.58l.17 1.77z"/><path d="M114.28 42.53l.17 1.77-.35-.01-.1-.3c-.47-1.33-1.47-1.89-3.03-1.89-1.55 0-2.47.41-2.47 1.1 0 .75 1.28 1.05 2.63 1.37 1.68.4 3.58.85 3.58 2.34 0 1.56-1.28 2.35-3.8 2.35 0 0-1.85-.07-3.29-.57l-.41-2.11h.31l.13.32c.51 1.2 1.79 1.97 3.26 1.97 1.09 0 2.91-.18 2.91-1.42 0-.88-1.36-1.19-2.8-1.52-1.68-.38-3.41-.78-3.41-2.19 0-1.29 1.22-2.03 3.36-2.03.65 0 1.04.08 1.66.24 0 0 1.07.29 1.65.58z" fill="#000"/><path d="M114.45 44.3l-.35-.01-.1-.3c-.47-1.33-1.47-1.89-3.03-1.89-1.55 0-2.47.41-2.47 1.1 0 .75 1.28 1.05 2.63 1.37 1.68.4 3.58.85 3.58 2.34 0 1.56-1.28 2.35-3.8 2.35 0 0-1.85-.07-3.29-.57l-.41-2.11h.31l.13.32c.51 1.2 1.79 1.97 3.26 1.97 1.09 0 2.91-.18 2.91-1.42 0-.88-1.36-1.19-2.8-1.52-1.68-.38-3.41-.78-3.41-2.19 0-1.29 1.22-2.03 3.36-2.03.65 0 1.04.08 1.66.24 0 0 1.07.29 1.65.58l.17 1.77z"/><path d="M69.66 20.72c-.66.25-1.08.71-.91 1.48.79-.25 1-.81.91-1.48z" fill="#000"/><path d="M68.75 22.2c.79-.25 1-.81.91-1.48-.66.25-1.08.71-.91 1.48z"/><path d="M67 21.17c.13.66.51 1.14 1.35 1.16-.09-.79-.64-1.1-1.35-1.16z" fill="#000"/><path d="M68.35 22.33c-.09-.79-.64-1.1-1.35-1.16.13.66.51 1.14 1.35 1.16z"/><path d="M68.35 24.34c-.04-.77-.59-1.09-1.35-1.15.09.66.46 1.14 1.35 1.15z" fill="#000"/><path d="M67 23.19c.09.66.46 1.14 1.35 1.15-.04-.77-.59-1.09-1.35-1.15z"/><path d="M65.92 13.99c-.71.06-1.26.37-1.35 1.15.84-.01 1.22-.49 1.35-1.15z" fill="#000"/><path d="M64.57 15.14c.84-.01 1.22-.49 1.35-1.15-.71.06-1.26.37-1.35 1.15z"/><path d="M62.7 13.41c.12.66.51 1.14 1.35 1.15-.1-.78-.64-1.09-1.35-1.15z" fill="#000"/><path d="M64.05 14.56c-.1-.78-.64-1.09-1.35-1.15.12.66.51 1.14 1.35 1.15z"/><path d="M62.51 11c.83-.01 1.22-.49 1.34-1.15-.71.06-1.25.37-1.34 1.15z" fill="#000"/><path d="M63.85 9.85c-.71.06-1.25.37-1.34 1.15.83-.01 1.22-.49 1.34-1.15z"/><path d="M63.16 8.1c-.65.27-1.07.73-.89 1.5.79-.26.99-.83.89-1.5z" fill="#000"/><path d="M62.27 9.6c.79-.26.99-.83.89-1.5-.65.27-1.07.73-.89 1.5z"/><path d="M60.81 8.66c.02.67.33 1.2 1.15 1.32.03-.78-.46-1.16-1.15-1.32z" fill="#000"/><path d="M61.96 9.98c.03-.78-.46-1.16-1.15-1.32.02.67.33 1.2 1.15 1.32z"/><path d="M60.5 6.78c.83-.01 1.22-.49 1.35-1.15-.72.06-1.26.37-1.35 1.15z" fill="#000"/><path d="M61.85 5.63c-.72.06-1.26.37-1.35 1.15.83-.01 1.22-.49 1.35-1.15z"/><path d="M61.2 4.05c-.62.32-.98.82-.72 1.56.75-.33.89-.91.72-1.56z" fill="#000"/><path d="M60.48 5.61c.75-.33.89-.91.72-1.56-.62.32-.98.82-.72 1.56z"/><path d="M60.26 6.17c.03-.78-.46-1.16-1.15-1.31.02.67.33 1.19 1.15 1.31z" fill="#000"/><path d="M59.11 4.86c.02.67.33 1.19 1.15 1.31.03-.78-.46-1.16-1.15-1.31z"/><path d="M59.81 7.31c-.09-.78-.64-1.09-1.35-1.15.13.66.51 1.13 1.35 1.15z" fill="#000"/><path d="M58.46 6.16c.13.66.51 1.13 1.35 1.15-.09-.78-.64-1.09-1.35-1.15z"/><path d="M57.58 8.84c.24-.14 2.82-1.56 2.82-1.56l-.1-.89s-.01.36-.02.51c-.01.16-.03.22-.17.3l-2.86 1.39c.01.2.01.41.01.63a.69.69 0 01.32-.38z" fill="#000"/><path d="M60.4 7.28l-.1-.89s-.01.36-.02.51c-.01.16-.03.22-.17.3l-2.86 1.39c.01.2.01.41.01.63a.69.69 0 01.32-.38c.24-.14 2.82-1.56 2.82-1.56z"/><path d="M56.94 1.19C56.85.41 56.31.1 55.6.04c.13.66.51 1.14 1.34 1.15z" fill="#000"/><path d="M55.6.04c.13.66.51 1.14 1.34 1.15C56.85.41 56.31.1 55.6.04z"/><path d="M56.92 2.46c-.09-.78-.63-1.09-1.34-1.15.13.66.51 1.14 1.34 1.15z" fill="#000"/><path d="M55.58 1.31c.13.66.51 1.14 1.34 1.15-.09-.78-.63-1.09-1.34-1.15z"/><path d="M56.9 3.73c-.09-.78-.63-1.09-1.34-1.15.13.66.51 1.14 1.34 1.15z" fill="#000"/><path d="M55.56 2.58c.13.66.51 1.14 1.34 1.15-.09-.78-.63-1.09-1.34-1.15z"/><path d="M56.88 5c-.09-.78-.63-1.09-1.34-1.15.13.66.51 1.13 1.34 1.15z" fill="#000"/><path d="M55.54 3.85c.13.66.51 1.13 1.34 1.15-.09-.78-.63-1.09-1.34-1.15z"/><path d="M56.86 6.27c-.09-.78-.63-1.09-1.34-1.15.13.66.51 1.14 1.34 1.15z" fill="#000"/><path d="M55.52 5.12c.13.66.51 1.14 1.34 1.15-.09-.78-.63-1.09-1.34-1.15z"/><path d="M56.84 7.54c-.09-.78-.63-1.09-1.34-1.15.13.66.51 1.13 1.34 1.15z" fill="#000"/><path d="M55.5 6.39c.13.66.51 1.13 1.34 1.15-.09-.78-.63-1.09-1.34-1.15z"/><path d="M55.04 4.64c-.68.21-1.13.63-1.03 1.41.8-.19 1.06-.74 1.03-1.41z" fill="#000"/><path d="M54.01 6.05c.8-.19 1.06-.74 1.03-1.41-.68.21-1.13.63-1.03 1.41z"/><path d="M54.03 6.98c.83-.01 1.22-.49 1.34-1.15-.7.06-1.25.37-1.34 1.15z" fill="#000"/><path d="M55.37 5.83c-.7.06-1.25.37-1.34 1.15.83-.01 1.22-.49 1.34-1.15z"/><path d="M53.7 6.2c.12-.78-.32-1.21-.99-1.43-.06.66.19 1.22.99 1.43z" fill="#000"/><path d="M52.71 4.77c-.06.66.19 1.22.99 1.43.12-.78-.32-1.21-.99-1.43z"/><path d="M53.53 7.07c-.09-.78-.63-1.09-1.35-1.15.13.66.51 1.14 1.35 1.15z" fill="#000"/><path d="M52.18 5.92c.13.66.51 1.14 1.35 1.15-.09-.78-.63-1.09-1.35-1.15z"/><path d="M55.52 10.64c-.72.06-1.26.37-1.35 1.15.84-.01 1.22-.49 1.35-1.15z" fill="#000"/><path d="M54.17 11.79c.84-.01 1.22-.49 1.35-1.15-.72.06-1.26.37-1.35 1.15z"/><path d="M53.18 11.31c.84-.01 1.22-.49 1.35-1.15-.71.06-1.26.37-1.35 1.15z" fill="#000"/><path d="M54.53 10.16c-.71.06-1.26.37-1.35 1.15.84-.01 1.22-.49 1.35-1.15z"/><path d="M56.51 11.12c-.71.06-1.26.37-1.35 1.15.84-.01 1.22-.49 1.35-1.15z" fill="#000"/><path d="M55.16 12.27c.84-.01 1.22-.49 1.35-1.15-.71.06-1.26.37-1.35 1.15z"/><path d="M54.74 9.81c.83-.01 1.21-.49 1.34-1.15-.71.06-1.25.37-1.34 1.15z" fill="#000"/><path d="M56.08 8.66c-.71.06-1.25.37-1.34 1.15.83-.01 1.21-.49 1.34-1.15z"/><path d="M53.79 9.3c.83-.02 1.22-.5 1.35-1.15-.72.05-1.26.37-1.35 1.15z" fill="#000"/><path d="M55.14 8.15c-.72.05-1.26.37-1.35 1.15.83-.02 1.22-.5 1.35-1.15z"/><path d="M52.83 8.77c.83-.01 1.21-.49 1.34-1.15-.71.06-1.25.37-1.34 1.15z" fill="#000"/><path d="M54.17 7.62c-.71.06-1.25.37-1.34 1.15.83-.01 1.21-.49 1.34-1.15z"/><path d="M53.53 9.66c-.71.06-1.26.37-1.35 1.15.84-.01 1.22-.49 1.35-1.15z" fill="#000"/><path d="M52.18 10.81c.84-.01 1.22-.49 1.35-1.15-.71.06-1.26.37-1.35 1.15z"/><path d="M51.93 9.59c.11-.78-.34-1.21-1.02-1.42-.04.67.21 1.22 1.02 1.42z" fill="#000"/><path d="M50.91 8.17c-.04.67.21 1.22 1.02 1.42.11-.78-.34-1.21-1.02-1.42z"/><path d="M51.68 10.77c-.1-.78-.64-1.09-1.35-1.15.12.66.51 1.14 1.35 1.15z" fill="#000"/><path d="M50.33 9.62c.12.66.51 1.14 1.35 1.15-.1-.78-.64-1.09-1.35-1.15z"/><path d="M52.39 14.75c-.72.05-1.26.37-1.35 1.15.83-.01 1.22-.49 1.35-1.15z" fill="#000"/><path d="M51.04 15.9c.83-.01 1.22-.49 1.35-1.15-.72.05-1.26.37-1.35 1.15z"/><path d="M50.08 15.39c.83-.02 1.22-.5 1.35-1.16-.72.06-1.26.38-1.35 1.16z" fill="#000"/><path d="M51.43 14.23c-.72.06-1.26.38-1.35 1.16.83-.02 1.22-.5 1.35-1.16z"/><path d="M53.37 15.23c-.71.06-1.25.37-1.34 1.15.83-.01 1.22-.49 1.34-1.15z" fill="#000"/><path d="M52.03 16.38c.83-.01 1.22-.49 1.34-1.15-.71.06-1.25.37-1.34 1.15z"/><path d="M54.36 15.71c-.71.06-1.25.37-1.34 1.15.83-.01 1.22-.49 1.34-1.15z" fill="#000"/><path d="M53.02 16.86c.83-.01 1.22-.49 1.34-1.15-.71.06-1.25.37-1.34 1.15z"/><path d="M55.35 16.19c-.71.05-1.25.37-1.35 1.15.84-.01 1.23-.5 1.35-1.15z" fill="#000"/><path d="M54 17.34c.84-.01 1.23-.5 1.35-1.15-.71.05-1.25.37-1.35 1.15z"/><path d="M56.35 16.66c-.71.06-1.26.37-1.35 1.15.84-.01 1.22-.49 1.35-1.15z" fill="#000"/><path d="M55 17.81c.84-.01 1.22-.49 1.35-1.15-.71.06-1.26.37-1.35 1.15z"/><path d="M54.93 14.77c.84-.01 1.22-.49 1.35-1.15-.71.06-1.26.37-1.35 1.15z" fill="#000"/><path d="M56.28 13.62c-.71.06-1.26.37-1.35 1.15.84-.01 1.22-.49 1.35-1.15z"/><path d="M53.97 14.25c.84-.02 1.22-.5 1.35-1.16-.71.06-1.26.38-1.35 1.16z" fill="#000"/><path d="M55.32 13.09c-.71.06-1.26.38-1.35 1.16.84-.02 1.22-.5 1.35-1.16z"/><path d="M53.02 13.72c.84-.01 1.22-.49 1.35-1.15-.71.06-1.26.37-1.35 1.15z" fill="#000"/><path d="M54.37 12.57c-.71.06-1.26.37-1.35 1.15.84-.01 1.22-.49 1.35-1.15z"/><path d="M52.07 13.2c.84-.02 1.22-.5 1.35-1.16-.71.06-1.26.37-1.35 1.16z" fill="#000"/><path d="M53.42 12.04c-.71.06-1.26.37-1.35 1.16.84-.02 1.22-.5 1.35-1.16z"/><path d="M51.12 12.67c.83-.01 1.22-.49 1.35-1.15-.72.05-1.26.37-1.35 1.15z" fill="#000"/><path d="M52.47 11.52c-.72.05-1.26.37-1.35 1.15.83-.01 1.22-.49 1.35-1.15z"/><path d="M51.4 13.06c-.72.06-1.26.37-1.35 1.15.83-.01 1.22-.49 1.35-1.15z" fill="#000"/><path d="M50.05 14.21c.83-.01 1.22-.49 1.35-1.15-.72.06-1.26.37-1.35 1.15z"/><path d="M49.88 13.56c.21-.76-.19-1.23-.83-1.52-.13.66.05 1.24.83 1.52z" fill="#000"/><path d="M49.05 12.04c-.13.66.05 1.24.83 1.52.21-.76-.19-1.23-.83-1.52z"/><path d="M49.66 14.58c-.09-.78-.64-1.1-1.35-1.16.13.66.51 1.14 1.35 1.16z" fill="#000"/><path d="M48.31 13.42c.13.66.51 1.14 1.35 1.16-.09-.78-.64-1.1-1.35-1.16z"/><path d="M49.47 15.73c-.09-.78-.63-1.1-1.34-1.15.12.65.51 1.13 1.34 1.15z" fill="#000"/><path d="M48.13 14.58c.12.65.51 1.13 1.34 1.15-.09-.78-.63-1.1-1.34-1.15z"/><path d="M51.8 18.94c.84-.01 1.22-.49 1.35-1.15-.71.05-1.25.37-1.35 1.15z" fill="#000"/><path d="M53.15 17.79c-.71.05-1.25.37-1.35 1.15.84-.01 1.22-.49 1.35-1.15z"/><path d="M51.8 20.75c.84-.02 1.22-.5 1.35-1.16-.71.06-1.25.38-1.35 1.16z" fill="#000"/><path d="M53.15 19.59c-.71.06-1.25.38-1.35 1.16.84-.02 1.22-.5 1.35-1.16z"/><path d="M50.86 18.42c.84-.01 1.22-.49 1.35-1.15-.71.05-1.26.37-1.35 1.15z" fill="#000"/><path d="M52.21 17.27c-.71.05-1.26.37-1.35 1.15.84-.01 1.22-.49 1.35-1.15z"/><path d="M49.92 17.9c.83-.02 1.22-.5 1.35-1.16-.72.06-1.26.37-1.35 1.16z" fill="#000"/><path d="M51.27 16.74c-.72.06-1.26.37-1.35 1.16.83-.02 1.22-.5 1.35-1.16z"/><path d="M48.97 17.38c.84-.01 1.22-.5 1.35-1.15-.71.05-1.26.37-1.35 1.15z" fill="#000"/><path d="M50.32 16.23c-.71.05-1.26.37-1.35 1.15.84-.01 1.22-.5 1.35-1.15z"/><path d="M68.53 22.3s.13 1.29.09 1.81c-.04.59-.12.8-.6 1.09l-10.36 5c-.02-.95-.04-2.04-.06-3.23v-.31c-.01-.65.18-1 1-1.49.71-.42 8.36-4.62 8.36-4.62.01 0 .04-.02.04-.08l-.35-2.54h-.12s.1 1.07.07 1.5c-.03.48-.1.65-.49.9l-8.56 4.13c-.02-1.23-.04-2.53-.07-3.85l-.01-.36c.02-.41.17-.65.73-.98.53-.32 6.24-3.45 6.24-3.45.01-.01.03-.02.03-.07l-.26-1.89h-.09s.08.8.06 1.12c-.03.36-.08.49-.38.67l-6.35 3.07-.09-4.46c.04-.21.17-.48.52-.69.38-.23 4.47-2.47 4.47-2.47l-.17-1.4h-.06s.06.57.04.8c-.02.26-.05.35-.27.48l-4.55 2.2c-.03-1.37-.05-2.7-.08-3.96 0-.21 0-.42-.01-.63-.09-4.91-.16-8.55-.16-8.55-.03 0-.09-.03-.09 0 0 0-.07 3.64-.16 8.54v0L53.99 7.2c-.13-.08-.15-.14-.16-.3-.01-.15.02-.51.02-.51l-.16.86s2.6 1.45 2.84 1.59c.17.1.26.22.3.33-.02 1.27-.05 2.62-.07 4l-4.54-2.19c-.22-.13-.25-.22-.27-.48-.02-.23.04-.8.04-.8h-.06l-.19 1.35s4.11 2.29 4.49 2.52c.32.19.45.43.51.63l-.09 4.52-6.36-3.07c-.29-.18-.34-.31-.37-.67-.02-.32.06-1.12.06-1.12h-.09l-.26 1.89c-.01.05.02.06.03.07 0 0 5.71 3.13 6.24 3.45.57.34.72.59.72 1.02v.38c-.03 1.3-.05 2.57-.07 3.78L48 20.33c-.39-.25-.46-.42-.49-.9-.03-.43.07-1.5.07-1.5h-.12l-.35 2.54c0 .06.02.08.04.08 0 0 7.65 4.2 8.36 4.62.82.49 1.01.84 1 1.49-.03 1.31-.05 2.51-.07 3.54l-10.35-5c-.48-.29-.56-.5-.6-1.09-.04-.52.09-1.81.09-1.81h-.14l-.43 3.07c0 .07.03.1.05.11 0 0 9.26 5.08 10.12 5.59 1.01.6 1.21.64 1.21 1.73l-.02 1.37c0 .95-.8.98-.8.98v.18h2.97v-.18s-.81-.03-.81-.98l-.01-1.37c0-1.09.2-1.13 1.21-1.73.86-.51 10.12-5.59 10.12-5.59.02-.01.05-.04.05-.11l-.43-3.07h-.14z" fill="#000"/><path d="M56.84 8.58L53.99 7.2c-.13-.08-.15-.14-.16-.3-.01-.15.02-.51.02-.51l-.16.86s2.6 1.45 2.84 1.59c.17.1.26.22.3.33-.02 1.27-.05 2.62-.07 4l-4.54-2.19c-.22-.13-.25-.22-.27-.48-.02-.23.04-.8.04-.8h-.06l-.19 1.35s4.11 2.29 4.49 2.52c.32.19.45.43.51.63l-.09 4.52-6.36-3.07c-.29-.18-.34-.31-.37-.67-.02-.32.06-1.12.06-1.12h-.09l-.26 1.89c-.01.05.02.06.03.07 0 0 5.71 3.13 6.24 3.45.57.34.72.59.72 1.02v.38c-.03 1.3-.05 2.57-.07 3.78L48 20.33c-.39-.25-.46-.42-.49-.9-.03-.43.07-1.5.07-1.5h-.12l-.35 2.54c0 .06.02.08.04.08 0 0 7.65 4.2 8.36 4.62.82.49 1.01.84 1 1.49-.03 1.31-.05 2.51-.07 3.54l-10.35-5c-.48-.29-.56-.5-.6-1.09-.04-.52.09-1.81.09-1.81h-.14l-.43 3.07c0 .07.03.1.05.11 0 0 9.26 5.08 10.12 5.59 1.01.6 1.21.64 1.21 1.73l-.02 1.37c0 .95-.8.98-.8.98v.18h2.97v-.18s-.81-.03-.81-.98l-.01-1.37c0-1.09.2-1.13 1.21-1.73.86-.51 10.12-5.59 10.12-5.59.02-.01.05-.04.05-.11l-.43-3.07h-.14s.13 1.29.09 1.81c-.04.59-.12.8-.6 1.09l-10.36 5c-.02-.95-.04-2.04-.06-3.23v-.31c-.01-.65.18-1 1-1.49.71-.42 8.36-4.62 8.36-4.62.01 0 .04-.02.04-.08l-.35-2.54h-.12s.1 1.07.07 1.5c-.03.48-.1.65-.49.9l-8.56 4.13c-.02-1.23-.04-2.53-.07-3.85l-.01-.36c.02-.41.17-.65.73-.98.53-.32 6.24-3.45 6.24-3.45.01-.01.03-.02.03-.07l-.26-1.89h-.09s.08.8.06 1.12c-.03.36-.08.49-.38.67l-6.35 3.07-.09-4.46c.04-.21.17-.48.52-.69.38-.23 4.47-2.47 4.47-2.47l-.17-1.4h-.06s.06.57.04.8c-.02.26-.05.35-.27.48l-4.55 2.2c-.03-1.37-.05-2.7-.08-3.96 0-.21 0-.42-.01-.63-.09-4.91-.16-8.55-.16-8.55-.03 0-.09-.03-.09 0 0 0-.07 3.64-.16 8.54v0z"/><path d="M53.75 20.03c.84-.01 1.23-.49 1.35-1.15-.71.06-1.26.37-1.35 1.15z" fill="#000"/><path d="M55.1 18.88c-.71.06-1.26.37-1.35 1.15.84-.01 1.23-.49 1.35-1.15z"/><path d="M56.05 19.45c-.72.06-1.26.38-1.35 1.16.83-.02 1.22-.49 1.35-1.16z" fill="#000"/><path d="M54.7 20.61c.83-.02 1.22-.49 1.35-1.16-.72.06-1.26.38-1.35 1.16z"/><path d="M61.08 16.84c.66-.49.65-1.09.32-1.68-.52.45-.75 1.01-.32 1.68z" fill="#000"/><path d="M61.4 15.16c-.52.45-.75 1.01-.32 1.68.66-.49.65-1.09.32-1.68z"/><path d="M59.73 15.99c-.53.45-.76 1.01-.32 1.69.66-.49.65-1.09.32-1.69z" fill="#000"/><path d="M59.41 17.68c.66-.49.65-1.09.32-1.69-.53.45-.76 1.01-.32 1.69z"/><path d="M57.95 13.67c.13.66.51 1.14 1.35 1.15-.09-.78-.64-1.09-1.35-1.15z" fill="#000"/><path d="M59.3 14.82c-.09-.78-.64-1.09-1.35-1.15.13.66.51 1.14 1.35 1.15z"/><path d="M62.76 18.84c-.09-.78-.64-1.09-1.35-1.15.13.66.51 1.14 1.35 1.15z" fill="#000"/><path d="M61.41 17.69c.13.66.51 1.14 1.35 1.15-.09-.78-.64-1.09-1.35-1.15z"/><path d="M61.07 19.7c-.09-.78-.64-1.1-1.35-1.16.13.66.51 1.14 1.35 1.16z" fill="#000"/><path d="M59.72 18.54c.13.66.51 1.14 1.35 1.16-.09-.78-.64-1.1-1.35-1.16z"/><path d="M65.81 26.04c-.09-.78-.64-1.1-1.35-1.16.12.67.51 1.15 1.35 1.16z" fill="#000"/><path d="M64.46 24.88c.12.67.51 1.15 1.35 1.16-.09-.78-.64-1.1-1.35-1.16z"/><path d="M63.87 26.88c-.09-.78-.64-1.1-1.35-1.16.12.67.51 1.15 1.35 1.16z" fill="#000"/><path d="M62.52 25.72c.12.67.51 1.15 1.35 1.16-.09-.78-.64-1.1-1.35-1.16z"/><path d="M61.62 23.77c.13.66.51 1.14 1.35 1.15-.1-.78-.64-1.09-1.35-1.15z" fill="#000"/><path d="M62.97 24.92c-.1-.78-.64-1.09-1.35-1.15.13.66.51 1.14 1.35 1.15z"/><path d="M60.34 28.57c-.09-.79-.64-1.1-1.35-1.16.13.66.51 1.14 1.35 1.16z" fill="#000"/><path d="M58.99 27.41c.13.66.51 1.14 1.35 1.16-.09-.79-.64-1.1-1.35-1.16z"/><path d="M67.81 26.6c-.14.77.34 1.19 1.06 1.39.06-.66-.2-1.2-1.06-1.39z" fill="#000"/><path d="M68.87 27.99c.06-.66-.2-1.2-1.06-1.39-.14.77.34 1.19 1.06 1.39z"/><path d="M65.95 27.87c.03.78.59 1.1 1.35 1.16-.09-.67-.46-1.15-1.35-1.16z" fill="#000"/><path d="M67.3 29.03c-.09-.67-.46-1.15-1.35-1.16.03.78.59 1.1 1.35 1.16z"/><path d="M63.11 30.44c.78-.3.95-.89.81-1.55-.65.3-1.03.79-.81 1.55z" fill="#000"/><path d="M63.92 28.89c-.65.3-1.03.79-.81 1.55.78-.3.95-.89.81-1.55z"/><path d="M66.43 18.55c-.09-.78-.64-1.09-1.35-1.15.13.66.51 1.14 1.35 1.15z" fill="#000"/><path d="M65.08 17.4c.13.66.51 1.14 1.35 1.15-.09-.78-.64-1.09-1.35-1.15z"/><path d="M66.37 19.71c-.09-.79-.63-1.1-1.34-1.16.12.66.51 1.14 1.34 1.16z" fill="#000"/><path d="M65.03 18.55c.12.66.51 1.14 1.34 1.16-.09-.79-.63-1.1-1.34-1.16z"/><path d="M67.11 20.48c.84-.01 1.22-.49 1.35-1.15-.72.05-1.26.37-1.35 1.15z" fill="#000"/><path d="M68.46 19.33c-.72.05-1.26.37-1.35 1.15.84-.01 1.22-.49 1.35-1.15z"/><path d="M68.25 17.4c-.71.06-1.25.37-1.35 1.15.84-.01 1.22-.49 1.35-1.15z" fill="#000"/><path d="M66.9 18.55c.84-.01 1.22-.49 1.35-1.15-.71.06-1.25.37-1.35 1.15z"/></svg>