<svg width="123" height="35" fill="none" xmlns="http://www.w3.org/2000/svg"><defs><clipPath id="prefix__a"><path fill="#fff" fill-opacity="0" d="M0 0h123v35H0z"/></clipPath></defs><g clip-path="url(#prefix__a)" fill="#231F20"><path d="M100.77 23.43v-8.25l8.49 8.57.06-12.69h-1.81v8.31l-8.55-8.5.06 12.56h1.75zM97.02 10.93h-6.93v12.5h7.31v-1.62h-5.37v-3.88h4.74v-1.62h-4.74v-3.69h4.99v-1.69zM85.725 11.063h1.936v12.375h-1.936zM81.54 12.62c-.63-.56-1.31-1-2.13-1.25-.93-.25-1.93-.37-2.93-.37h-2.56v12.37h2.56c1 .06 1.94-.06 2.87-.37.81-.25 1.5-.63 2.19-1.19 2.56-2.31 2.74-6.25.43-8.81-.18-.07-.31-.19-.43-.38zm-1.38 7.88c-.43.37-.93.68-1.49.87-.69.19-1.38.31-2.13.25h-.87v-8.81h.87c1.31-.13 2.62.31 3.62 1.12.94.82 1.44 2.07 1.44 3.32.06 1.25-.5 2.43-1.44 3.25zM69.679 11.063h1.936v12.375h-1.936zM64.68 18.06c.56-.25 1.06-.63 1.37-1.06.56-.69.88-1.5.88-2.38 0-1.06-.44-2.06-1.25-2.75-.75-.62-1.94-.87-3.56-.87h-2.19v12.37h1.88V18.5h1l3.43 4.93h2.19l-3.75-5.37zm-2.31-1h-.56v-4.5h.68c1.69 0 2.56.81 2.56 2.25-.06 1.44-.93 2.25-2.68 2.25zM57.87 10.93h-6.99v12.5h7.31v-1.62h-5.31v-3.88h4.68v-1.62h-4.68v-3.69h4.99v-1.69zM37.21 23.43l.81-7.43 4.31 7.43 4.24-7.37.81 7.37h1.82l-1.69-12.68L42.33 20l-5.19-9.19-1.74 12.62h1.81zM23.1 17.68l.12-.25c1.19-2.18 2.19-4.5 4.18-6.12.82-.69 2.88-1.13 2.5 1-.62 2.37-3.68 4.94-6.43 5.37h-.37zm5.24 3.25c.94.07 3.75-1 3.75-2.43-.13-.75-1.06-.63-1.56-.5-1.31.37-2.5 1.87-3.13 2.87-.43.69-1.06 1.19-1.81 1.44-1.12.37-2.37.5-3.55.31-.75-.12-1-.19-2.25-.5 1.37-1.12 2.25-2.75 3.24-4.19 2.88-.31 5.44-2 6.87-4.5.63-1.12.81-2.75-.68-3-.88-.12-1.63.25-2.5.82-2.37 1.62-3.69 4.12-4.87 6.56-.5.06-1.06.06-1.56-.06a5.3 5.3 0 01-2.19-.88c-1.5-1.06-2.12-2.94-1.62-4.69l-.31.13c-.32 1.19-.13 2.37.43 3.44.5.93 1.38 1.62 2.44 1.93.75.32 1.56.44 2.37.38h.38l-.19.37c-.38.75-.81 1.5-1.25 2.25-.06.07-.13.25-.19.32-.31.37-.5.62-.81 1-1.56-.44-3.43-.69-4.56-.25 0 0-.75.25-.81.87-.06.88 1.31 1.06 1.31 1.06 1.38.25 2.69-.25 4.06-1.18 1.31.43 2.93 1.5 4.56 1.25.37-.07.75-.13 1.12-.32.31-.12.56-.31.81-.5.57-.43 1-1 1.44-1.56-.19.44-.19.94-.06 1.38.12.43.43.75.87.81 1.75.37 3.06-.94 4.06-2.25h-.19c-.56.81-2.06 2.44-3.56 2.06-1-.5-.43-1.75-.06-2.44zm.13-.25c.43-.75 1.24-2.06 2.37-2.56.25-.19.62-.06.81.19.06.25.13.56-.37 1.12-.82.63-1.81 1.13-2.81 1.25zm-10.06 1.88c-.5.31-1.93 1-3.06.81 0 0-1.24-.12-1.31-.69-.06-.68.63-.87 1.13-.93 1.25-.13 2.56.06 3.74.5l-.06.06-.44.25z"/></g></svg>