<svg width="100" height="56" fill="none" xmlns="http://www.w3.org/2000/svg"><defs><clipPath id="prefix__a"><path fill="#fff" fill-opacity="0" d="M0 0h100v56H0z"/></clipPath></defs><g clip-path="url(#prefix__a)"><path d="M44.87.47c-.09.14-.47 1.17-.82 2.28l-.67 2.04-.93-1.9-.97-1.87-.38 1.81c-.2 1.03-.43 1.85-.55 1.85-.09 0-.56-.7-1.08-1.55l-.93-1.52-.03 1.66c0 1.85-.21 2.02-1.05 1.09-1.29-1.44-1.55-1.2-.76.64.67 1.46.87 1.73 1.37 1.58 3.3-1.02 4.03-1.14 7-1.11 2.34 0 3.77.17 5.25.61 1.11.32 2.05.59 2.07.56.03-.03.47-.91 1-1.93l.93-1.88-1.31 1.09c-.7.58-1.37 1.05-1.49 1.05-.09 0-.18-.76-.18-1.67V1.64l-.99 1.55c-.52.87-1.05 1.46-1.11 1.31-.08-.14-.26-.85-.38-1.58-.11-.73-.29-1.43-.37-1.58-.09-.14-.59.59-1.08 1.61l-.97 1.87-.7-2.31c-.41-1.26-.81-2.19-.87-2.04z" fill="#000"/><path d="M44.05 2.75l-.67 2.04-.93-1.9-.97-1.87-.38 1.81c-.2 1.03-.43 1.85-.55 1.85-.09 0-.56-.7-1.08-1.55l-.93-1.52-.03 1.66c0 1.85-.21 2.02-1.05 1.09-1.29-1.44-1.55-1.2-.76.64.67 1.46.87 1.73 1.37 1.58 3.3-1.02 4.03-1.14 7-1.11 2.34 0 3.77.17 5.25.61 1.11.32 2.05.59 2.07.56.03-.03.47-.91 1-1.93l.93-1.88-1.31 1.09c-.7.58-1.37 1.05-1.49 1.05-.09 0-.18-.76-.18-1.67V1.64l-.99 1.55c-.52.87-1.05 1.46-1.11 1.31-.08-.14-.26-.85-.38-1.58-.11-.73-.29-1.43-.37-1.58-.09-.14-.59.59-1.08 1.61l-.97 1.87-.7-2.31c-.41-1.26-.81-2.19-.87-2.04-.09.14-.47 1.17-.82 2.28z"/><path d="M40.7 8.71c-6.07 2.11-9.66 8.16-8.64 14.45.73 4.48 2.98 7.69 6.68 9.51l2.22 1.11h3.82c3.73 0 3.85-.03 5.83-.99 5.52-2.72 8.44-9.01 7.12-15.3-.9-4.27-3.82-7.4-8.17-8.75-2.33-.73-6.79-.76-8.86-.03zm8.05 1.38c1.72.9 2.83 1.9 3.85 3.45 1.34 2.04 1.95 3.98 2.16 6.79.52 7.72-3.62 12.86-10.04 12.34-3.41-.26-6.65-2.58-8.23-5.88-.99-2.05-1.57-5.29-1.37-7.81.29-4.15 2.02-7.17 4.96-8.66 2.48-1.26 6.45-1.37 8.67-.23z" fill="#000"/><path d="M32.06 23.16c.73 4.48 2.98 7.69 6.68 9.51l2.22 1.11h3.82c3.73 0 3.85-.03 5.83-.99 5.52-2.72 8.44-9.01 7.12-15.3-.9-4.27-3.82-7.4-8.17-8.75-2.33-.73-6.79-.76-8.86-.03-6.07 2.11-9.66 8.16-8.64 14.45zm20.54-9.62c1.34 2.04 1.95 3.98 2.16 6.79.52 7.72-3.62 12.86-10.04 12.34-3.41-.26-6.65-2.58-8.23-5.88-.99-2.05-1.57-5.29-1.37-7.81.29-4.15 2.02-7.17 4.96-8.66 2.48-1.26 6.45-1.37 8.67-.23 1.72.9 2.83 1.9 3.85 3.45z"/><path d="M7.87 12.95c-3.41.82-5.86 2.9-7.03 6.03-.9 2.4-.7 6.49.44 8.86 1.6 3.37 4.67 5.12 9.36 5.41 2.63.18 5.52-.35 6.51-1.14.23-.2.35-1.4.35-4 0-2.02.12-3.84.23-4.04.12-.21.56-.47.94-.65.55-.2-.06-.29-2.48-.29l-3.21-.03 1.02.53 1.02.5.09 3.54c.09 4.39.11 4.36-3.42 4.36-2.85 0-4.28-.59-6.24-2.46-2.92-2.75-3.88-7.93-2.22-11.7 1.2-2.72 3.01-3.86 6.45-4.07 3.94-.23 6.71.94 7.12 3.02.29 1.6.7.87.7-1.29v-1.99l-1.66-.35c-2.66-.56-6.19-.65-7.97-.24z" fill="#000"/><path d="M.84 18.98c-.9 2.4-.7 6.49.44 8.86 1.6 3.37 4.67 5.12 9.36 5.41 2.63.18 5.52-.35 6.51-1.14.23-.2.35-1.4.35-4 0-2.02.12-3.84.23-4.04.12-.21.56-.47.94-.65.55-.2-.06-.29-2.48-.29l-3.21-.03 1.02.53 1.02.5.09 3.54c.09 4.39.11 4.36-3.42 4.36-2.85 0-4.28-.59-6.24-2.46-2.92-2.75-3.88-7.93-2.22-11.7 1.2-2.72 3.01-3.86 6.45-4.07 3.94-.23 6.71.94 7.12 3.02.29 1.6.7.87.7-1.29v-1.99l-1.66-.35c-2.66-.56-6.19-.65-7.97-.24-3.41.82-5.86 2.9-7.03 6.03z"/><path d="M88.86 13.45c-.26.56-1.83 4.71-3.53 9.21-1.66 4.51-3.29 8.52-3.58 8.93-.76.99-1.55.93-1.87-.15-.32-1.17.06-17.17.44-17.64.14-.17.55-.35.87-.35.32 0 .5-.09.41-.2-.18-.15-5.34-.24-5.95-.09-.15.03.09.15.49.26 1.4.38 1.46.97 1.29 9.98-.15 6.05-.29 8.45-.56 8.71-.78.88-2.65-.82-6.82-6.17l-1.58-1.99.9-.93c2.05-2.2 2.75-5.33 1.61-7.29-.29-.52-1.14-1.28-1.87-1.69-1.19-.68-1.63-.73-5.92-.82-2.98-.09-4.55-.03-4.43.17.08.15.55.35.99.44.55.12.93.41 1.05.85.23.91.23 15.41 0 16.61-.15.62-.44 1.03-.88 1.2-.38.12-.7.33-.7.41 0 .09 1.4.15 3.09.15 1.96 0 3.01-.12 2.89-.29-.08-.18-.49-.3-.87-.3-.97 0-1.32-1.25-1.32-4.85v-3.04h3.51l2.42 3.3c2.71 3.63 3.47 4.42 4.67 4.86.49.2 3.09.32 6.27.32 5.05-.03 5.4-.06 4.64-.47-.99-.52-.94-.91.49-4.8l.94-2.48h6.09l1.41 3.51c.75 1.96 1.25 3.54 1.07 3.6-.17.05-.23.23-.11.38.09.14 1.34.26 2.77.26 2.54 0 3.24-.32 1.46-.67-.47-.09-1.11-.56-1.43-1-.32-.44-2.1-4.71-4-9.45-1.87-4.73-3.53-8.83-3.65-9.06-.17-.33-.35-.18-.7.58zm-21.91 1.17c1.46.7 2.19 1.9 2.4 3.89.35 3.45-.88 5.18-3.74 5.18-2.74 0-2.6.26-2.6-4.8 0-2.46.09-4.56.21-4.65.38-.41 2.57-.17 3.73.38zm23.34 5.71c.62 1.75 1.17 3.39 1.26 3.56.09.3-.53.38-2.54.38-1.46 0-2.65-.08-2.65-.2 0-.67 2.45-7.4 2.62-7.2.12.12.7 1.67 1.31 3.46z" fill="#000"/><path d="M85.33 22.66c-1.66 4.51-3.29 8.52-3.58 8.93-.76.99-1.55.93-1.87-.15-.32-1.17.06-17.17.44-17.64.14-.17.55-.35.87-.35.32 0 .5-.09.41-.2-.18-.15-5.34-.24-5.95-.09-.15.03.09.15.49.26 1.4.38 1.46.97 1.29 9.98-.15 6.05-.29 8.45-.56 8.71-.78.88-2.65-.82-6.82-6.17l-1.58-1.99.9-.93c2.05-2.2 2.75-5.33 1.61-7.29-.29-.52-1.14-1.28-1.87-1.69-1.19-.68-1.63-.73-5.92-.82-2.98-.09-4.55-.03-4.43.17.08.15.55.35.99.44.55.12.93.41 1.05.85.23.91.23 15.41 0 16.61-.15.62-.44 1.03-.88 1.2-.38.12-.7.33-.7.41 0 .09 1.4.15 3.09.15 1.96 0 3.01-.12 2.89-.29-.08-.18-.49-.3-.87-.3-.97 0-1.32-1.25-1.32-4.85v-3.04h3.51l2.42 3.3c2.71 3.63 3.47 4.42 4.67 4.86.49.2 3.09.32 6.27.32 5.05-.03 5.4-.06 4.64-.47-.99-.52-.94-.91.49-4.8l.94-2.48h6.09l1.41 3.51c.75 1.96 1.25 3.54 1.07 3.6-.17.05-.23.23-.11.38.09.14 1.34.26 2.77.26 2.54 0 3.24-.32 1.46-.67-.47-.09-1.11-.56-1.43-1-.32-.44-2.1-4.71-4-9.45-1.87-4.73-3.53-8.83-3.65-9.06-.17-.33-.35-.18-.7.58-.26.56-1.83 4.71-3.53 9.21zm-15.98-4.15c.35 3.45-.88 5.18-3.74 5.18-2.74 0-2.6.26-2.6-4.8 0-2.46.09-4.56.21-4.65.38-.41 2.57-.17 3.73.38 1.46.7 2.19 1.9 2.4 3.89zm22.2 5.38c.09.3-.53.38-2.54.38-1.46 0-2.65-.08-2.65-.2 0-.67 2.45-7.4 2.62-7.2.12.12.7 1.67 1.31 3.46.62 1.75 1.17 3.39 1.26 3.56z"/><path d="M19.92 13.22c-.06.14.21.23.61.23 1.61 0 1.64.18 1.64 9.36 0 4.65-.09 8.66-.18 8.92-.11.27-.52.65-.96.82-.61.29.32.38 5.05.44 3.56.03 5.92-.03 6.1-.21.17-.17.35-1.05.4-1.98l.12-1.7-.58 1.23c-.64 1.4-1.2 1.64-3.82 1.64-2.25 0-3.07-.24-3.39-.91-.12-.26-.26-4.01-.35-8.34-.12-6.87-.06-7.89.35-8.54.32-.47.76-.73 1.26-.73.4 0 .67-.09.58-.2-.29-.27-6.65-.3-6.83-.03z" fill="#000"/><path d="M20.53 13.45c1.61 0 1.64.18 1.64 9.36 0 4.65-.09 8.66-.18 8.92-.11.27-.52.65-.96.82-.61.29.32.38 5.05.44 3.56.03 5.92-.03 6.1-.21.17-.17.35-1.05.4-1.98l.12-1.7-.58 1.23c-.64 1.4-1.2 1.64-3.82 1.64-2.25 0-3.07-.24-3.39-.91-.12-.26-.26-4.01-.35-8.34-.12-6.87-.06-7.89.35-8.54.32-.47.76-.73 1.26-.73.4 0 .67-.09.58-.2-.29-.27-6.65-.3-6.83-.03-.06.14.21.23.61.23z"/><path d="M21.22 40.83c1.33 0 2.34.98 2.34 2.62 0 1.64-1.01 2.62-2.34 2.62-1.34 0-2.34-.98-2.34-2.62 0-1.64 1-2.62 2.34-2.62zM40.7 42.3h-.89c-.05-.43-.41-.68-.96-.68-.57 0-.92.28-.92.66v.01c0 .42.45.59.87.69l.47.12c.77.18 1.5.58 1.5 1.47s-.71 1.5-1.93 1.5c-1.19 0-1.94-.57-1.98-1.58h.91c.04.54.48.79 1.06.79.6 0 1.01-.28 1.02-.72-.01-.4-.37-.57-.92-.71l-.58-.15c-.83-.21-1.35-.63-1.35-1.36v-.01c0-.9.8-1.5 1.87-1.5 1.08 0 1.81.61 1.83 1.47zm21.46 0h-.88c-.05-.43-.41-.68-.96-.68-.58 0-.92.28-.92.66v.01c0 .42.44.59.86.69l.48.12c.76.18 1.49.58 1.49 1.47s-.71 1.5-1.93 1.5c-1.18 0-1.94-.57-1.97-1.58h.9c.04.54.49.79 1.06.79.61 0 1.02-.28 1.02-.72 0-.4-.36-.57-.91-.71l-.58-.15c-.84-.21-1.36-.63-1.36-1.36v-.01c0-.9.8-1.5 1.87-1.5 1.08 0 1.82.61 1.83 1.47zm3.1-1.47c1.34 0 2.34.98 2.34 2.62 0 1.64-1 2.62-2.34 2.62-1.33 0-2.34-.98-2.34-2.62 0-1.64 1.01-2.62 2.34-2.62zM81.3 42.3h-.88c-.05-.43-.41-.68-.96-.68-.58 0-.92.28-.92.66v.01c0 .42.44.59.86.69l.48.12c.76.18 1.49.58 1.49 1.47s-.71 1.5-1.93 1.5c-1.18 0-1.94-.57-1.97-1.58h.9c.04.54.49.79 1.06.79.61 0 1.02-.28 1.02-.72 0-.4-.36-.57-.91-.71l-.58-.15c-.84-.21-1.36-.63-1.36-1.36v-.01c0-.9.8-1.5 1.87-1.5 1.08 0 1.82.61 1.83 1.47zm-35.19 3.32c-.35.31-.85.45-1.3.45-1.04 0-1.68-.62-1.68-1.43 0-.6.39-.96.95-1.35-.29-.36-.52-.73-.52-1.19 0-.72.53-1.26 1.34-1.26.8 0 1.29.54 1.29 1.16 0 .48-.25.85-.68 1.16l-.32.24.93 1.09c.14-.26.22-.56.22-.89h.77c0 .7-.19 1.19-.44 1.52l.74.88h-.97l-.33-.38zM14.72 46h-.92v-5.09h.92v2.15h2.36v-2.15h.93V46h-.93v-2.17h-2.36V46zm10.84-4.32h-1.57v-.77h4.06v.77h-1.57V46h-.92v-4.32zm6.6 4.32h-3.33v-5.09h3.31v.77h-2.39v1.38h2.22v.77h-2.22v1.39h2.41V46zm4.09 0h-3.17v-5.09H34v4.31h2.25V46zm14.37 0h-.92v-5.09h1.91c1.17 0 1.8.65 1.8 1.62 0 .69-.32 1.21-.92 1.45l1.1 2.02h-1.03l-1-1.87h-.94V46zm6.97 0h-3.33v-5.09h3.31v.77h-2.39v1.38h2.22v.77h-2.22v1.39h2.41V46zm11.81 0h-.92v-5.09h1.91c1.17 0 1.79.65 1.79 1.62 0 .69-.31 1.21-.91 1.45l1.1 2.02h-1.03l-1-1.87h-.94V46zm4.98-4.32h-1.57v-.77h4.06v.77H75.3V46h-.92v-4.32zm-30.01.43c0 .24.15.47.36.74l.29-.2c.27-.17.41-.35.41-.61 0-.22-.2-.46-.52-.46-.33 0-.54.26-.54.53zm-23.15 3.13c.83 0 1.41-.63 1.41-1.79 0-1.16-.58-1.79-1.41-1.79s-1.41.63-1.41 1.79c0 1.16.58 1.79 1.41 1.79zm44.04 0c.83 0 1.42-.63 1.42-1.79 0-1.16-.59-1.79-1.42-1.79-.82 0-1.41.63-1.41 1.79 0 1.16.59 1.79 1.41 1.79zm-14.64-3.56v1.69h.86c.68 0 .99-.29.99-.84 0-.54-.31-.85-1-.85h-.85zm18.78 0v1.69h.85c.68 0 .99-.29.99-.84 0-.54-.31-.85-.99-.85h-.85zm-24.56 3.65c.27 0 .54-.09.78-.27l-1.05-1.21-.08.06c-.34.25-.48.52-.48.69 0 .41.33.73.83.73z" fill="#000" fill-rule="evenodd"/></g></svg>