<svg width="115.016" height="12.955" fill="none" xmlns="http://www.w3.org/2000/svg"><path d="M46.5 0v9.69c0 1.9-.17 2.41-.88 2.57v.24c.99-.03 1.41-.05 1.9-.05.51 0 .93.02 1.95.05v-.24c-.74-.11-.93-.62-.93-2.57v-4.9l7.65 8.16h.24V3.36c0-1.9.21-2.45.88-2.57V.54h-.88l-1.02.05-.98-.05h-.92v.25c.74.05.92.6.92 2.57V8.2L46.74 0h-.24zm37.93 0v9.69c0 1.9-.17 2.41-.88 2.57v.24c.99-.03 1.36-.05 1.85-.05.52 0 .98.02 2 .05v-.24c-.74-.11-.92-.62-.92-2.57v-4.9l7.64 8.16h.24V3.36c0-1.9.21-2.45.88-2.57V.54h-.92l-.98.05-1.02-.05h-.93v.25c.75.05.93.6.93 2.57V8.2L84.67 0h-.24zM17.96.24c-3.78 0-6.33 2.5-6.33 6.23 0 3.73 2.64 6.33 6.38 6.33 3.66 0 6.19-2.58 6.19-6.33 0-3.69-2.53-6.23-6.24-6.23zm45.24 0c-2.14 0-3.65 1.38-3.65 3.32 0 .44.08.85.24 1.23.42.97 1.03 1.5 3.02 2.52 1.24.63 1.66 1.14 1.66 1.93 0 1.04-.88 1.78-2.1 1.78-1.16 0-2.16-.41-2.77-1.24h-.25l.25 2.43c1.06.39 1.93.59 2.87.59 2.56 0 4.24-1.43 4.24-3.66 0-.46-.11-.92-.25-1.33-.32-.95-.96-1.56-2.34-2.28-2.11-1.09-2.38-1.35-2.38-2.12 0-.83.75-1.44 1.75-1.44 1.04 0 1.89.44 2.44 1.19h.29V.54h-.29c-.14.09-.19.1-.3.1-.1 0-.31-.05-.48-.1-.87-.23-1.33-.3-1.95-.3zm11.98 0c-3.78 0-6.33 2.5-6.33 6.23 0 3.73 2.63 6.33 6.38 6.33 3.65 0 6.18-2.58 6.18-6.33 0-3.69-2.52-6.23-6.23-6.23zm35.84 0c-2.18-.18-4.37 1.98-4.09 4.3.35 2.93 2.28 3.34 3.41 3.86.5.23 1.23 1 1.41 1.98.22 1.22-.43 1.76-.49 1.83-.13.13-.01.31.1.24 1.71-.98 3.62-3.8 3.65-6.97.03-3.04-1.2-5-3.99-5.24zM0 .54v.25c.68.12.87.67.87 2.57v6.33c0 1.9-.17 2.41-.87 2.57v.24c1.02-.03 1.41-.05 1.99-.05.57 0 1 .02 2.05.05v-.24c-.71-.16-.88-.71-.88-2.57V2.27c.46-.07.63-.05 1.07-.05 1.61 0 2.53.69 2.53 1.93 0 1.16-.98 1.93-2.43 1.93-.2 0-.31-.02-.54-.05l2.97 5.24c.64 1.07 1.09 1.33 2.15 1.33.42 0 .99-.02 1.6-.1v-.19c-.4-.13-.61-.36-1.07-1.09L6.76 7.07c1.5-.52 2.29-1.6 2.29-3.12 0-1.27-.56-2.29-1.6-2.87C6.65.65 5.88.54 4.38.54H0zm26.39 0v.25c.69.12.87.68.87 2.57v6.33c0 1.88-.17 2.41-.87 2.57v.24h4.43c1.54 0 2.17-.13 2.97-.49 1.11-.5 1.75-1.52 1.75-2.87 0-1.7-.91-2.76-2.68-3.21 1.35-.4 2.05-1.24 2.05-2.47 0-1.03-.52-1.96-1.36-2.43-.76-.39-1.43-.49-3.07-.49h-4.09zm12.17 0v.25c.69.12.88.67.88 2.57v6.33c0 1.9-.17 2.41-.88 2.57v.24c.9-.03 1.26-.05 1.95-.05.74 0 1.12.02 2.09.05v-.24c-.7-.16-.87-.71-.87-2.57V3.36c0-1.87.18-2.45.87-2.57V.54h-.92c-.37.02-.74.05-1.07.05-.36 0-.75-.03-1.17-.05h-.88zm63.06 0c-.98 0-1.75.79-1.75 1.78s.77 1.78 1.75 1.78 1.75-.79 1.75-1.78-.77-1.78-1.75-1.78zm0 .44c.72 0 1.31.6 1.31 1.34 0 .73-.59 1.33-1.31 1.33-.72 0-1.31-.6-1.31-1.33 0-.74.59-1.34 1.31-1.34zm0 .55c-.43 0-.78.35-.78.79 0 .44.35.79.78.79.43 0 .78-.35.78-.79 0-.44-.35-.79-.78-.79zm-83.66.54c2.32 0 3.9 1.83 3.9 4.45 0 2.64-1.62 4.45-3.95 4.45-2.31 0-3.94-1.82-3.94-4.4 0-2.65 1.65-4.5 3.99-4.5zm57.22 0c2.31 0 3.89 1.83 3.89 4.45 0 2.64-1.61 4.45-3.94 4.45-2.31 0-3.94-1.82-3.94-4.4 0-2.65 1.64-4.5 3.99-4.5zm-44.61.05c1.33 0 2.05.53 2.05 1.53 0 1.1-.94 1.68-2.58 1.68-.2 0-.32.04-.63 0V2.22c.58-.07.83-.1 1.16-.1zm75.53 4.2c-.28.5-.51 2.3-.1 3.91.55 2.12 2.22 3.08 3.56 2.13.67-.49.9-1.75.14-2.62-.7-.81-1.43-.59-2.53-1.44-.61-.47-1.11-1.59-1.07-1.98zm-75.62.6c1.83 0 2.72.69 2.72 2.07 0 1.22-.84 1.83-2.43 1.83-1.13 0-1.36-.25-1.36-1.63V6.97c.51-.04.73-.05 1.07-.05z" fill="#231F20"/><path d="M46.5 9.69c0 1.9-.17 2.41-.88 2.57v.24c.99-.03 1.41-.05 1.9-.05.51 0 .93.02 1.95.05v-.24c-.74-.11-.93-.62-.93-2.57v-4.9l7.65 8.16h.24V3.36c0-1.9.21-2.45.88-2.57V.54h-.88l-1.02.05-.98-.05h-.92v.25c.74.05.92.6.92 2.57V8.2L46.74 0h-.24v9.69zm37.93 0c0 1.9-.17 2.41-.88 2.57v.24c.99-.03 1.36-.05 1.85-.05.52 0 .98.02 2 .05v-.24c-.74-.11-.92-.62-.92-2.57v-4.9l7.64 8.16h.24V3.36c0-1.9.21-2.45.88-2.57V.54h-.92l-.98.05-1.02-.05h-.93v.25c.75.05.93.6.93 2.57V8.2L84.67 0h-.24v9.69zm-72.8-3.22c0 3.73 2.64 6.33 6.38 6.33 3.66 0 6.19-2.58 6.19-6.33 0-3.69-2.53-6.23-6.24-6.23-3.78 0-6.33 2.5-6.33 6.23zm47.92-2.91c0 .44.08.85.24 1.23.42.97 1.03 1.5 3.02 2.52 1.24.63 1.66 1.14 1.66 1.93 0 1.04-.88 1.78-2.1 1.78-1.16 0-2.16-.41-2.77-1.24h-.25l.25 2.43c1.06.39 1.93.59 2.87.59 2.56 0 4.24-1.43 4.24-3.66 0-.46-.11-.92-.25-1.33-.32-.95-.96-1.56-2.34-2.28-2.11-1.09-2.38-1.35-2.38-2.12 0-.83.75-1.44 1.75-1.44 1.04 0 1.89.44 2.44 1.19h.29V.54h-.29c-.14.09-.19.1-.3.1-.1 0-.31-.05-.48-.1-.87-.23-1.33-.3-1.95-.3-2.14 0-3.65 1.38-3.65 3.32zm9.3 2.91c0 3.73 2.63 6.33 6.38 6.33 3.65 0 6.18-2.58 6.18-6.33 0-3.69-2.52-6.23-6.23-6.23-3.78 0-6.33 2.5-6.33 6.23zm38.08-1.93c.35 2.93 2.28 3.34 3.41 3.86.5.23 1.23 1 1.41 1.98.22 1.22-.43 1.76-.49 1.83-.13.13-.01.31.1.24 1.71-.98 3.62-3.8 3.65-6.97.03-3.04-1.2-5-3.99-5.24-2.18-.18-4.37 1.98-4.09 4.3zM0 .79c.68.12.87.67.87 2.57v6.33c0 1.9-.17 2.41-.87 2.57v.24c1.02-.03 1.41-.05 1.99-.05.57 0 1 .02 2.05.05v-.24c-.71-.16-.88-.71-.88-2.57V2.27c.46-.07.63-.05 1.07-.05 1.61 0 2.53.69 2.53 1.93 0 1.16-.98 1.93-2.43 1.93-.2 0-.31-.02-.54-.05l2.97 5.24c.64 1.07 1.09 1.33 2.15 1.33.42 0 .99-.02 1.6-.1v-.19c-.4-.13-.61-.36-1.07-1.09L6.76 7.07c1.5-.52 2.29-1.6 2.29-3.12 0-1.27-.56-2.29-1.6-2.87C6.65.65 5.88.54 4.38.54H0v.25zm26.39 0c.69.12.87.68.87 2.57v6.33c0 1.88-.17 2.41-.87 2.57v.24h4.43c1.54 0 2.17-.13 2.97-.49 1.11-.5 1.75-1.52 1.75-2.87 0-1.7-.91-2.76-2.68-3.21 1.35-.4 2.05-1.24 2.05-2.47 0-1.03-.52-1.96-1.36-2.43-.76-.39-1.43-.49-3.07-.49h-4.09v.25zm12.17 0c.69.12.88.67.88 2.57v6.33c0 1.9-.17 2.41-.88 2.57v.24c.9-.03 1.26-.05 1.95-.05.74 0 1.12.02 2.09.05v-.24c-.7-.16-.87-.71-.87-2.57V3.36c0-1.87.18-2.45.87-2.57V.54h-.92c-.37.02-.74.05-1.07.05-.36 0-.75-.03-1.17-.05h-.88v.25zm61.31 1.53c0 .99.77 1.78 1.75 1.78s1.75-.79 1.75-1.78-.77-1.78-1.75-1.78-1.75.79-1.75 1.78zm3.06 0c0 .73-.59 1.33-1.31 1.33-.72 0-1.31-.6-1.31-1.33 0-.74.59-1.34 1.31-1.34.72 0 1.31.6 1.31 1.34zm-2.09 0c0 .44.35.79.78.79.43 0 .78-.35.78-.79 0-.44-.35-.79-.78-.79-.43 0-.78.35-.78.79zm-78.98 4.2c0 2.64-1.62 4.45-3.95 4.45-2.31 0-3.94-1.82-3.94-4.4 0-2.65 1.65-4.5 3.99-4.5 2.32 0 3.9 1.83 3.9 4.45zm57.21 0c0 2.64-1.61 4.45-3.94 4.45-2.31 0-3.94-1.82-3.94-4.4 0-2.65 1.64-4.5 3.99-4.5 2.31 0 3.89 1.83 3.89 4.45zM32.62 3.65c0 1.1-.94 1.68-2.58 1.68-.2 0-.32.04-.63 0V2.22c.58-.07.83-.1 1.16-.1 1.33 0 2.05.53 2.05 1.53zM106 10.23c.55 2.12 2.22 3.08 3.56 2.13.67-.49.9-1.75.14-2.62-.7-.81-1.43-.59-2.53-1.44-.61-.47-1.11-1.59-1.07-1.98-.28.5-.51 2.3-.1 3.91zM33.2 8.99c0 1.22-.84 1.83-2.43 1.83-1.13 0-1.36-.25-1.36-1.63V6.97c.51-.04.73-.05 1.07-.05 1.83 0 2.72.69 2.72 2.07z"/></svg>