<svg width="98.555" height="54.811" viewBox="0 0 98.555 54.81" fill="none" xmlns="http://www.w3.org/2000/svg"><path d="M49.92.02c-.35.05-.82.17-1.27.32l-.26.09-.41-.13c-.93-.32-2.03-.37-2.87-.12l-.21.06 1.75.6 1.75.61 1.75-.61c.96-.33 1.73-.62 1.71-.63-.07-.07-.73-.19-1.15-.21-.25-.01-.61 0-.79.02z" fill="#000"/><path d="M48.65.34l-.26.09-.41-.13c-.93-.32-2.03-.37-2.87-.12l-.21.06 1.75.6 1.75.61 1.75-.61c.96-.33 1.73-.62 1.71-.63-.07-.07-.73-.19-1.15-.21-.25-.01-.61 0-.79.02-.35.05-.82.17-1.27.32z"/><path d="M42.36 1.4c-.28.04-.64.16-.86.27l-.16.08 2.48.87 2.48.85.52-.09c.73-.13 2.48-.14 3.23-.02l.52.09 2.42-.84c1.33-.46 2.45-.86 2.49-.87.04-.03-.01-.08-.18-.14-.45-.2-.81-.26-1.27-.23-.41.01-.56.06-2.99.9-1.4.49-2.59.89-2.63.9-.04 0-1.19-.38-2.56-.86-2.21-.77-2.92-.98-3.2-.95-.02 0-.16.02-.29.04z" fill="#000"/><path d="M41.5 1.67l-.16.08 2.48.87 2.48.85.52-.09c.73-.13 2.48-.14 3.23-.02l.52.09 2.42-.84c1.33-.46 2.45-.86 2.49-.87.04-.03-.01-.08-.18-.14-.45-.2-.81-.26-1.27-.23-.41.01-.56.06-2.99.9-1.4.49-2.59.89-2.63.9-.04 0-1.19-.38-2.56-.86-2.21-.77-2.92-.98-3.2-.95-.02 0-.16.02-.29.04-.28.04-.64.16-.86.27z"/><path d="M39.67 3.23c-.27.07-.62.25-.71.37-.05.06.26.17 1.87.73 1.88.66 1.92.67 2.04.58.06-.04.31-.18.54-.32l.42-.24-.28-.09c-.15-.05-.87-.3-1.59-.55-1.74-.6-1.79-.61-2.29-.48z" fill="#000"/><path d="M38.96 3.6c-.05.06.26.17 1.87.73 1.88.66 1.92.67 2.04.58.06-.04.31-.18.54-.32l.42-.24-.28-.09c-.15-.05-.87-.3-1.59-.55-1.74-.6-1.79-.61-2.29-.48-.27.07-.62.25-.71.37z"/><path d="M54.77 3.73c-.9.32-1.65.58-1.66.59-.01.01.08.08.21.15l.53.31.3.18 1.94-.67 1.94-.67-.11-.09c-.29-.23-.63-.35-1.07-.36l-.43-.01-1.65.57z" fill="#000"/><path d="M53.11 4.32c-.01.01.08.08.21.15l.53.31.3.18 1.94-.67 1.94-.67-.11-.09c-.29-.23-.63-.35-1.07-.36l-.43-.01-1.65.57c-.9.32-1.65.58-1.66.59z"/><path d="M58.23 5.29c-.12.04-.76.26-1.39.48-.64.22-1.16.41-1.16.43 0 .01.15.18.35.39l.34.36 1.69-.59c.93-.32 1.71-.6 1.72-.62.06-.05-.38-.39-.6-.46-.29-.1-.64-.1-.95.01z" fill="#000"/><path d="M56.84 5.77c-.64.22-1.16.41-1.16.43 0 .01.15.18.35.39l.34.36 1.69-.59c.93-.32 1.71-.6 1.72-.62.06-.05-.38-.39-.6-.46-.29-.1-.64-.1-.95.01-.12.04-.76.26-1.39.48z"/><path d="M37.63 5.36c-.24.12-.56.41-.47.44.02.01.8.28 1.72.61l1.67.58.31-.33c.17-.18.33-.36.34-.39.03-.04-.36-.2-1.36-.54-1.58-.55-1.76-.58-2.21-.37z" fill="#000"/><path d="M37.16 5.8c.02.01.8.28 1.72.61l1.67.58.31-.33c.17-.18.33-.36.34-.39.03-.04-.36-.2-1.36-.54-1.58-.55-1.76-.58-2.21-.37-.24.12-.56.41-.47.44z"/><path d="M58.95 7.8c-.58.2-1.18.4-1.34.46l-.29.09.21.41c.12.23.22.42.23.43.01.01.75-.23 1.64-.54 1.19-.41 1.63-.58 1.63-.63 0-.05-.1-.17-.21-.27-.2-.19-.48-.31-.73-.31-.05 0-.56.16-1.14.36z" fill="#000"/><path d="M57.61 8.26l-.29.09.21.41c.12.23.22.42.23.43.01.01.75-.23 1.64-.54 1.19-.41 1.63-.58 1.63-.63 0-.05-.1-.17-.21-.27-.2-.19-.48-.31-.73-.31-.05 0-.56.16-1.14.36-.58.2-1.18.4-1.34.46z"/><path d="M36.43 7.56c-.2.07-.54.39-.54.51 0 .05 3.23 1.21 3.27 1.17.01-.01.11-.21.23-.43l.21-.41-1.27-.44c-.7-.24-1.37-.45-1.48-.46-.12-.01-.31.02-.42.06z" fill="#000"/><path d="M35.89 8.07c0 .05 3.23 1.21 3.27 1.17.01-.01.11-.21.23-.43l.21-.41-1.27-.44c-.7-.24-1.37-.45-1.48-.46-.12-.01-.31.02-.42.06-.2.07-.54.39-.54.51z"/><path d="M47.22 7.87c-.2.02-.58.09-.85.16-.92.23-1.55.56-2.04 1.05-.57.56-.82 1.18-.81 2.06.01 1.63.85 2.56 2.65 2.92.59.12 1.1.17 2.55.25 2.07.1 2.72.22 3.25.58.49.33.67.72.64 1.36-.03.5-.19.83-.57 1.19-1.03.98-3.43 1.23-5.35.57-.27-.09-.58-.21-.69-.27-.7-.34-1.44-.9-1.83-1.37-.15-.18-.3-.32-.34-.32-.07-.01-.06.14.02 1.28l.03.36.72.21c.89.24 1.93.47 2.77.62.85.14 2.28.15 2.91.03 1.23-.27 2.12-.75 2.75-1.51.33-.4.57-.86.69-1.33.09-.34.09-.43.05-.8-.14-1.12-.6-1.8-1.51-2.25-.78-.38-1.63-.54-3.3-.61-2.77-.13-3.28-.2-3.83-.47-.54-.27-.76-.66-.72-1.28.07-1.07.78-1.73 2.23-2.06.6-.14 1.98-.18 2.58-.07 1.3.22 2.6.86 3.59 1.78l.33.3V8.97l-.44-.17c-1.97-.75-4.03-1.1-5.48-.93z" fill="#000"/><path d="M46.37 8.03c-.92.23-1.55.56-2.04 1.05-.57.56-.82 1.18-.81 2.06.01 1.63.85 2.56 2.65 2.92.59.12 1.1.17 2.55.25 2.07.1 2.72.22 3.25.58.49.33.67.72.64 1.36-.03.5-.19.83-.57 1.19-1.03.98-3.43 1.23-5.35.57-.27-.09-.58-.21-.69-.27-.7-.34-1.44-.9-1.83-1.37-.15-.18-.3-.32-.34-.32-.07-.01-.06.14.02 1.28l.03.36.72.21c.89.24 1.93.47 2.77.62.85.14 2.28.15 2.91.03 1.23-.27 2.12-.75 2.75-1.51.33-.4.57-.86.69-1.33.09-.34.09-.43.05-.8-.14-1.12-.6-1.8-1.51-2.25-.78-.38-1.63-.54-3.3-.61-2.77-.13-3.28-.2-3.83-.47-.54-.27-.76-.66-.72-1.28.07-1.07.78-1.73 2.23-2.06.6-.14 1.98-.18 2.58-.07 1.3.22 2.6.86 3.59 1.78l.33.3V8.97l-.44-.17c-1.97-.75-4.03-1.1-5.48-.93-.2.02-.58.09-.85.16z"/><path d="M59.84 10.25c-.62.2-1.22.41-1.33.45-.13.05-.2.1-.19.13.01.04.06.25.11.47l.08.4 1.11-.38c.6-.21 1.35-.46 1.66-.57.31-.1.56-.21.56-.24 0-.13-.24-.43-.43-.53-.3-.15-.4-.14-1.57.27z" fill="#000"/><path d="M58.51 10.7c-.13.05-.2.1-.19.13.01.04.06.25.11.47l.08.4 1.11-.38c.6-.21 1.35-.46 1.66-.57.31-.1.56-.21.56-.24 0-.13-.24-.43-.43-.53-.3-.15-.4-.14-1.57.27-.62.2-1.22.41-1.33.45z"/><path d="M35.63 10c-.15.05-.28.14-.37.24-.27.35-.37.3 1.48.93.91.32 1.66.58 1.67.57.01-.01.06-.22.11-.46.07-.33.07-.45.04-.47-.09-.06-2.41-.85-2.56-.88a.979.979 0 00-.37.07z" fill="#000"/><path d="M35.26 10.24c-.27.35-.37.3 1.48.93.91.32 1.66.58 1.67.57.01-.01.06-.22.11-.46.07-.33.07-.45.04-.47-.09-.06-2.41-.85-2.56-.88a.979.979 0 00-.37.07c-.15.05-.28.14-.37.24z"/><path d="M60.45 12.77c-.84.3-1.52.55-1.52.56 0 .04 3.11 1.1 3.14 1.08.06-.07-.12-.3-.53-.68l-.42-.4.41-.39c.46-.42.65-.71.49-.7-.03 0-.74.24-1.57.53z" fill="#000"/><path d="M58.93 13.33c0 .04 3.11 1.1 3.14 1.08.06-.07-.12-.3-.53-.68l-.42-.4.41-.39c.46-.42.65-.71.49-.7-.03 0-.74.24-1.57.53-.84.3-1.52.55-1.52.56z"/><path d="M34.84 12.31c0 .1.2.38.49.68l.33.34-.33.34c-.32.33-.53.64-.47.69.03.04 2.99-.99 2.99-1.03 0-.03-2.89-1.04-2.97-1.04-.03 0-.04.01-.04.02z" fill="#000"/><path d="M35.33 12.99l.33.34-.33.34c-.32.33-.53.64-.47.69.03.04 2.99-.99 2.99-1.03 0-.03-2.89-1.04-2.97-1.04-.03 0-.04.01-.04.02 0 .1.2.38.49.68z"/><path d="M36.75 15.48c-.91.32-1.66.58-1.67.59-.01.01.01.08.04.16.13.31.61.57.91.5.19-.05 2.51-.84 2.55-.88.02-.02-.11-.74-.17-.91-.01-.02-.75.22-1.66.54z" fill="#000"/><path d="M35.08 16.07c-.01.01.01.08.04.16.13.31.61.57.91.5.19-.05 2.51-.84 2.55-.88.02-.02-.11-.74-.17-.91-.01-.02-.75.22-1.66.54-.91.32-1.66.58-1.67.59z"/><path d="M58.5 15.06c0 .05-.04.27-.09.47l-.09.36.15.06c1.79.63 2.5.86 2.66.83.27-.05.47-.17.6-.35.19-.28.17-.31-.45-.52-.31-.11-1.06-.36-1.67-.58-1.07-.36-1.11-.37-1.11-.27z" fill="#000"/><path d="M58.41 15.53l-.09.36.15.06c1.79.63 2.5.86 2.66.83.27-.05.47-.17.6-.35.19-.28.17-.31-.45-.52-.31-.11-1.06-.36-1.67-.58-1.07-.36-1.11-.37-1.11-.27 0 .05-.04.27-.09.47z"/><path d="M37.51 17.97c-.85.29-1.58.55-1.61.57-.05.02-.05.05.01.16.15.29.6.51.95.46.15-.01 2.02-.63 2.62-.86.07-.03.06-.09-.12-.45-.11-.24-.22-.43-.24-.43-.03 0-.75.25-1.61.55z" fill="#000"/><path d="M35.9 18.54c-.05.02-.05.05.01.16.15.29.6.51.95.46.15-.01 2.02-.63 2.62-.86.07-.03.06-.09-.12-.45-.11-.24-.22-.43-.24-.43-.03 0-.75.25-1.61.55-.85.29-1.58.55-1.61.57z"/><path d="M57.56 17.9c-.11.23-.21.42-.2.42.01 0 .61.21 1.33.46 1.43.49 1.56.52 1.94.32.21-.11.49-.43.42-.49-.03-.03-3.18-1.14-3.25-1.14-.01 0-.12.19-.24.43z" fill="#000"/><path d="M57.36 18.32c.01 0 .61.21 1.33.46 1.43.49 1.56.52 1.94.32.21-.11.49-.43.42-.49-.03-.03-3.18-1.14-3.25-1.14-.01 0-.12.19-.24.43-.11.23-.21.42-.2.42z"/><path d="M38.83 20.27c-.87.3-1.62.57-1.67.59-.09.04-.08.05.13.24.25.23.55.34.92.33.16-.01.66-.16 1.6-.48.75-.26 1.36-.49 1.35-.51-.02-.1-.62-.74-.68-.73-.04 0-.78.25-1.65.56z" fill="#000"/><path d="M37.16 20.86c-.09.04-.08.05.13.24.25.23.55.34.92.33.16-.01.66-.16 1.6-.48.75-.26 1.36-.49 1.35-.51-.02-.1-.62-.74-.68-.73-.04 0-.78.25-1.65.56-.87.3-1.62.57-1.67.59z"/><path d="M56.03 20.12l-.34.37 1.41.49c1.61.56 1.78.59 2.24.36.28-.13.55-.41.44-.44-.04-.01-.8-.27-1.69-.58-.89-.32-1.64-.57-1.67-.57-.03 0-.2.17-.39.37z" fill="#000"/><path d="M55.69 20.49l1.41.49c1.61.56 1.78.59 2.24.36.28-.13.55-.41.44-.44-.04-.01-.8-.27-1.69-.58-.89-.32-1.64-.57-1.67-.57-.03 0-.2.17-.39.37l-.34.37z"/><path d="M40.79 22.34c-1 .35-1.84.65-1.87.66-.1.05.3.32.62.42.54.16.74.12 2.52-.5.85-.29 1.58-.55 1.62-.56.06-.03-.95-.67-1.04-.66-.02 0-.85.29-1.85.64z" fill="#000"/><path d="M38.92 23c-.1.05.3.32.62.42.54.16.74.12 2.52-.5.85-.29 1.58-.55 1.62-.56.06-.03-.95-.67-1.04-.66-.02 0-.85.29-1.85.64-1 .35-1.84.65-1.87.66z"/><path d="M54.08 21.81c-.06.04-.29.18-.53.31-.25.14-.39.25-.35.27.03.01.78.27 1.66.58 1.53.53 1.62.55 1.99.55.42 0 .75-.1 1.04-.32l.18-.14-1.9-.66c-1.04-.36-1.92-.65-1.95-.65-.02 0-.09.03-.14.06z" fill="#000"/><path d="M53.55 22.12c-.25.14-.39.25-.35.27.03.01.78.27 1.66.58 1.53.53 1.62.55 1.99.55.42 0 .75-.1 1.04-.32l.18-.14-1.9-.66c-1.04-.36-1.92-.65-1.95-.65-.02 0-.09.03-.14.06-.06.04-.29.18-.53.31z"/><path d="M43.77 24.07c-1.34.46-2.42.86-2.42.89.01.02.18.11.38.18.41.16 1.04.22 1.41.13.12-.03 1.36-.45 2.73-.92l2.51-.87-.55-.03c-.46-.02-1.22-.12-1.54-.2-.06-.01-1.17.35-2.52.82z" fill="#000"/><path d="M41.35 24.96c.01.02.18.11.38.18.41.16 1.04.22 1.41.13.12-.03 1.36-.45 2.73-.92l2.51-.87-.55-.03c-.46-.02-1.22-.12-1.54-.2-.06-.01-1.17.35-2.52.82-1.34.46-2.42.86-2.42.89z"/><path d="M50.11 23.34c-.18.04-.63.08-1 .1-.36.02-.63.05-.59.06.25.14 5.11 1.77 5.38 1.82.4.05.85 0 1.27-.15.53-.2.65-.14-2.02-1.06-1.33-.46-2.49-.84-2.57-.84-.07.01-.28.04-.47.07z" fill="#000"/><path d="M49.11 23.44c-.36.02-.63.05-.59.06.25.14 5.11 1.77 5.38 1.82.4.05.85 0 1.27-.15.53-.2.65-.14-2.02-1.06-1.33-.46-2.49-.84-2.57-.84-.07.01-.28.04-.47.07-.18.04-.63.08-1 .1z"/><path d="M46.61 25.83c-.96.33-1.73.61-1.73.63 0 .07.54.15 1.19.17.78.03 1.23-.04 1.91-.26.38-.13.42-.14.6-.07.87.3 1.8.43 2.57.35.27-.03.59-.08.7-.12l.19-.05-1.83-.64c-1-.34-1.83-.62-1.85-.62-.01.01-.8.28-1.75.61z" fill="#000"/><path d="M44.88 26.46c0 .07.54.15 1.19.17.78.03 1.23-.04 1.91-.26.38-.13.42-.14.6-.07.87.3 1.8.43 2.57.35.27-.03.59-.08.7-.12l.19-.05-1.83-.64c-1-.34-1.83-.62-1.85-.62-.01.01-.8.28-1.75.61-.96.33-1.73.61-1.73.63z"/><path d="M52.43 39.18c-1.51 3.15-2.76 5.75-2.77 5.77-.01.03.23.04.62.03l.63-.01.8-1.67.79-1.68 2.67.01 2.67.01.79 1.68.79 1.67h1.32l-.09-.18c-.05-.09-1.3-2.69-2.77-5.76-1.48-3.07-2.7-5.59-2.7-5.6 0 0-1.24 2.58-2.75 5.73zm3.82-.91c.58 1.24 1.05 2.27 1.05 2.3 0 .03-.62.05-2.15.05-1.71 0-2.15-.02-2.14-.06.05-.1 2.01-4.29 2.08-4.42.04-.08.08-.13.09-.12 0 0 .48 1.02 1.07 2.25z" fill="#000"/><path d="M49.66 44.95c-.01.03.23.04.62.03l.63-.01.8-1.67.79-1.68 2.67.01 2.67.01.79 1.68.79 1.67h1.32l-.09-.18c-.05-.09-1.3-2.69-2.77-5.76-1.48-3.07-2.7-5.59-2.7-5.6 0 0-1.24 2.58-2.75 5.73-1.51 3.15-2.76 5.75-2.77 5.77zm7.64-4.38c0 .03-.62.05-2.15.05-1.71 0-2.15-.02-2.14-.06.05-.1 2.01-4.29 2.08-4.42.04-.08.08-.13.09-.12 0 0 .48 1.02 1.07 2.25.58 1.24 1.05 2.27 1.05 2.3z"/><path d="M3.65 33.54c-.84.11-1.72.53-2.18 1.04-.8.88-.92 2.23-.27 3.19.41.6 1.08 1.03 2.71 1.74.63.26 1.25.54 1.39.61.75.38 1.2.77 1.42 1.25.12.24.13.32.13.82 0 .51-.01.56-.13.83-.27.53-.77.91-1.47 1.1-.23.06-.48.08-1 .08-.59 0-.75-.02-1.08-.12a3.38 3.38 0 01-2.02-1.65l-.13-.23-.51.21-.51.22.19.37c.35.66.94 1.27 1.61 1.64 1.36.76 3.49.78 4.84.03.42-.23.94-.76 1.14-1.15.22-.46.3-.81.3-1.38 0-.88-.24-1.47-.79-2.02-.57-.56-1.19-.91-2.74-1.54-1.29-.52-1.77-.79-2.14-1.19-.29-.33-.41-.63-.41-1.08 0-.33.02-.42.15-.67.45-.91 1.72-1.36 2.91-1.03.54.15.97.46 1.32.92l.17.24.46-.24c.26-.14.47-.26.48-.27.05-.03-.12-.28-.42-.59-.34-.37-.73-.65-1.13-.83-.6-.27-1.58-.39-2.29-.3z" fill="#000"/><path d="M1.47 34.58c-.8.88-.92 2.23-.27 3.19.41.6 1.08 1.03 2.71 1.74.63.26 1.25.54 1.39.61.75.38 1.2.77 1.42 1.25.12.24.13.32.13.82 0 .51-.01.56-.13.83-.27.53-.77.91-1.47 1.1-.23.06-.48.08-1 .08-.59 0-.75-.02-1.08-.12a3.38 3.38 0 01-2.02-1.65l-.13-.23-.51.21-.51.22.19.37c.35.66.94 1.27 1.61 1.64 1.36.76 3.49.78 4.84.03.42-.23.94-.76 1.14-1.15.22-.46.3-.81.3-1.38 0-.88-.24-1.47-.79-2.02-.57-.56-1.19-.91-2.74-1.54-1.29-.52-1.77-.79-2.14-1.19-.29-.33-.41-.63-.41-1.08 0-.33.02-.42.15-.67.45-.91 1.72-1.36 2.91-1.03.54.15.97.46 1.32.92l.17.24.46-.24c.26-.14.47-.26.48-.27.05-.03-.12-.28-.42-.59-.34-.37-.73-.65-1.13-.83-.6-.27-1.58-.39-2.29-.3-.84.11-1.72.53-2.18 1.04z"/><path d="M78.07 33.54c-2.43.27-4.35 1.77-5.04 3.93-.21.64-.29 1.17-.29 1.92 0 1.64.58 3.05 1.7 4.14.46.44.83.71 1.36.98.57.29.99.45 1.63.59.72.15 1.95.15 2.67 0 .63-.14 1.06-.3 1.63-.59.58-.3.97-.59 1.48-1.12 1.05-1.09 1.57-2.42 1.57-4.03 0-.35-.03-.81-.07-1.04-.42-2.43-2.3-4.28-4.77-4.71-.53-.09-1.4-.13-1.87-.07zm1.24.99c1.21.14 2.25.64 3.03 1.45.41.43.58.68.84 1.23.91 1.87.53 4.18-.91 5.62-1.46 1.44-3.83 1.82-5.74.9-1.02-.49-1.74-1.22-2.24-2.27-.34-.72-.43-1.14-.42-2.12 0-.7.02-.9.1-1.2.24-.87.59-1.5 1.16-2.1.49-.51.85-.77 1.45-1.05a5.03 5.03 0 012.73-.46z" fill="#000"/><path d="M73.03 37.47c-.21.64-.29 1.17-.29 1.92 0 1.64.58 3.05 1.7 4.14.46.44.83.71 1.36.98.57.29.99.45 1.63.59.72.15 1.95.15 2.67 0 .63-.14 1.06-.3 1.63-.59.58-.3.97-.59 1.48-1.12 1.05-1.09 1.57-2.42 1.57-4.03 0-.35-.03-.81-.07-1.04-.42-2.43-2.3-4.28-4.77-4.71-.53-.09-1.4-.13-1.87-.07-2.43.27-4.35 1.77-5.04 3.93zm9.31-1.49c.41.43.58.68.84 1.23.91 1.87.53 4.18-.91 5.62-1.46 1.44-3.83 1.82-5.74.9-1.02-.49-1.74-1.22-2.24-2.27-.34-.72-.43-1.14-.42-2.12 0-.7.02-.9.1-1.2.24-.87.59-1.5 1.16-2.1.49-.51.85-.77 1.45-1.05a5.03 5.03 0 012.73-.46c1.21.14 2.25.64 3.03 1.45z"/><path d="M88.46 39.24v5.75h1.25l.01-4.39.01-4.38 3.42 3.51c1.88 1.93 3.86 3.96 4.41 4.51l.98 1.01v-5.76l.01-5.76h-1.2v4.4l-.02 4.41-4.39-4.52c-2.42-2.48-4.41-4.52-4.44-4.52-.02-.01-.04 2.57-.04 5.74z" fill="#000"/><path d="M88.46 44.99h1.25l.01-4.39.01-4.38 3.42 3.51c1.88 1.93 3.86 3.96 4.41 4.51l.98 1.01v-5.76l.01-5.76h-1.2v4.4l-.02 4.41-4.39-4.52c-2.42-2.48-4.41-4.52-4.44-4.52-.02-.01-.04 2.57-.04 5.74v5.75z"/><path d="M12.37 39.36v5.63h1.2v-4.51h7.22v4.51h1.19V33.73h-1.19v5.75l-3.6-.01-3.6-.02-.01-2.86-.01-2.86h-1.2v5.63z" fill="#000"/><path d="M12.37 44.99h1.2v-4.51h7.22v4.51h1.19V33.73h-1.19v5.75l-3.6-.01-3.6-.02-.01-2.86-.01-2.86h-1.2v11.26z"/><path d="M27.05 39.36v5.63h7.02V44h-5.83v-3.52h5.07v-1h-5.07v-4.76h5.74v-.99h-6.93v5.63z" fill="#000"/><path d="M27.05 44.99h7.02V44h-5.83v-3.52h5.07v-1h-5.07v-4.76h5.74v-.99h-6.93v11.26z"/><path d="M38.47 39.36v5.63h1.24V34.72l1.79.01c1.69.02 1.79.03 2.06.13.66.24 1.23.78 1.46 1.38.13.33.18.93.1 1.3-.18.85-.9 1.57-1.8 1.82-.2.06-.57.09-1.29.1l-1.01.03-.15.46c-.09.25-.15.47-.15.49 0 .02.45.04 1.01.05l1.01.01 1.41 2.25 1.4 2.24h1.39l-.17-.25c-.08-.13-.73-1.15-1.44-2.27-.7-1.11-1.31-2.06-1.35-2.12-.06-.09-.05-.1.22-.2.72-.26 1.47-.94 1.81-1.64.28-.57.37-.96.34-1.61-.03-.56-.16-1.03-.39-1.41-.44-.74-1.15-1.29-1.99-1.57-.58-.18-.82-.19-3.19-.19h-2.31v5.63z" fill="#000"/><path d="M38.47 44.99h1.24V34.72l1.79.01c1.69.02 1.79.03 2.06.13.66.24 1.23.78 1.46 1.38.13.33.18.93.1 1.3-.18.85-.9 1.57-1.8 1.82-.2.06-.57.09-1.29.1l-1.01.03-.15.46c-.09.25-.15.47-.15.49 0 .02.45.04 1.01.05l1.01.01 1.41 2.25 1.4 2.24h1.39l-.17-.25c-.08-.13-.73-1.15-1.44-2.27-.7-1.11-1.31-2.06-1.35-2.12-.06-.09-.05-.1.22-.2.72-.26 1.47-.94 1.81-1.64.28-.57.37-.96.34-1.61-.03-.56-.16-1.03-.39-1.41-.44-.74-1.15-1.29-1.99-1.57-.58-.18-.82-.19-3.19-.19h-2.31v11.26z"/><path d="M62.13 34.23v.49h3.44v10.27h1.24V34.72h3.44v-.99h-8.12v.5z" fill="#000"/><path d="M62.13 34.72h3.44v10.27h1.24V34.72h3.44v-.99h-8.12v.99z"/><path d="M40.98 51.12c-.48.13-.76.44-.76.89s.18.64.97 1.04c.61.32.77.48.77.78 0 .26-.15.46-.4.55a.945.945 0 01-1.14-.4l-.1-.18-.16.07c-.09.05-.16.1-.16.13 0 .09.27.43.44.56.46.35 1.24.32 1.63-.05.4-.36.36-1.1-.06-1.45-.08-.06-.37-.23-.64-.36-.54-.25-.75-.44-.75-.68 0-.2.12-.39.31-.48.29-.14.56-.09.82.16.15.14.15.14.3.07.08-.04.15-.09.15-.1 0-.02-.06-.1-.13-.19-.21-.28-.74-.45-1.09-.36z" fill="#000"/><path d="M40.22 52.01c0 .45.18.64.97 1.04.61.32.77.48.77.78 0 .26-.15.46-.4.55a.945.945 0 01-1.14-.4l-.1-.18-.16.07c-.09.05-.16.1-.16.13 0 .09.27.43.44.56.46.35 1.24.32 1.63-.05.4-.36.36-1.1-.06-1.45-.08-.06-.37-.23-.64-.36-.54-.25-.75-.44-.75-.68 0-.2.12-.39.31-.48.29-.14.56-.09.82.16.15.14.15.14.3.07.08-.04.15-.09.15-.1 0-.02-.06-.1-.13-.19-.21-.28-.74-.45-1.09-.36-.48.13-.76.44-.76.89z"/><path d="M53.22 51.16c-.32.09-.66.44-.76.78-.1.31-.1.44-.01.72.14.49.59.82 1.11.82.18 0 .28.02.26.05-.01.02-.2.31-.42.63l-.4.58h.48l.53-.79c.67-1 .81-1.28.81-1.66 0-.54-.33-.99-.83-1.14-.3-.09-.47-.09-.77.01zm.64.35c.18.05.41.24.51.43.1.21.08.62-.05.81-.17.25-.39.37-.68.37-.31 0-.48-.07-.68-.3-.35-.4-.21-1.01.28-1.26.23-.11.37-.13.62-.05z" fill="#000"/><path d="M52.46 51.94c-.1.31-.1.44-.01.72.14.49.59.82 1.11.82.18 0 .28.02.26.05-.01.02-.2.31-.42.63l-.4.58h.48l.53-.79c.67-1 .81-1.28.81-1.66 0-.54-.33-.99-.83-1.14-.3-.09-.47-.09-.77.01-.32.09-.66.44-.76.78zm1.91 0c.1.21.08.62-.05.81-.17.25-.39.37-.68.37-.31 0-.48-.07-.68-.3-.35-.4-.21-1.01.28-1.26.23-.11.37-.13.62-.05.18.05.41.24.51.43z"/><path d="M36.61 52.96v1.78h2.1l-.01-.18-.01-.18-.83-.01-.82-.01v-1.33h1.53l-.01-.18-.02-.18-.75-.01-.75-.02v-1.09h1.62v-.38h-2.05v1.79z" fill="#000"/><path d="M36.61 54.74h2.1l-.01-.18-.01-.18-.83-.01-.82-.01v-1.33h1.53l-.01-.18-.02-.18-.75-.01-.75-.02v-1.09h1.62v-.38h-2.05V54.74z"/><path d="M43.45 51.35l.02.18.49.01.49.02v3.18h.38V51.55h1v-.38H43.44l.01.18z" fill="#000"/><path d="M43.47 51.53l.49.01.49.02v3.18h.38V51.55h1v-.38H43.44l.01.18.02.18z"/><path d="M49.94 51.36v.19h.48V54.74h.38V51.17h-.86v.19z" fill="#000"/><path d="M49.94 51.55h.48V54.74h.38V51.17h-.86v.38z"/><path d="M56.12 51.35l.01.18.71.01.7.02-.54.62c-.31.35-.54.63-.54.64 0 0 .16-.02.34-.05.72-.1 1.22.25 1.22.85 0 .4-.25.69-.7.79-.38.09-.74-.01-1-.27-.2-.19-.22-.2-.36-.16-.17.06-.17.13-.03.31.24.32.63.51 1.08.52.44.01.73-.09 1.01-.34.39-.35.49-.89.27-1.37-.17-.36-.55-.64-.87-.64-.07 0-.12-.02-.12-.03 0-.03.54-.66.98-1.15l.09-.11H56.1l.02.18z" fill="#000"/><path d="M56.13 51.53l.71.01.7.02-.54.62c-.31.35-.54.63-.54.64 0 0 .16-.02.34-.05.72-.1 1.22.25 1.22.85 0 .4-.25.69-.7.79-.38.09-.74-.01-1-.27-.2-.19-.22-.2-.36-.16-.17.06-.17.13-.03.31.24.32.63.51 1.08.52.44.01.73-.09 1.01-.34.39-.35.49-.89.27-1.37-.17-.36-.55-.64-.87-.64-.07 0-.12-.02-.12-.03 0-.03.54-.66.98-1.15l.09-.11H56.1l.02.18.01.18z"/><path d="M59.55 51.36v.19h.95c.53 0 .96.02.96.03 0 .02-.33.72-.74 1.56-.41.83-.74 1.54-.74 1.56 0 .02.09.04.2.04h.21l.85-1.75c.46-.96.84-1.76.84-1.78 0-.02-.57-.04-1.27-.04h-1.26v.19z" fill="#000"/><path d="M59.55 51.55h.95c.53 0 .96.02.96.03 0 .02-.33.72-.74 1.56-.41.83-.74 1.54-.74 1.56 0 .02.09.04.2.04h.21l.85-1.75c.46-.96.84-1.76.84-1.78 0-.02-.57-.04-1.27-.04h-1.26v.38z"/></svg>