<svg width="112.971" height="31.563" fill="none" xmlns="http://www.w3.org/2000/svg"><path d="M55.84.71l-.67.85.32 1.77c.17.98.3 1.89.27 2.03-.04.15-.38-.65-.79-1.77l-.74-2.03h-.86c-.47 0-.87.05-.87.11 0 .24 3.87 6.05 4 6 .06-.01 1-1.38 2.08-3.03l1.98-3-.84-.05c-.48-.03-.91 0-.97.08-.07.07-.36.8-.66 1.64-.29.81-.64 1.68-.77 1.91l-.23.42.08-.42c.03-.23.2-1.14.35-2.03l.28-1.61-.55-.72c-.29-.4-.59-.78-.64-.85-.06-.09-.41.23-.77.7z" fill="#000"/><path d="M55.17 1.56l.32 1.77c.17.98.3 1.89.27 2.03-.04.15-.38-.65-.79-1.77l-.74-2.03h-.86c-.47 0-.87.05-.87.11 0 .24 3.87 6.05 4 6 .06-.01 1-1.38 2.08-3.03l1.98-3-.84-.05c-.48-.03-.91 0-.97.08-.07.07-.36.8-.66 1.64-.29.81-.64 1.68-.77 1.91l-.23.42.08-.42c.03-.23.2-1.14.35-2.03l.28-1.61-.55-.72c-.29-.4-.59-.78-.64-.85-.06-.09-.41.23-.77.7l-.67.85z"/><path d="M49.76 4.67c2.51 3.97 4.39 6.91 4.78 7.5l.48.72-1.86 2.87c-1.02 1.58-2.27 3.53-2.76 4.33l-.9 1.47-24.84.02c-13.65 0-24.75.03-24.66.06.09.05 2.05.39 4.35.75l4.19.69 21.12.09 21.12.09 2.78-4.27c1.52-2.35 2.82-4.32 2.89-4.35.05-.03 1.36 1.89 2.89 4.27l2.78 4.33 21.12-.08 21.11-.08 4.28-.69c2.35-.38 4.3-.73 4.34-.76.03-.04-11.1-.07-24.75-.07-21.96 0-24.85-.03-24.94-.25-.04-.14-1.21-2-2.58-4.14-1.38-2.11-2.53-4-2.58-4.16-.05-.17.51-1.18 1.4-2.59 1.46-2.26 3.99-6.26 4.22-6.66.09-.15-.14-.2-1-.2h-1.13l-1.48 2.17c-.81 1.18-1.94 2.86-2.53 3.73-.72 1.07-1.12 1.53-1.23 1.42-.09-.09-1.25-1.75-2.57-3.71l-2.38-3.53-1.18-.05-1.19-.05.71 1.13z" fill="#000"/><path d="M54.54 12.17l.48.72-1.86 2.87c-1.02 1.58-2.27 3.53-2.76 4.33l-.9 1.47-24.84.02c-13.65 0-24.75.03-24.66.06.09.05 2.05.39 4.35.75l4.19.69 21.12.09 21.12.09 2.78-4.27c1.52-2.35 2.82-4.32 2.89-4.35.05-.03 1.36 1.89 2.89 4.27l2.78 4.33 21.12-.08 21.11-.08 4.28-.69c2.35-.38 4.3-.73 4.34-.76.03-.04-11.1-.07-24.75-.07-21.96 0-24.85-.03-24.94-.25-.04-.14-1.21-2-2.58-4.14-1.38-2.11-2.53-4-2.58-4.16-.05-.17.51-1.18 1.4-2.59 1.46-2.26 3.99-6.26 4.22-6.66.09-.15-.14-.2-1-.2h-1.13l-1.48 2.17c-.81 1.18-1.94 2.86-2.53 3.73-.72 1.07-1.12 1.53-1.23 1.42-.09-.09-1.25-1.75-2.57-3.71l-2.38-3.53-1.18-.05-1.19-.05.71 1.13c2.51 3.97 4.39 6.91 4.78 7.5z"/><path d="M72.16 7.63c-1.2.51-2.27 1.55-2.86 2.76-.4.82-.44 1.1-.44 2.67 0 1.57.04 1.85.44 2.68.54 1.12 1.56 2.17 2.58 2.69.64.31 1.02.38 2.4.38 1.46 0 1.74-.05 2.46-.45 1.02-.53 2.12-1.72 2.58-2.77.48-1.05.51-3.55.09-4.81-.38-1.1-1.55-2.44-2.65-3-1.25-.65-3.27-.72-4.6-.15zm3.32.36c1.35.57 2.09 1.72 2.37 3.74.23 1.58 0 3.6-.51 4.61-1.35 2.67-4.75 2.7-6.1.05-.76-1.5-.84-4.4-.18-6.18.74-2 2.66-2.97 4.42-2.22z" fill="#000"/><path d="M69.3 10.39c-.4.82-.44 1.1-.44 2.67 0 1.57.04 1.85.44 2.68.54 1.12 1.56 2.17 2.58 2.69.64.31 1.02.38 2.4.38 1.46 0 1.74-.05 2.46-.45 1.02-.53 2.12-1.72 2.58-2.77.48-1.05.51-3.55.09-4.81-.38-1.1-1.55-2.44-2.65-3-1.25-.65-3.27-.72-4.6-.15-1.2.51-2.27 1.55-2.86 2.76zm8.55 1.34c.23 1.58 0 3.6-.51 4.61-1.35 2.67-4.75 2.7-6.1.05-.76-1.5-.84-4.4-.18-6.18.74-2 2.66-2.97 4.42-2.22 1.35.57 2.09 1.72 2.37 3.74z"/><path d="M90.88 7.56c-.89.45-1.45 1.3-1.51 2.38-.1 1.37.34 1.95 2.67 3.45 2.09 1.35 2.7 2.02 2.7 2.95 0 1.67-1.68 2.52-3.37 1.73-.75-.33-1.66-1.31-1.99-2.13-.26-.62-.61-.75-.47-.18.03.21.14.98.24 1.7.18 1.45.28 1.66.51 1.21.2-.35.64-.35 1.69-.03 2.24.68 4.33-.18 4.87-2.03.46-1.54-.15-2.57-2.3-4-2.66-1.77-2.93-2-3.12-2.69-.51-1.68 1.24-2.66 3.07-1.71.72.36 1.43 1.26 1.61 2.05.07.26.2.46.28.46.16 0 .06-1.95-.13-3.05-.1-.46-.1-.46-.43-.18-.3.28-.36.28-1.41.02-1.43-.37-2.11-.37-2.91.05z" fill="#000"/><path d="M89.37 9.94c-.1 1.37.34 1.95 2.67 3.45 2.09 1.35 2.7 2.02 2.7 2.95 0 1.67-1.68 2.52-3.37 1.73-.75-.33-1.66-1.31-1.99-2.13-.26-.62-.61-.75-.47-.18.03.21.14.98.24 1.7.18 1.45.28 1.66.51 1.21.2-.35.64-.35 1.69-.03 2.24.68 4.33-.18 4.87-2.03.46-1.54-.15-2.57-2.3-4-2.66-1.77-2.93-2-3.12-2.69-.51-1.68 1.24-2.66 3.07-1.71.72.36 1.43 1.26 1.61 2.05.07.26.2.46.28.46.16 0 .06-1.95-.13-3.05-.1-.46-.1-.46-.43-.18-.3.28-.36.28-1.41.02-1.43-.37-2.11-.37-2.91.05-.89.45-1.45 1.3-1.51 2.38z"/><path d="M16.68 7.54c0 .1.14.18.31.18.16 0 .46.14.64.29.31.28.34.51.38 3.96.05 5.34.03 5.85-.28 6.15-.13.15-.43.27-.66.27-.21 0-.39.07-.39.17s.88.16 2.31.16c1.5 0 2.27-.06 2.21-.16-.05-.1-.27-.17-.48-.17-.2 0-.51-.1-.69-.23-.28-.22-.31-.45-.31-2.47v-2.22l.49-.05c.46-.05.64.14 2.55 2.64l2.04 2.66h1.28c1.26 0 1.71-.2.82-.38-.35-.07-.92-.65-2.25-2.32-.99-1.21-1.89-2.33-2.01-2.5-.21-.25-.15-.3.71-.55 1.68-.5 2.46-1.8 2.05-3.36-.21-.8-.87-1.45-1.82-1.82-.92-.35-6.9-.57-6.9-.25zm5.91.82c1.05.56 1.43 1.95.87 3.15-.34.75-1.26 1.18-2.76 1.33l-1.07.1v-2.07c0-2.9-.03-2.81 1.3-2.81.74 0 1.27.1 1.66.3z" fill="#000"/><path d="M16.99 7.72c.16 0 .46.14.64.29.31.28.34.51.38 3.96.05 5.34.03 5.85-.28 6.15-.13.15-.43.27-.66.27-.21 0-.39.07-.39.17s.88.16 2.31.16c1.5 0 2.27-.06 2.21-.16-.05-.1-.27-.17-.48-.17-.2 0-.51-.1-.69-.23-.28-.22-.31-.45-.31-2.47v-2.22l.49-.05c.46-.05.64.14 2.55 2.64l2.04 2.66h1.28c1.26 0 1.71-.2.82-.38-.35-.07-.92-.65-2.25-2.32-.99-1.21-1.89-2.33-2.01-2.5-.21-.25-.15-.3.71-.55 1.68-.5 2.46-1.8 2.05-3.36-.21-.8-.87-1.45-1.82-1.82-.92-.35-6.9-.57-6.9-.25 0 .1.14.18.31.18zm6.47 3.79c-.34.75-1.26 1.18-2.76 1.33l-1.07.1v-2.07c0-2.9-.03-2.81 1.3-2.81.74 0 1.27.1 1.66.3 1.05.56 1.43 1.95.87 3.15z"/><path d="M36.07 7.54c0 .08.29.18.64.25.36.05.67.22.74.37.05.13.1 2.38.1 4.98 0 5.2-.02 5.25-1 5.25-.27 0-.48.07-.48.17s.9.16 2.38.16 2.39-.06 2.39-.16-.22-.17-.47-.17c-.26 0-.6-.1-.78-.23-.3-.24-.32-.5-.37-4.72-.03-2.45 0-4.63.05-4.83.14-.55.55-.89 1.09-.89.26 0 .48-.08.48-.16 0-.1-.91-.17-2.39-.17-1.31 0-2.38.07-2.38.15z" fill="#000"/><path d="M36.71 7.79c.36.05.67.22.74.37.05.13.1 2.38.1 4.98 0 5.2-.02 5.25-1 5.25-.27 0-.48.07-.48.17s.9.16 2.38.16 2.39-.06 2.39-.16-.22-.17-.47-.17c-.26 0-.6-.1-.78-.23-.3-.24-.32-.5-.37-4.72-.03-2.45 0-4.63.05-4.83.14-.55.55-.89 1.09-.89.26 0 .48-.08.48-.16 0-.1-.91-.17-2.39-.17-1.31 0-2.38.07-2.38.15 0 .08.29.18.64.25z"/><path d="M38.99 26.76c.35.18.37.26.37 2.3 0 2.03-.02 2.11-.37 2.3-.31.15-.16.18.78.18.93 0 1.08-.03.79-.18-.33-.17-.38-.32-.38-1.17v-.97h2.13v.97c0 .85-.05 1-.36 1.17-.31.15-.16.18.78.18.93 0 1.08-.03.78-.18-.36-.19-.37-.27-.37-2.3 0-2.04.01-2.12.37-2.3.3-.15.15-.19-.78-.19-.94 0-1.09.04-.78.19.31.16.36.31.36 1.16v.97h-2.13v-.97c0-.85.05-1 .38-1.16.29-.15.14-.19-.79-.19-.94 0-1.09.04-.78.19z" fill="#000"/><path d="M39.36 29.06c0 2.03-.02 2.11-.37 2.3-.31.15-.16.18.78.18.93 0 1.08-.03.79-.18-.33-.17-.38-.32-.38-1.17v-.97h2.13v.97c0 .85-.05 1-.36 1.17-.31.15-.16.18.78.18.93 0 1.08-.03.78-.18-.36-.19-.37-.27-.37-2.3 0-2.04.01-2.12.37-2.3.3-.15.15-.19-.78-.19-.94 0-1.09.04-.78.19.31.16.36.31.36 1.16v.97h-2.13v-.97c0-.85.05-1 .38-1.16.29-.15.14-.19-.79-.19-.94 0-1.09.04-.78.19.35.18.37.26.37 2.3z"/><path d="M46.97 26.89c-.71.44-1.04 1.13-1.04 2.19 0 1.54.89 2.48 2.4 2.48 1.56 0 2.46-1.1 2.33-2.8-.06-.82-.15-.99-.75-1.57-.61-.57-.78-.63-1.55-.63-.57 0-1.05.11-1.39.33zm1.72.02c1.69.6 1.45 4.31-.3 4.31-.72 0-1.15-.26-1.41-.91-.49-1.22-.11-2.94.76-3.37.23-.11.41-.22.42-.22.02 0 .25.09.53.19z" fill="#000"/><path d="M45.93 29.08c0 1.54.89 2.48 2.4 2.48 1.56 0 2.46-1.1 2.33-2.8-.06-.82-.15-.99-.75-1.57-.61-.57-.78-.63-1.55-.63-.57 0-1.05.11-1.39.33-.71.44-1.04 1.13-1.04 2.19zm2.46 2.14c-.72 0-1.15-.26-1.41-.91-.49-1.22-.11-2.94.76-3.37.23-.11.41-.22.42-.22.02 0 .25.09.53.19 1.69.6 1.45 4.31-.3 4.31z"/><path d="M52.34 27.26c.02.61.03.66.2.38.24-.48.64-.75 1.06-.75.38 0 .38.02.38 2.13 0 2.07-.01 2.15-.36 2.34-.31.15-.16.18.77.18.94 0 1.09-.03.79-.18-.36-.19-.38-.27-.38-2.34v-2.13h.48c.53 0 1 .37 1 .77 0 .13.09.23.17.23.18 0 .21-.4.06-.97-.1-.35-.16-.36-2.13-.36h-2.04v.7z" fill="#000"/><path d="M52.54 27.64c.24-.48.64-.75 1.06-.75.38 0 .38.02.38 2.13 0 2.07-.01 2.15-.36 2.34-.31.15-.16.18.77.18.94 0 1.09-.03.79-.18-.36-.19-.38-.27-.38-2.34v-2.13h.48c.53 0 1 .37 1 .77 0 .13.09.23.17.23.18 0 .21-.4.06-.97-.1-.35-.16-.36-2.13-.36h-2.04v.7c.02.61.03.66.2.38z"/><path d="M59.04 26.82c.35.24.37.39.37 2.22 0 1.87-.02 1.98-.37 2.23-.34.25-.24.27 1.63.27 1.1.02 2.04-.03 2.07-.12.05-.06.13-.38.2-.7l.11-.58-.41.48c-.34.42-.52.5-1.39.57l-1.02.07v-2.2h.74c.56 0 .79.08.93.33.33.52.43.4.4-.42-.05-.85-.18-1.1-.35-.6-.08.3-.24.35-.92.35h-.8v-1.83h.89c.78 0 .93.05 1.23.45l.33.47.01-.64v-.61h-2c-1.88 0-1.99.01-1.65.26z" fill="#000"/><path d="M59.41 29.04c0 1.87-.02 1.98-.37 2.23-.34.25-.24.27 1.63.27 1.1.02 2.04-.03 2.07-.12.05-.06.13-.38.2-.7l.11-.58-.41.48c-.34.42-.52.5-1.39.57l-1.02.07v-2.2h.74c.56 0 .79.08.93.33.33.52.43.4.4-.42-.05-.85-.18-1.1-.35-.6-.08.3-.24.35-.92.35h-.8v-1.83h.89c.78 0 .93.05 1.23.45l.33.47.01-.64v-.61h-2c-1.88 0-1.99.01-1.65.26.35.24.37.39.37 2.22z"/><path d="M65.45 26.76c.35.18.37.26.37 2.3 0 2.03-.02 2.11-.37 2.3-.29.13.07.18 1.65.18l2 .02.17-.44c.29-.78.19-1.03-.23-.5-.33.44-.51.5-1.38.57l-1.02.07v-2.15c0-2.09.01-2.17.38-2.35.29-.15.14-.18-.79-.18-.94 0-1.09.03-.78.18z" fill="#000"/><path d="M65.82 29.06c0 2.03-.02 2.11-.37 2.3-.29.13.07.18 1.65.18l2 .02.17-.44c.29-.78.19-1.03-.23-.5-.33.44-.51.5-1.38.57l-1.02.07v-2.15c0-2.09.01-2.17.38-2.35.29-.15.14-.18-.79-.18-.94 0-1.09.03-.78.18.35.18.37.26.37 2.3z"/><path d="M71.42 26.99c-.62.8-.36 1.42.9 2.23.99.64 1.32 1.17 1.06 1.69-.28.5-1.37.43-1.8-.12-.18-.23-.36-.5-.39-.62-.15-.41-.26 0-.16.64l.08.66 1.1.05c1.4.05 1.99-.31 1.99-1.23 0-.65-.28-.98-1.55-1.87-.64-.45-.77-.61-.72-1 .03-.35.15-.46.51-.5.52-.06 1.26.35 1.26.72 0 .12.09.28.18.33.12.09.15-.11.12-.6l-.05-.7-1.08-.06c-1.04-.07-1.12-.05-1.45.38z" fill="#000"/><path d="M72.32 29.22c.99.64 1.32 1.17 1.06 1.69-.28.5-1.37.43-1.8-.12-.18-.23-.36-.5-.39-.62-.15-.41-.26 0-.16.64l.08.66 1.1.05c1.4.05 1.99-.31 1.99-1.23 0-.65-.28-.98-1.55-1.87-.64-.45-.77-.61-.72-1 .03-.35.15-.46.51-.5.52-.06 1.26.35 1.26.72 0 .12.09.28.18.33.12.09.15-.11.12-.6l-.05-.7-1.08-.06c-1.04-.07-1.12-.05-1.45.38-.62.8-.36 1.42.9 2.23z"/></svg>