<svg width="93" height="62" fill="none" xmlns="http://www.w3.org/2000/svg"><defs><clipPath id="prefix__a"><path fill="#fff" fill-opacity="0" d="M0 0h93v62H0z"/></clipPath></defs><g clip-path="url(#prefix__a)"><path d="M81.31 13.07c0 .04 0 .79.01 1.67.02.91-.04 1.61-.11 1.61s-.75-.23-1.51-.5c-.75-.27-1.42-.5-1.49-.5-.11 0-.81 2.12-.71 2.2.03.03.75.27 1.59.54l1.55.48-1.02 1.33c-.57.74-.98 1.38-.91 1.44.22.2 1.75 1.3 1.8 1.3.03 0 .46-.62.97-1.36.5-.74.94-1.34.98-1.34.04 0 .49.6.98 1.34.5.74.93 1.36.96 1.36.04 0 1.75-1.23 1.87-1.36.03-.03-.41-.64-.96-1.36-.56-.71-1-1.33-.97-1.35.03-.02.71-.25 1.54-.5.82-.25 1.52-.48 1.55-.5.09-.12-.62-2.22-.76-2.22-.08 0-.77.23-1.51.5s-1.39.5-1.45.5c-.07 0-.11-.76-.11-1.69v-1.67h-1.14c-.62 0-1.14.03-1.15.08z" fill="#000"/><path d="M81.32 14.74c.02.91-.04 1.61-.11 1.61s-.75-.23-1.51-.5c-.75-.27-1.42-.5-1.49-.5-.11 0-.81 2.12-.71 2.2.03.03.75.27 1.59.54l1.55.48-1.02 1.33c-.57.74-.98 1.38-.91 1.44.22.2 1.75 1.3 1.8 1.3.03 0 .46-.62.97-1.36.5-.74.94-1.34.98-1.34.04 0 .49.6.98 1.34.5.74.93 1.36.96 1.36.04 0 1.75-1.23 1.87-1.36.03-.03-.41-.64-.96-1.36-.56-.71-1-1.33-.97-1.35.03-.02.71-.25 1.54-.5.82-.25 1.52-.48 1.55-.5.09-.12-.62-2.22-.76-2.22-.08 0-.77.23-1.51.5s-1.39.5-1.45.5c-.07 0-.11-.76-.11-1.69v-1.67h-1.14c-.62 0-1.14.03-1.15.08 0 .04 0 .79.01 1.67z"/><path d="M11.07 15.1c0 .02-.02 5.23-.05 11.59L11 38.22h16.78l-.05-3.07-.04-3.07H17.04V15.07h-2.99c-1.63 0-2.98.01-2.98.03z" fill="#000"/><path d="M11.02 26.69L11 38.22h16.78l-.05-3.07-.04-3.07H17.04V15.07h-2.99c-1.63 0-2.98.01-2.98.03 0 .02-.02 5.23-.05 11.59z"/><path d="M30.45 23.1c.04 7.17.07 8.15.3 8.9.92 3.17 3.54 5.66 6.85 6.5 1.31.35 3.46.46 4.83.26 3.69-.51 6.5-2.87 7.72-6.47l.38-1.14.05-8.05.04-8.03-3.03.02-3.03.05-.03 7.27c-.01 4.96-.07 7.48-.18 7.96-.47 1.93-2.09 3.1-4.11 2.96-1.64-.13-2.66-.9-3.3-2.5-.35-.83-.35-.84-.39-8.3l-.04-7.46h-6.12l.06 8.03z" fill="#000"/><path d="M30.75 32c.92 3.17 3.54 5.66 6.85 6.5 1.31.35 3.46.46 4.83.26 3.69-.51 6.5-2.87 7.72-6.47l.38-1.14.05-8.05.04-8.03-3.03.02-3.03.05-.03 7.27c-.01 4.96-.07 7.48-.18 7.96-.47 1.93-2.09 3.1-4.11 2.96-1.64-.13-2.66-.9-3.3-2.5-.35-.83-.35-.84-.39-8.3l-.04-7.46h-6.12l.06 8.03c.04 7.17.07 8.15.3 8.9z"/><path d="M53.26 15.24c.2.26 7.21 10.15 7.36 10.37.07.12-1.4 2.32-4.13 6.22-2.32 3.32-4.28 6.12-4.36 6.2-.1.15.55.19 3.2.19h3.34l2.46-3.55c1.36-1.94 2.57-3.67 2.71-3.85.25-.32.26-.29 2.99 3.54l2.76 3.86H76.23l-.5-.69c-.27-.37-2.24-3.15-4.4-6.2l-3.92-5.53 3.76-5.3c2.06-2.92 3.75-5.33 3.75-5.38 0-.02-1.46-.05-3.24-.05-3.18 0-3.26 0-3.54.31-.16.19-1.12 1.53-2.18 3l-1.89 2.69-.79-1.11c-.44-.61-1.41-1.96-2.15-3.01l-1.34-1.88h-3.33c-2.64 0-3.3.04-3.2.17z" fill="#000"/><path d="M60.62 25.61c.07.12-1.4 2.32-4.13 6.22-2.32 3.32-4.28 6.12-4.36 6.2-.1.15.55.19 3.2.19h3.34l2.46-3.55c1.36-1.94 2.57-3.67 2.71-3.85.25-.32.26-.29 2.99 3.54l2.76 3.86H76.23l-.5-.69c-.27-.37-2.24-3.15-4.4-6.2l-3.92-5.53 3.76-5.3c2.06-2.92 3.75-5.33 3.75-5.38 0-.02-1.46-.05-3.24-.05-3.18 0-3.26 0-3.54.31-.16.19-1.12 1.53-2.18 3l-1.89 2.69-.79-1.11c-.44-.61-1.41-1.96-2.15-3.01l-1.34-1.88h-3.33c-2.64 0-3.3.04-3.2.17.2.26 7.21 10.15 7.36 10.37z"/><path d="M24.26 48.3h-.89c-.04-.43-.41-.69-.96-.69-.57 0-.92.29-.92.67 0 .42.45.6.87.7l.47.12c.77.18 1.5.58 1.5 1.47s-.71 1.5-1.93 1.5c-1.19 0-1.94-.57-1.98-1.58h.91c.04.54.49.79 1.06.79.6 0 1.02-.29 1.02-.72 0-.4-.37-.57-.92-.71l-.58-.15c-.83-.21-1.35-.63-1.35-1.36-.01-.9.8-1.51 1.87-1.51 1.08 0 1.81.61 1.83 1.47zm3.1-1.47c1.34 0 2.34.97 2.34 2.62 0 1.64-1 2.62-2.34 2.62-1.34 0-2.34-.98-2.34-2.62 0-1.65 1-2.62 2.34-2.62zM43.4 48.3h-.88c-.05-.43-.42-.69-.97-.69-.57 0-.91.29-.92.67 0 .42.45.6.87.7l.48.12c.76.18 1.49.58 1.49 1.47s-.71 1.5-1.93 1.5c-1.19 0-1.94-.57-1.98-1.58h.91c.04.54.49.79 1.06.79.6 0 1.02-.29 1.02-.72 0-.4-.37-.57-.92-.71l-.57-.15c-.84-.21-1.36-.63-1.36-1.36 0-.9.8-1.51 1.87-1.51 1.08 0 1.81.61 1.83 1.47zm16.42-1.47c1.34 0 2.34.97 2.34 2.62 0 1.64-1 2.62-2.34 2.62-1.33 0-2.34-.98-2.34-2.62 0-1.65 1.01-2.62 2.34-2.62zM79.3 48.3h-.88c-.05-.43-.41-.69-.96-.69-.58 0-.92.29-.92.67-.01.42.44.6.86.7l.48.12c.76.18 1.49.58 1.49 1.47s-.71 1.5-1.93 1.5c-1.18 0-1.94-.57-1.97-1.58h.9c.04.54.49.79 1.06.79.61 0 1.02-.29 1.02-.72 0-.4-.36-.57-.91-.71l-.58-.15c-.84-.21-1.36-.63-1.36-1.36 0-.9.8-1.51 1.87-1.51 1.08 0 1.82.61 1.83 1.47zm-30.48 3.32c-.36.31-.86.45-1.31.45-1.04 0-1.68-.62-1.68-1.43 0-.6.39-.96.96-1.35-.3-.36-.52-.74-.52-1.19 0-.72.53-1.26 1.33-1.26s1.29.54 1.29 1.16c0 .48-.25.85-.67 1.16l-.32.24.93 1.08c.13-.25.21-.55.21-.88h.77c0 .69-.19 1.19-.44 1.52l.75.88h-.98l-.32-.38zm-36.1.38h-.92v-5.1h1.91c1.17 0 1.79.66 1.79 1.63 0 .69-.31 1.21-.91 1.45l1.1 2.02h-1.03l-1-1.87h-.94V52zm6.97 0h-3.34v-5.1h3.31v.78h-2.38v1.38h2.21v.77h-2.21v1.39h2.41V52zm11.81 0h-.92v-5.1h1.9c1.17 0 1.8.66 1.8 1.63 0 .69-.32 1.21-.92 1.45L34.47 52h-1.03l-1-1.87h-.94V52zm4.98-4.32h-1.57v-.78h4.06v.78h-1.58V52h-.91v-4.32zM53.33 52h-.92v-5.1h.92v2.16h2.36V46.9h.92V52h-.92v-2.17h-2.36V52zm10.84-4.32h-1.58v-.78h4.06v.78h-1.57V52h-.91v-4.32zm6.6 4.32h-3.34v-5.1h3.32v.78h-2.39v1.38h2.21v.77h-2.21v1.39h2.41V52zm4.08 0h-3.16v-5.1h.92v4.32h2.24V52zm-27.78-3.89c0 .24.15.47.37.74l.29-.2c.26-.17.4-.35.4-.61 0-.22-.2-.46-.52-.46s-.54.26-.54.53zm-19.71 3.13c.83 0 1.41-.63 1.41-1.79 0-1.16-.58-1.79-1.41-1.79s-1.41.63-1.41 1.79c0 1.16.58 1.79 1.41 1.79zm32.46 0c.83 0 1.41-.63 1.41-1.79 0-1.16-.58-1.79-1.41-1.79-.82 0-1.41.63-1.41 1.79 0 1.16.59 1.79 1.41 1.79zm-47.1-3.57v1.69h.85c.69 0 .99-.29.99-.83s-.3-.86-.99-.86h-.85zm18.78 0v1.69h.85c.68 0 .99-.29.99-.83s-.31-.86-1-.86h-.84zm16.04 3.66c.27 0 .55-.1.79-.27l-1.06-1.21-.08.06c-.34.25-.47.52-.47.69 0 .41.32.73.82.73z" fill="#000" fill-rule="evenodd"/></g></svg>