<svg width="114.974" height="37.262" fill="none" xmlns="http://www.w3.org/2000/svg"><path d="M4.08 37.09v-2.61H1.2v2.61H.42v-5.68h.78v2.41h2.88v-2.41h.77v5.68h-.77z" fill="#000" fill-rule="evenodd"/><path d="M4.08 34.48H1.2v2.61H.42v-5.68h.78v2.41h2.88v-2.41h.77v5.68h-.77v-2.61z"/><path d="M9.22 32.01c-.93 0-1.77.76-1.77 2.2 0 1.35.57 2.28 1.77 2.28.92 0 1.79-.74 1.79-2.21 0-1.46-.65-2.27-1.79-2.27zm-.07 5.17c-1.7 0-2.52-1.14-2.52-2.86 0-1.9 1.2-3 2.68-3 1.52 0 2.52 1 2.52 2.87 0 1.89-1.21 2.99-2.68 2.99z" fill="#000" fill-rule="evenodd"/><path d="M7.45 34.21c0 1.35.57 2.28 1.77 2.28.92 0 1.79-.74 1.79-2.21 0-1.46-.65-2.27-1.79-2.27-.93 0-1.77.76-1.77 2.2zm-.82.11c0-1.9 1.2-3 2.68-3 1.52 0 2.52 1 2.52 2.87 0 1.89-1.21 2.99-2.68 2.99-1.7 0-2.52-1.14-2.52-2.86z"/><path d="M15.08 32.06v5.03h-.77v-5.03h-1.63v-.65h4.04v.65h-1.64z" fill="#000" fill-rule="evenodd"/><path d="M15.08 37.09h-.77v-5.03h-1.63v-.65h4.04v.65h-1.64v5.03z"/><path d="M18.2 37.09v-5.68h2.91v.64h-2.14v1.8h2.04v.63h-2.04v1.97h2.14v.64H18.2z" fill="#000" fill-rule="evenodd"/><path d="M18.2 31.41h2.91v.64h-2.14v1.8h2.04v.63h-2.04v1.97h2.14v.64H18.2v-5.68z"/><path d="M23.11 37.09v-5.68h.77v5.02h2.03v.66h-2.8z" fill="#000" fill-rule="evenodd"/><path d="M23.11 31.41h.77v5.02h2.03v.66h-2.8v-5.68z"/><path d="M28.28 37.17c-.46 0-.89-.06-1.24-.16l.09-.74c.36.14.77.23 1.19.23.66 0 1.23-.27 1.23-.97 0-1.28-2.56-.78-2.56-2.59 0-.94.7-1.61 1.98-1.61.32 0 .7.03 1.02.11l-.09.68c-.3-.09-.65-.15-.97-.15-.78 0-1.14.35-1.14.89 0 1.23 2.59.78 2.59 2.57 0 1.02-.83 1.74-2.1 1.74z" fill="#000" fill-rule="evenodd"/><path d="M27.04 37.01l.09-.74c.36.14.77.23 1.19.23.66 0 1.23-.27 1.23-.97 0-1.28-2.56-.78-2.56-2.59 0-.94.7-1.61 1.98-1.61.32 0 .7.03 1.02.11l-.09.68c-.3-.09-.65-.15-.97-.15-.78 0-1.14.35-1.14.89 0 1.23 2.59.78 2.59 2.57 0 1.02-.83 1.74-2.1 1.74-.46 0-.89-.06-1.24-.16z"/><path d="M36.31 31.47c-.39 0-.68.28-.68.66 0 .28.16.6.61 1.12.47-.38.72-.71.72-1.14 0-.35-.19-.64-.65-.64zm-.21 2.68c-.59.47-.83.85-.83 1.29 0 .59.46 1.09 1.2 1.09.67 0 1.19-.27 1.55-.58-.69-.56-1.46-1.3-1.92-1.8zm3.64 3.11c-.41-.28-.88-.63-1.19-.9-.55.48-1.29.82-2.22.82-1.2 0-1.83-.72-1.83-1.65 0-.77.48-1.29 1.16-1.83-.58-.68-.78-1.07-.78-1.53 0-.69.53-1.28 1.5-1.28.87 0 1.34.48 1.34 1.14 0 .57-.3 1.07-1.05 1.66.49.51 1.21 1.19 1.85 1.71.37-.52.61-1.24.57-2.08h.76c.02.95-.26 1.83-.78 2.5.42.33.85.64 1.15.85l-.48.59z" fill="#000" fill-rule="evenodd"/><path d="M35.63 32.13c0 .28.16.6.61 1.12.47-.38.72-.71.72-1.14 0-.35-.19-.64-.65-.64-.39 0-.68.28-.68.66zm-.36 3.31c0 .59.46 1.09 1.2 1.09.67 0 1.19-.27 1.55-.58-.69-.56-1.46-1.3-1.92-1.8-.59.47-.83.85-.83 1.29zm3.28.92c-.55.48-1.29.82-2.22.82-1.2 0-1.83-.72-1.83-1.65 0-.77.48-1.29 1.16-1.83-.58-.68-.78-1.07-.78-1.53 0-.69.53-1.28 1.5-1.28.87 0 1.34.48 1.34 1.14 0 .57-.3 1.07-1.05 1.66.49.51 1.21 1.19 1.85 1.71.37-.52.61-1.24.57-2.08h.76c.02.95-.26 1.83-.78 2.5.42.33.85.64 1.15.85l-.48.59c-.41-.28-.88-.63-1.19-.9z"/><path d="M45.94 32.01c-.19 0-.36 0-.51.01v1.94c.08.01.25.02.47.02.82 0 1.29-.41 1.29-1.02 0-.68-.43-.95-1.25-.95zm1.44 5.09l-1.85-2.56h-.1v2.56h-.77v-5.69c.38-.03.79-.04 1.41-.04 1.12 0 1.92.4 1.92 1.49 0 .97-.76 1.53-1.66 1.6.16.2.35.41.49.61l1.54 2.03h-.98z" fill="#000" fill-rule="evenodd"/><path d="M45.43 32.02v1.94c.08.01.25.02.47.02.82 0 1.29-.41 1.29-1.02 0-.68-.43-.95-1.25-.95-.19 0-.36 0-.51.01zm.1 2.52h-.1v2.56h-.77v-5.69c.38-.03.79-.04 1.41-.04 1.12 0 1.92.4 1.92 1.49 0 .97-.76 1.53-1.66 1.6.16.2.35.41.49.61l1.54 2.03h-.98l-1.85-2.56z"/><path d="M50.09 37.09v-5.68H53v.64h-2.13v1.8h2.03v.63h-2.03v1.97H53v.64h-2.91z" fill="#000" fill-rule="evenodd"/><path d="M50.09 31.41H53v.64h-2.13v1.8h2.03v.63h-2.03v1.97H53v.64h-2.91v-5.68z"/><path d="M56.01 37.17c-.46 0-.89-.06-1.24-.16l.09-.74c.36.14.77.23 1.19.23.66 0 1.23-.27 1.23-.97 0-1.28-2.56-.78-2.56-2.59 0-.94.7-1.61 1.98-1.61.32 0 .7.03 1.02.11l-.09.68c-.3-.09-.65-.15-.97-.15-.77 0-1.14.35-1.14.89 0 1.23 2.59.78 2.59 2.57 0 1.02-.83 1.74-2.1 1.74z" fill="#000" fill-rule="evenodd"/><path d="M54.77 37.01l.09-.74c.36.14.77.23 1.19.23.66 0 1.23-.27 1.23-.97 0-1.28-2.56-.78-2.56-2.59 0-.94.7-1.61 1.98-1.61.32 0 .7.03 1.02.11l-.09.68c-.3-.09-.65-.15-.97-.15-.77 0-1.14.35-1.14.89 0 1.23 2.59.78 2.59 2.57 0 1.02-.83 1.74-2.1 1.74-.46 0-.89-.06-1.24-.16z"/><path d="M62.17 32.01c-.94 0-1.78.76-1.78 2.2 0 1.35.57 2.28 1.77 2.28.92 0 1.8-.74 1.8-2.21 0-1.46-.66-2.27-1.79-2.27zm-.08 5.17c-1.7 0-2.52-1.14-2.52-2.86 0-1.9 1.21-3 2.68-3 1.53 0 2.53 1 2.53 2.87 0 1.89-1.21 2.99-2.69 2.99z" fill="#000" fill-rule="evenodd"/><path d="M60.39 34.21c0 1.35.57 2.28 1.77 2.28.92 0 1.8-.74 1.8-2.21 0-1.46-.66-2.27-1.79-2.27-.94 0-1.78.76-1.78 2.2zm-.82.11c0-1.9 1.21-3 2.68-3 1.53 0 2.53 1 2.53 2.87 0 1.89-1.21 2.99-2.69 2.99-1.7 0-2.52-1.14-2.52-2.86z"/><path d="M67.84 32.01c-.2 0-.36 0-.52.01v1.94c.09.01.26.02.48.02.81 0 1.28-.41 1.28-1.02 0-.68-.42-.95-1.24-.95zm1.44 5.09l-1.86-2.56h-.1v2.56h-.77v-5.69c.39-.03.8-.04 1.42-.04 1.11 0 1.92.4 1.92 1.49 0 .97-.76 1.53-1.66 1.6.16.2.34.41.49.61l1.54 2.03h-.98z" fill="#000" fill-rule="evenodd"/><path d="M67.32 32.02v1.94c.09.01.26.02.48.02.81 0 1.28-.41 1.28-1.02 0-.68-.42-.95-1.24-.95-.2 0-.36 0-.52.01zm.1 2.52h-.1v2.56h-.77v-5.69c.39-.03.8-.04 1.42-.04 1.11 0 1.92.4 1.92 1.49 0 .97-.76 1.53-1.66 1.6.16.2.34.41.49.61l1.54 2.03h-.98l-1.86-2.56z"/><path d="M73.48 32.06v5.03h-.77v-5.03h-1.62v-.65h4.03v.65h-1.64z" fill="#000" fill-rule="evenodd"/><path d="M73.48 37.09h-.77v-5.03h-1.62v-.65h4.03v.65h-1.64v5.03z"/><path d="M77.51 37.17c-.46 0-.89-.06-1.24-.16l.09-.74c.36.14.77.23 1.19.23.65 0 1.22-.27 1.22-.97 0-1.28-2.55-.78-2.55-2.59 0-.94.7-1.61 1.97-1.61.33 0 .71.03 1.03.11l-.1.68c-.3-.09-.64-.15-.97-.15-.77 0-1.14.35-1.14.89 0 1.23 2.59.78 2.59 2.57 0 1.02-.83 1.74-2.09 1.74z" fill="#000" fill-rule="evenodd"/><path d="M76.27 37.01l.09-.74c.36.14.77.23 1.19.23.65 0 1.22-.27 1.22-.97 0-1.28-2.55-.78-2.55-2.59 0-.94.7-1.61 1.97-1.61.33 0 .71.03 1.03.11l-.1.68c-.3-.09-.64-.15-.97-.15-.77 0-1.14.35-1.14.89 0 1.23 2.59.78 2.59 2.57 0 1.02-.83 1.74-2.09 1.74-.46 0-.89-.06-1.24-.16z"/><path d="M28.96 20.97c-3.81 0-4.39-3.64-4.39-4.88 0-1.24.58-4.79 4.39-4.79 3.81 0 4.37 3.55 4.37 4.79 0 1.24-.56 4.88-4.37 4.88zm0-11.77c-5.21 0-6.69 4.06-6.69 6.89 0 2.92 1.48 6.99 6.69 6.99 5.2 0 6.69-4.07 6.69-6.99 0-2.83-1.49-6.89-6.69-6.89z" fill="#000" fill-rule="evenodd"/><path d="M24.57 16.09c0-1.24.58-4.79 4.39-4.79 3.81 0 4.37 3.55 4.37 4.79 0 1.24-.56 4.88-4.37 4.88s-4.39-3.64-4.39-4.88zm-2.3 0c0 2.92 1.48 6.99 6.69 6.99 5.2 0 6.69-4.07 6.69-6.99 0-2.83-1.49-6.89-6.69-6.89-5.21 0-6.69 4.06-6.69 6.89z"/><path d="M41.85 18.5l-3.76-9.17h-2.44l6.11 13.77h.19l6.11-13.77h-2.47l-3.74 9.17z" fill="#000" fill-rule="evenodd"/><path d="M38.09 9.33h-2.44l6.11 13.77h.19l6.11-13.77h-2.47l-3.74 9.17-3.76-9.17z"/><path d="M86.04 22.98h2.32V9.33h-2.32v13.65z" fill="#000" fill-rule="evenodd"/><path d="M88.36 22.98V9.33h-2.32v13.65h2.32z"/><path d="M97.22 11.18c1.39 0 2.81.84 3.62 1.73l1.51-1.47c-1.3-1.43-2.83-2.36-5.13-2.36-5.18 0-6.72 4.2-6.72 7.01 0 2.92 1.54 7.1 6.72 7.1 2.23 0 3.78-.79 5.09-2.1l-1.35-1.68c-.89.84-2.23 1.63-3.74 1.63-3.81-.07-4.39-3.69-4.39-4.95 0-1.24.58-4.91 4.39-4.91z" fill="#000" fill-rule="evenodd"/><path d="M100.84 12.91l1.51-1.47c-1.3-1.43-2.83-2.36-5.13-2.36-5.18 0-6.72 4.2-6.72 7.01 0 2.92 1.54 7.1 6.72 7.1 2.23 0 3.78-.79 5.09-2.1l-1.35-1.68c-.89.84-2.23 1.63-3.74 1.63-3.81-.07-4.39-3.69-4.39-4.95 0-1.24.58-4.91 4.39-4.91 1.39 0 2.81.84 3.62 1.73z"/><path d="M108.28 15.92l6.25-6.51-2.81-.08-5.16 5.43V9.33h-2.3v13.65h2.3v-5.96l5.58 5.96h2.81l-6.67-7.06z" fill="#000" fill-rule="evenodd"/><path d="M114.53 9.41l-2.81-.08-5.16 5.43V9.33h-2.3v13.65h2.3v-5.96l5.58 5.96h2.81l-6.67-7.06 6.25-6.51z"/><path d="M25.83 7.73c.74 0 1.34-.61 1.34-1.35a1.34 1.34 0 00-2.68 0c0 .74.6 1.35 1.34 1.35z" fill="#000" fill-rule="evenodd"/><path d="M27.17 6.38a1.34 1.34 0 00-2.68 0c0 .74.6 1.35 1.34 1.35.74 0 1.34-.61 1.34-1.35z"/><mask id="prefix__a" maskUnits="userSpaceOnUse" x=".01" y="5.043" width="32.71" height="18.131"><path d="M0 5.04v18.13h32.71V5.04H0z" fill="#FFF"/></mask><g mask="url(#prefix__a)"><path d="M31.38 7.73c.73 0 1.33-.61 1.33-1.35 0-.74-.6-1.34-1.33-1.34-.74 0-1.34.6-1.34 1.34 0 .74.6 1.35 1.34 1.35z" fill="#000" fill-rule="evenodd"/><path d="M32.71 6.38c0-.74-.6-1.34-1.33-1.34-.74 0-1.34.6-1.34 1.34 0 .74.6 1.35 1.34 1.35.73 0 1.33-.61 1.33-1.35z"/></g><mask id="prefix__b" maskUnits="userSpaceOnUse" x=".01" y="5.043" width="32.71" height="18.131"><path d="M0 5.04v18.13h32.71V5.04H0z" fill="#FFF"/></mask><g mask="url(#prefix__b)"><path d="M11.03 17.96L5.76 6.49H5.6L0 22.96h.77s1.8.03 2.33-1.61l2.87-8.74 4.97 10.56h.19l4.97-10.56 2.86 8.74c.54 1.64 2.34 1.61 2.34 1.61h.77l-5.6-16.47h-.17l-5.27 11.47z" fill="#000" fill-rule="evenodd"/><path d="M5.76 6.49H5.6L0 22.96h.77s1.8.03 2.33-1.61l2.87-8.74 4.97 10.56h.19l4.97-10.56 2.86 8.74c.54 1.64 2.34 1.61 2.34 1.61h.77l-5.6-16.47h-.17l-5.27 11.47L5.76 6.49z"/></g><path d="M79.57 15.92h-2.98v-4.55h2.91c1.93 0 2.37 1.49 2.37 2.26 0 .73-.44 2.29-2.3 2.29zm-.19-6.59h-5.09v13.65h2.3v-4.95h3.07c2.16 0 4.48-1.73 4.48-4.4 0-1.77-1.11-4.3-4.76-4.3z" fill="#000" fill-rule="evenodd"/><path d="M76.59 15.92v-4.55h2.91c1.93 0 2.37 1.49 2.37 2.26 0 .73-.44 2.29-2.3 2.29h-2.98zm-2.3-6.59v13.65h2.3v-4.95h3.07c2.16 0 4.48-1.73 4.48-4.4 0-1.77-1.11-4.3-4.76-4.3h-5.09z"/><path d="M69.45 17.66L60.8 9.15l-.09.05v13.78h2.32v-8.32l8.6 8.53.14-.04V9.34h-2.32v8.32z" fill="#000" fill-rule="evenodd"/><path d="M60.8 9.15l-.09.05v13.78h2.32v-8.32l8.6 8.53.14-.04V9.34h-2.32v8.32L60.8 9.15z"/><path d="M49.45 22.98h9.04V20.9h-6.74v-3.62h5.28V15.2h-5.28v-3.81h6.74V9.33h-9.04v13.65z" fill="#000" fill-rule="evenodd"/><path d="M58.49 22.98V20.9h-6.74v-3.62h5.28V15.2h-5.28v-3.81h6.74V9.33h-9.04v13.65h9.04z"/><path d="M67.65 4.06c-1.01.68-1.6 1.08-1.68 1.13 1.12.44 2.13.54 3.17.4.31-.35.46-.52.72-.81 1.93-2.16 3.08-2.07 3.6-2.11-.27-.14-.72-.25-1.3-.25-1.08 0-2.64.38-4.51 1.64z" fill="none"/><path d="M65.97 5.19c1.12.44 2.13.54 3.17.4.31-.35.46-.52.72-.81 1.93-2.16 3.08-2.07 3.6-2.11-.27-.14-.72-.25-1.3-.25-1.08 0-2.64.38-4.51 1.64-1.01.68-1.6 1.08-1.68 1.13z"/><path d="M55.34.34c1 .3 2.76 1.1 4.74 3.51 1.04 1.25 1.99 2.07 2.85 2.58.18-.02 1.42-.12 2.8-1.09-1.23-.49-2.6-1.4-4.26-2.86C59.48.73 57.58.29 56.16.29c-.29 0-.57.02-.82.05z" fill="none"/><path d="M60.08 3.85c1.04 1.25 1.99 2.07 2.85 2.58.18-.02 1.42-.12 2.8-1.09-1.23-.49-2.6-1.4-4.26-2.86C59.48.73 57.58.29 56.16.29c-.29 0-.57.02-.82.05 1 .3 2.76 1.1 4.74 3.51z"/><mask id="prefix__c" maskUnits="userSpaceOnUse" x="62.936" y="5.35" width="6.024" height="1.895"><path d="M65.57 7.24c-.77 0-1.63-.21-2.57-.77.18-.01 1.35-.16 2.73-1.13 1.15.46 2.18.57 3.23.43-.48.46-1.73 1.47-3.39 1.47z" fill="#FFF"/></mask><g mask="url(#prefix__c)"><path d="M62.93 6.43c2.96 1.77 5.28.06 5.98-.61-1.05.14-2.03-.02-3.18-.48-1.38.97-2.62 1.07-2.8 1.09z" fill="none"/><path d="M68.91 5.82c-1.05.14-2.03-.02-3.18-.48-1.38.97-2.62 1.07-2.8 1.09 2.96 1.77 5.28.06 5.98-.61z"/></g><path d="M56.03.02c-.5.02-.92.09-1.25.17.14.04.33.08.56.15 1.45-.18 3.73.03 6.13 2.14 3.2 2.82 5.31 3.58 7.49 3.29.02-.03.18-.18.18-.18-1.04.14-2.05.04-3.17-.4-1.27-.49-2.66-1.42-4.35-2.94C59.75.57 57.95.08 56.57.02h-.54z" fill="none"/><path d="M54.78.19c.14.04.33.08.56.15 1.45-.18 3.73.03 6.13 2.14 3.2 2.82 5.31 3.58 7.49 3.29.02-.03.18-.18.18-.18-1.04.14-2.05.04-3.17-.4-1.27-.49-2.66-1.42-4.35-2.94C59.75.57 57.95.08 56.57.02h-.54c-.5.02-.92.09-1.25.17z"/></svg>