<svg width="115" height="28" fill="none" xmlns="http://www.w3.org/2000/svg"><defs><clipPath id="prefix__a"><path fill="#fff" fill-opacity="0" d="M0 0h115v28H0z"/></clipPath></defs><g clip-path="url(#prefix__a)"><path d="M16.24 10.84c-1.64.45-3.05 1.88-3.51 3.54-.09.35-.18.65-.19.66-.01.03-.43-.21-.94-.51-.5-.31-.94-.56-.97-.56-.03 0-.06.88-.06 1.94v1.92l.46-.28c.26-.17.49-.3.51-.3.02 0 .25-.14.51-.3.26-.17.48-.3.49-.28.01.02.07.25.13.53.4 1.75 1.78 3.19 3.48 3.66.82.23 2.17.21 2.91-.04.8-.26 1.67-.9 2.2-1.63.25-.32.44-.61.44-.65 0-.03-.14-.15-.3-.26l-.3-.22-.25.43c-.37.62-1.1 1.32-1.69 1.61-.46.22-.6.25-1.3.21-1.04-.06-1.76-.39-2.4-1.11-.87-1-1.15-1.95-1.1-3.59.04-1.02.07-1.16.37-1.87.41-.94.98-1.56 1.8-1.98.56-.29.7-.32 1.49-.32.73 0 .95.04 1.3.23.53.28 1.02.78 1.44 1.48l.31.53.29-.19c.17-.11.3-.25.3-.3 0-.2-.74-1.12-1.16-1.46-.24-.18-.71-.48-1.06-.66-.57-.28-.73-.31-1.65-.34-.67-.02-1.19.02-1.55.11z" fill="#000"/><path d="M12.73 14.38c-.09.35-.18.65-.19.66-.01.03-.43-.21-.94-.51-.5-.31-.94-.56-.97-.56-.03 0-.06.88-.06 1.94v1.92l.46-.28c.26-.17.49-.3.51-.3.02 0 .25-.14.51-.3.26-.17.48-.3.49-.28.01.02.07.25.13.53.4 1.75 1.78 3.19 3.48 3.66.82.23 2.17.21 2.91-.04.8-.26 1.67-.9 2.2-1.63.25-.32.44-.61.44-.65 0-.03-.14-.15-.3-.26l-.3-.22-.25.43c-.37.62-1.1 1.32-1.69 1.61-.46.22-.6.25-1.3.21-1.04-.06-1.76-.39-2.4-1.11-.87-1-1.15-1.95-1.1-3.59.04-1.02.07-1.16.37-1.87.41-.94.98-1.56 1.8-1.98.56-.29.7-.32 1.49-.32.73 0 .95.04 1.3.23.53.28 1.02.78 1.44 1.48l.31.53.29-.19c.17-.11.3-.25.3-.3 0-.2-.74-1.12-1.16-1.46-.24-.18-.71-.48-1.06-.66-.57-.28-.73-.31-1.65-.34-.67-.02-1.19.02-1.55.11-1.64.45-3.05 1.88-3.51 3.54z"/><path d="M83.39 15.7c-1.19 2.74-2.18 5.02-2.18 5.06 0 .03.16.06.35.06h.36l.72-1.64.72-1.63h3.98l.68 1.63.69 1.64h.76c.42 0 .76-.03.76-.07 0-.04-.96-2.31-2.13-5.06-1.85-4.36-2.16-4.99-2.33-4.99-.18 0-.48.65-2.38 5zm3.62 1.12c0 .02-.75.03-1.66.03-.91 0-1.65-.02-1.65-.05 0-.06 1.29-3.03 1.53-3.56l.14-.28.82 1.91c.45 1.06.82 1.93.82 1.95z" fill="#000"/><path d="M81.21 20.76c0 .03.16.06.35.06h.36l.72-1.64.72-1.63h3.98l.68 1.63.69 1.64h.76c.42 0 .76-.03.76-.07 0-.04-.96-2.31-2.13-5.06-1.85-4.36-2.16-4.99-2.33-4.99-.18 0-.48.65-2.38 5-1.19 2.74-2.18 5.02-2.18 5.06zm4.14-3.91c-.91 0-1.65-.02-1.65-.05 0-.06 1.29-3.03 1.53-3.56l.14-.28.82 1.91c.45 1.06.82 1.93.82 1.95 0 .02-.75.03-1.66.03z"/><path d="M26.87 14.64l.03 3.75.26.57c.33.72 1.09 1.48 1.79 1.78.41.16.77.22 1.58.26 1.68.06 2.61-.27 3.42-1.25.75-.9.76-.95.8-5.16l.02-3.7h-.63l-.04 3.6-.03 3.6-.23.56c-.46 1.06-1.27 1.66-2.35 1.76-1.46.12-2.61-.71-3.02-2.17-.12-.44-.14-1.1-.14-3.94v-3.41h-1.49l.03 3.75z" fill="#000"/><path d="M26.9 18.39l.26.57c.33.72 1.09 1.48 1.79 1.78.41.16.77.22 1.58.26 1.68.06 2.61-.27 3.42-1.25.75-.9.76-.95.8-5.16l.02-3.7h-.63l-.04 3.6-.03 3.6-.23.56c-.46 1.06-1.27 1.66-2.35 1.76-1.46.12-2.61-.71-3.02-2.17-.12-.44-.14-1.1-.14-3.94v-3.41h-1.49l.03 3.75.03 3.75z"/><path d="M40.19 15.86v4.96h6.16v-.59h-4.6v-9.34h-1.56v4.97z" fill="#000"/><path d="M40.19 20.82h6.16v-.59h-4.6v-9.34h-1.56v9.93z"/><path d="M51.04 15.86v4.96h6.17v-.59l-2.32-.02-2.33-.03-.03-4.65-.01-4.64h-1.48v4.97z" fill="#000"/><path d="M51.04 20.82h6.17v-.59l-2.32-.02-2.33-.03-.03-4.65-.01-4.64h-1.48v9.93z"/><path d="M61.81 15.86v4.96h1.56v-9.93h-1.56v4.97z" fill="#000"/><path d="M61.81 20.82h1.56v-9.93h-1.56v9.93z"/><path d="M68.98 15.86v4.96h.74l.02-3.91.02-3.91 3.22 4c2.03 2.51 3.3 4.01 3.43 4.04l.21.05V10.9h-.65v7.27l-.19-.19c-.11-.09-1.48-1.73-3.06-3.64l-2.86-3.44h-.88v4.96z" fill="#000"/><path d="M68.98 20.82h.74l.02-3.91.02-3.91 3.22 4c2.03 2.51 3.3 4.01 3.43 4.04l.21.05V10.9h-.65v7.27l-.19-.19c-.11-.09-1.48-1.73-3.06-3.64l-2.86-3.44h-.88v9.92z"/><path d="M94.83 15.86v4.96h.64v-3.93c0-3.43.02-3.92.14-3.81.07.06 1.55 1.88 3.28 4.03 2.4 2.98 3.21 3.91 3.37 3.91h.2V10.89h-.73l-.02 3.63-.03 3.62-2.99-3.62-2.99-3.62h-.43l-.44-.01v4.97z" fill="#000"/><path d="M94.83 20.82h.64v-3.93c0-3.43.02-3.92.14-3.81.07.06 1.55 1.88 3.28 4.03 2.4 2.98 3.21 3.91 3.37 3.91h.2V10.89h-.73l-.02 3.63-.03 3.62-2.99-3.62-2.99-3.62h-.43l-.44-.01v9.93z"/></g></svg>