<svg width="115" height="71" fill="none" xmlns="http://www.w3.org/2000/svg"><defs><clipPath id="prefix__a"><path fill="#fff" fill-opacity="0" d="M0 0h115v71H0z"/></clipPath></defs><g clip-path="url(#prefix__a)"><path d="M43.29 2.76c-8.51 2.17-14.52 11.15-13.03 19.58 1.57 9.1 9.56 15.4 18.88 14.88 2.54-.16 3.55-.4 5.17-1.32 5.85-3.37 6.17-3.49 9.68-3.33 3.35.16 3.11.08 8.92 3.44 1.69.97 2.34 1.09 5.41 1.09 3.1 0 3.63-.12 5.04-1.09.85-.6 1.78-1.44 2.02-1.84.44-.64.28-.64-1.41.16-4 1.97-8.28 1.6-12.35-1.04-3.55-2.29-5.09-2.81-8.15-2.81-2.95 0-4.28.48-8.36 2.93-5.85 3.57-12.71 2.6-18.19-2.57-9.81-9.18-4.08-25.43 9.68-27.36 3.15-.44 6.3.04 8.84 1.33.88.44 1.33.52 1.05.2-.25-.28-1.38-.93-2.55-1.45-2.26-1-8.15-1.44-10.65-.8z" fill="#000"/><path d="M30.26 22.34c1.57 9.1 9.56 15.4 18.88 14.88 2.54-.16 3.55-.4 5.17-1.32 5.85-3.37 6.17-3.49 9.68-3.33 3.35.16 3.11.08 8.92 3.44 1.69.97 2.34 1.09 5.41 1.09 3.1 0 3.63-.12 5.04-1.09.85-.6 1.78-1.44 2.02-1.84.44-.64.28-.64-1.41.16-4 1.97-8.28 1.6-12.35-1.04-3.55-2.29-5.09-2.81-8.15-2.81-2.95 0-4.28.48-8.36 2.93-5.85 3.57-12.71 2.6-18.19-2.57-9.81-9.18-4.08-25.43 9.68-27.36 3.15-.44 6.3.04 8.84 1.33.88.44 1.33.52 1.05.2-.25-.28-1.38-.93-2.55-1.45-2.26-1-8.15-1.44-10.65-.8-8.51 2.17-14.52 11.15-13.03 19.58z"/><path d="M43.29 6.45c-3.02 1.16-6.21 4.17-7.58 7.22-3.23 7.18-.65 14.76 6.17 18.09 2.38 1.16 3.07 1.33 6.13 1.33 3.67 0 3.92-.08 9.89-3.45 2.14-1.21 2.74-1.37 5.45-1.37 3.22 0 3.63.16 9.4 3.37 4.4 2.49 9.04 2.09 12.02-1l1.37-1.45-1.81.93c-1.53.8-2.42.96-5.69.96-3.71 0-3.96-.04-6.05-1.36-5.33-3.37-5.57-3.45-9.04-3.45-3.43 0-3.11-.12-9.65 3.61-1.57.92-2.62 1.16-5.12 1.32-2.66.16-3.39.04-5.29-.8-2.58-1.16-4.8-3.25-6.05-5.66-1.37-2.57-1.33-7.7.16-10.79 2.06-4.41 6.01-7.3 10.9-7.9l2.54-.32-2.83-.04c-1.93-.04-3.51.2-4.92.76z" fill="#000"/><path d="M35.71 13.67c-3.23 7.18-.65 14.76 6.17 18.09 2.38 1.16 3.07 1.33 6.13 1.33 3.67 0 3.92-.08 9.89-3.45 2.14-1.21 2.74-1.37 5.45-1.37 3.22 0 3.63.16 9.4 3.37 4.4 2.49 9.04 2.09 12.02-1l1.37-1.45-1.81.93c-1.53.8-2.42.96-5.69.96-3.71 0-3.96-.04-6.05-1.36-5.33-3.37-5.57-3.45-9.04-3.45-3.43 0-3.11-.12-9.65 3.61-1.57.92-2.62 1.16-5.12 1.32-2.66.16-3.39.04-5.29-.8-2.58-1.16-4.8-3.25-6.05-5.66-1.37-2.57-1.33-7.7.16-10.79 2.06-4.41 6.01-7.3 10.9-7.9l2.54-.32-2.83-.04c-1.93-.04-3.51.2-4.92.76-3.02 1.16-6.21 4.17-7.58 7.22z"/><path d="M45.99 9.58c-4.47 1.36-7.22 5.13-7.26 9.91 0 3.29 1.41 6.09 3.92 7.74 2.22 1.44 3.71 1.8 7.14 1.56 2.26-.12 2.98-.4 6.13-2.32l3.59-2.21h7.71l3.79 2.21 3.84 2.2h3.47c3.1 0 3.63-.12 5.04-1.08.85-.6 1.78-1.44 2.02-1.84.44-.65.28-.65-1.41.16-4.36 2.04-8.16 1.6-13.28-1.53l-3.47-2.13h-7.34l-3.64 2.09c-4.39 2.53-7.06 3.21-9.76 2.53-3.79-.92-5.73-3.41-5.73-7.3 0-3.13.69-5.02 2.5-6.94 1.62-1.81 3.83-2.81 6.78-3.13.89-.08.61-.16-.81-.2-1.21 0-2.66.12-3.23.28z" fill="#000"/><path d="M38.73 19.49c0 3.29 1.41 6.09 3.92 7.74 2.22 1.44 3.71 1.8 7.14 1.56 2.26-.12 2.98-.4 6.13-2.32l3.59-2.21h7.71l3.79 2.21 3.84 2.2h3.47c3.1 0 3.63-.12 5.04-1.08.85-.6 1.78-1.44 2.02-1.84.44-.65.28-.65-1.41.16-4.36 2.04-8.16 1.6-13.28-1.53l-3.47-2.13h-7.34l-3.64 2.09c-4.39 2.53-7.06 3.21-9.76 2.53-3.79-.92-5.73-3.41-5.73-7.3 0-3.13.69-5.02 2.5-6.94 1.62-1.81 3.83-2.81 6.78-3.13.89-.08.61-.16-.81-.2-1.21 0-2.66.12-3.23.28-4.47 1.36-7.22 5.13-7.26 9.91z"/><path d="M5.85 45.52C1.97 46.89.36 51.94 2.54 56.15c1.21 2.45 2.9 3.29 6.21 3.13 2.79-.16 3.07-.32 2.7-1.28-.2-.56-.6-.65-2.01-.4-4.2.6-6.7-2.77-5.45-7.35.69-2.44 2.1-3.4 4.88-3.28 1.78.08 2.26 0 2.34-.53.16-.8-.12-.96-2.14-1.28-.96-.12-2.26 0-3.22.36z" fill="#000"/><path d="M2.54 56.15c1.21 2.45 2.9 3.29 6.21 3.13 2.79-.16 3.07-.32 2.7-1.28-.2-.56-.6-.65-2.01-.4-4.2.6-6.7-2.77-5.45-7.35.69-2.44 2.1-3.4 4.88-3.28 1.78.08 2.26 0 2.34-.53.16-.8-.12-.96-2.14-1.28-.96-.12-2.26 0-3.22.36-3.88 1.37-5.49 6.42-3.31 10.63z"/><path d="M17.35 51.82c-1.17 3.61-2.22 6.78-2.3 7.02-.13.32.16.52.8.52 1.09 0 1.17-.12 3.8-9.1.4-1.41.8-2.53.92-2.53.13 0 .53 1.12.89 2.49.65 2.4.65 2.48-.12 3.01-1.09.8-.97 1.32.36 1.32 1.09 0 1.21.2 1.82 2.41.6 2.12.81 2.4 1.69 2.4 1.17 0 1.21-.16.41-2.4-.81-2.25-.77-2.53.28-3.01 1.33-.61 1.33-1.29 0-1.09-1.45.21-1.73-.2-3.07-4.25-1.05-3.05-1.21-3.29-2.22-3.29-1.09 0-1.17.2-3.26 6.5z" fill="#000"/><path d="M15.05 58.84c-.13.32.16.52.8.52 1.09 0 1.17-.12 3.8-9.1.4-1.41.8-2.53.92-2.53.13 0 .53 1.12.89 2.49.65 2.4.65 2.48-.12 3.01-1.09.8-.97 1.32.36 1.32 1.09 0 1.21.2 1.82 2.41.6 2.12.81 2.4 1.69 2.4 1.17 0 1.21-.16.41-2.4-.81-2.25-.77-2.53.28-3.01 1.33-.61 1.33-1.29 0-1.09-1.45.21-1.73-.2-3.07-4.25-1.05-3.05-1.21-3.29-2.22-3.29-1.09 0-1.17.2-3.26 6.5-1.17 3.61-2.22 6.78-2.3 7.02z"/><path d="M31.87 52.3c0 6.78.04 7.06.81 7.06s.81-.28.81-5.13c.04-5.9-.21-5.94 3.67.76 2.06 3.61 2.7 4.37 3.47 4.37h.93V45.32h-1.98l-.12 4.98-.12 5.01-2.83-4.89c-2.14-3.69-3.02-4.94-3.71-5.02l-.93-.12v7.02z" fill="#000"/><path d="M32.68 59.36c.77 0 .81-.28.81-5.13.04-5.9-.21-5.94 3.67.76 2.06 3.61 2.7 4.37 3.47 4.37h.93V45.32h-1.98l-.12 4.98-.12 5.01-2.83-4.89c-2.14-3.69-3.02-4.94-3.71-5.02l-.93-.12v7.02c0 6.78.04 7.06.81 7.06z"/><path d="M48.25 52.1C47 55.83 46 59 46 59.12c0 .12.44.24.96.24.85 0 1.09-.48 2.67-5.81.97-3.21 1.85-5.7 1.97-5.62.12.12.53 1.24.89 2.49l.73 2.24-1.09.84-1.09.85 1.41.2c1.29.2 1.45.36 2.06 2.41.56 1.88.81 2.2 1.73 2.32.57.08 1.05.04 1.05-.04s-.36-1.16-.76-2.41l-.81-2.28 1.05-.48c1.57-.76 1.53-1.33-.16-1.33h-1.5l-1.13-3.73c-1.13-3.53-1.21-3.69-2.34-3.69s-1.17.08-3.39 6.78z" fill="#000"/><path d="M46 59.12c0 .12.44.24.96.24.85 0 1.09-.48 2.67-5.81.97-3.21 1.85-5.7 1.97-5.62.12.12.53 1.24.89 2.49l.73 2.24-1.09.84-1.09.85 1.41.2c1.29.2 1.45.36 2.06 2.41.56 1.88.81 2.2 1.73 2.32.57.08 1.05.04 1.05-.04s-.36-1.16-.76-2.41l-.81-2.28 1.05-.48c1.57-.76 1.53-1.33-.16-1.33h-1.5l-1.13-3.73c-1.13-3.53-1.21-3.69-2.34-3.69s-1.17.08-3.39 6.78C47 55.83 46 59 46 59.12z"/><path d="M62.94 52.34v7.02h2.02V46.93h1.61c1.82 0 3.23 1.08 3.23 2.44 0 .85-1.77 2.89-2.78 3.21-.85.28 3.43 6.34 4.72 6.66.48.12 1.01.12 1.09.04.12-.12-.73-1.52-1.86-3.13-1.53-2.2-1.89-3-1.49-3.25.28-.2.64-.36.85-.36.72 0 1.61-2.77 1.33-4.17-.41-2.16-2.06-3.05-5.77-3.05h-2.95v7.02z" fill="#000"/><path d="M62.94 59.36h2.02V46.93h1.61c1.82 0 3.23 1.08 3.23 2.44 0 .85-1.77 2.89-2.78 3.21-.85.28 3.43 6.34 4.72 6.66.48.12 1.01.12 1.09.04.12-.12-.73-1.52-1.86-3.13-1.53-2.2-1.89-3-1.49-3.25.28-.2.64-.36.85-.36.72 0 1.61-2.77 1.33-4.17-.41-2.16-2.06-3.05-5.77-3.05h-2.95v14.04z"/><path d="M77.87 52.34v7.02h3.84c3.83 0 3.83 0 3.83-1 0-.96-.08-1-2.87-1h-2.82l.12-2.13.12-2.08 2.14-.13c1.78-.12 2.1-.24 2.1-.92 0-.64-.28-.76-2.22-.76h-2.22v-4.41h2.82c2.55 0 2.83-.08 2.83-.8 0-.77-.28-.81-3.83-.81h-3.84v7.02z" fill="#000"/><path d="M77.87 59.36h3.84c3.83 0 3.83 0 3.83-1 0-.96-.08-1-2.87-1h-2.82l.12-2.13.12-2.08 2.14-.13c1.78-.12 2.1-.24 2.1-.92 0-.64-.28-.76-2.22-.76h-2.22v-4.41h2.82c2.55 0 2.83-.08 2.83-.8 0-.77-.28-.81-3.83-.81h-3.84v14.04z"/><path d="M91.19 52.34v7.02h3.83c3.83 0 3.83 0 3.83-1 0-.96-.08-1-2.86-1h-2.82l.12-2.13.12-2.08h2.14c1.89 0 2.09-.08 2.09-.93 0-.8-.2-.88-2.26-.88h-2.21l.12-2.13.12-2.08 2.74-.12c2.38-.12 2.7-.2 2.7-.88 0-.73-.28-.81-3.83-.81h-3.83v7.02z" fill="#000"/><path d="M91.19 59.36h3.83c3.83 0 3.83 0 3.83-1 0-.96-.08-1-2.86-1h-2.82l.12-2.13.12-2.08h2.14c1.89 0 2.09-.08 2.09-.93 0-.8-.2-.88-2.26-.88h-2.21l.12-2.13.12-2.08 2.74-.12c2.38-.12 2.7-.2 2.7-.88 0-.73-.28-.81-3.83-.81h-3.83v14.04z"/><path d="M104.91 52.34v7.02h1.01c.92 0 .96-.12 1.09-3.13l.12-3.08 2.14-.13c1.77-.12 2.09-.24 2.09-.92 0-.64-.28-.76-2.22-.76h-2.21v-4.41h2.82c2.54 0 2.82-.08 2.82-.8 0-.77-.28-.81-3.83-.81h-3.83v7.02z" fill="#000"/><path d="M104.91 59.36h1.01c.92 0 .96-.12 1.09-3.13l.12-3.08 2.14-.13c1.77-.12 2.09-.24 2.09-.92 0-.64-.28-.76-2.22-.76h-2.21v-4.41h2.82c2.54 0 2.82-.08 2.82-.8 0-.77-.28-.81-3.83-.81h-3.83v14.04z"/></g></svg>