<svg width="82.502" height="56.797" fill="none" xmlns="http://www.w3.org/2000/svg"><path d="M35.91.12c-1.6.17-4.95 1.09-6.8 1.87-4.95 2.09-8.76 5.76-10.48 10.08-.46 1.14-.53 1.82-.53 4.4-.03 2.74.05 3.18.63 4.54 1.09 2.57 3.93 6.14 4.9 6.14.31 0 .07-.38-.9-1.45-2.52-2.72-3.86-6.59-3.32-9.5C20.98 7.84 32.27 1.99 44.64 3.08c10.92.98 16.72 5.59 16.75 13.29 0 6.07-5.63 11.73-13.64 13.72-1.31.32-3.23.54-5.53.64-3.06.12-3.79.07-5.51-.37-3.79-.95-6.36-2.7-7.72-5.17-.9-1.68-1.11-4.37-.48-6.27.58-1.77 2.37-3.64 4.29-4.54 1.36-.61 1.85-.68 4.2-.73 2.4-.07 2.52-.05 1.21.17-1.72.27-3.47.8-4.2 1.34-.5.36-.53.5-.53 4.61V24h7.04v-4.62c0-3.52.07-4.61.31-4.61.15 0 .88.26 1.58.6l1.26.59v4c0 3.96 0 4.01.56 4.09.46.07.39.17-.56.72-1.28.76-2.67 1.17-3.93 1.17-.51 0-.92.1-.92.24 0 .44 3.49.27 5.22-.27 2.84-.87 4.24-2.79 4.24-5.85 0-1.53-.41-2.67-1.38-3.86l-.66-.83.81.73c1.82 1.63 2.45 4.5 1.48 6.66-.27.58-.49 1.09-.49 1.14 0 .05.56.1 1.21.1h1.22V7h-7.04v6.75l-1.46-.37-1.45-.36V7h-7.01l-.08 3.08-.07 3.08-1.14.3c-1.68.41-4.05 1.62-5.17 2.59-3.44 2.99-3.2 8 .53 11.32 3.47 3.09 9.01 4.88 15.1 4.88 7.76 0 14.61-2.4 18.49-6.48 1.45-1.51 2.25-2.82 2.91-4.74.68-2.01.56-5.68-.24-7.7C60.8 5.8 49.91-.17 39.45 0c-1.48 0-3.08.07-3.54.12z" fill="#000"/><path d="M29.11 1.99c-4.95 2.09-8.76 5.76-10.48 10.08-.46 1.14-.53 1.82-.53 4.4-.03 2.74.05 3.18.63 4.54 1.09 2.57 3.93 6.14 4.9 6.14.31 0 .07-.38-.9-1.45-2.52-2.72-3.86-6.59-3.32-9.5C20.98 7.84 32.27 1.99 44.64 3.08c10.92.98 16.72 5.59 16.75 13.29 0 6.07-5.63 11.73-13.64 13.72-1.31.32-3.23.54-5.53.64-3.06.12-3.79.07-5.51-.37-3.79-.95-6.36-2.7-7.72-5.17-.9-1.68-1.11-4.37-.48-6.27.58-1.77 2.37-3.64 4.29-4.54 1.36-.61 1.85-.68 4.2-.73 2.4-.07 2.52-.05 1.21.17-1.72.27-3.47.8-4.2 1.34-.5.36-.53.5-.53 4.61V24h7.04v-4.62c0-3.52.07-4.61.31-4.61.15 0 .88.26 1.58.6l1.26.59v4c0 3.96 0 4.01.56 4.09.46.07.39.17-.56.72-1.28.76-2.67 1.17-3.93 1.17-.51 0-.92.1-.92.24 0 .44 3.49.27 5.22-.27 2.84-.87 4.24-2.79 4.24-5.85 0-1.53-.41-2.67-1.38-3.86l-.66-.83.81.73c1.82 1.63 2.45 4.5 1.48 6.66-.27.58-.49 1.09-.49 1.14 0 .05.56.1 1.21.1h1.22V7h-7.04v6.75l-1.46-.37-1.45-.36V7h-7.01l-.08 3.08-.07 3.08-1.14.3c-1.68.41-4.05 1.62-5.17 2.59-3.44 2.99-3.2 8 .53 11.32 3.47 3.09 9.01 4.88 15.1 4.88 7.76 0 14.61-2.4 18.49-6.48 1.45-1.51 2.25-2.82 2.91-4.74.68-2.01.56-5.68-.24-7.7C60.8 5.8 49.91-.17 39.45 0c-1.48 0-3.08.07-3.54.12-1.6.17-4.95 1.09-6.8 1.87z"/><path d="M29.84 35.78c0 .56.1.61 1.09.61h1.1v18.94h-1.1c-.99 0-1.09.05-1.09.61v.61h8.49v-.61c0-.56-.09-.61-.97-.61h-.97V35.17h-6.55v.61z" fill="#000"/><path d="M30.93 36.39h1.1v18.94h-1.1c-.99 0-1.09.05-1.09.61v.61h8.49v-.61c0-.56-.09-.61-.97-.61h-.97V35.17h-6.55v.61c0 .56.1.61 1.09.61z"/><path d="M0 38.21c0 .56.09.61 1.09.61h1.09V55.33H1.09c-1 0-1.09.05-1.09.61v.61h9.22v-.61c0-.58-.08-.61-1.34-.61H6.55v-8.01H12.86v8.01h-1.22c-1.14 0-1.21.05-1.21.61v.61h8.98v-.61c0-.56-.1-.61-1.09-.61h-1.1V38.82h1.1c.99 0 1.09-.05 1.09-.61v-.61h-8.98v.61c0 .56.07.61 1.21.61h1.22v7.28H6.55v-7.28h1.33c1.26 0 1.34-.03 1.34-.61v-.61H0v.61z" fill="#000"/><path d="M1.09 38.82h1.09V55.33H1.09c-1 0-1.09.05-1.09.61v.61h9.22v-.61c0-.58-.08-.61-1.34-.61H6.55v-8.01H12.86v8.01h-1.22c-1.14 0-1.21.05-1.21.61v.61h8.98v-.61c0-.56-.1-.61-1.09-.61h-1.1V38.82h1.1c.99 0 1.09-.05 1.09-.61v-.61h-8.98v.61c0 .56.07.61 1.21.61h1.22v7.28H6.55v-7.28h1.33c1.26 0 1.34-.03 1.34-.61v-.61H0v.61c0 .56.09.61 1.09.61z"/><path d="M22.56 38.82v1.21h4.37V37.6h-4.37v1.22z" fill="#000"/><path d="M22.56 40.03h4.37V37.6h-4.37V40.03z"/><path d="M41 40.27v2.67h-1.09c-.99 0-1.09.05-1.09.61 0 .56.1.61 1.09.61H41v5.02c0 5.45.08 5.83 1.29 6.73.58.42 1.12.51 3.35.59l2.64.09v-.63c0-.61-.05-.63-1.57-.63h-1.58V44.16h1.58c1.52 0 1.57-.03 1.57-.61s-.05-.61-1.57-.61h-1.58V37.6H41v2.67z" fill="#000"/><path d="M41 42.94h-1.09c-.99 0-1.09.05-1.09.61 0 .56.1.61 1.09.61H41v5.02c0 5.45.08 5.83 1.29 6.73.58.42 1.12.51 3.35.59l2.64.09v-.63c0-.61-.05-.63-1.57-.63h-1.58V44.16h1.58c1.52 0 1.57-.03 1.57-.61s-.05-.61-1.57-.61h-1.58V37.6H41v5.34z"/><path d="M53.69 42.8c-3.51 1.14-5.26 3.42-5.26 6.82 0 2.87 1.38 5.1 3.9 6.37 1.95.94 4.93 1.07 6.97.31 2.04-.78 3.61-2.4 4.17-4.27 1.05-3.65-.63-7.41-4-8.92-1.41-.63-4.34-.78-5.78-.31zm4.27 1.48c1 .85 1.34 2.57 1.19 6.19-.12 3.16-.53 4.4-1.67 4.98-1.51.8-3.47.03-4.03-1.58-.39-1.12-.39-6.82-.02-8.06.6-2.06 2.96-2.84 4.53-1.53z" fill="#000"/><path d="M48.43 49.62c0 2.87 1.38 5.1 3.9 6.37 1.95.94 4.93 1.07 6.97.31 2.04-.78 3.61-2.4 4.17-4.27 1.05-3.65-.63-7.41-4-8.92-1.41-.63-4.34-.78-5.78-.31-3.51 1.14-5.26 3.42-5.26 6.82zm10.72.85c-.12 3.16-.53 4.4-1.67 4.98-1.51.8-3.47.03-4.03-1.58-.39-1.12-.39-6.82-.02-8.06.6-2.06 2.96-2.84 4.53-1.53 1 .85 1.34 2.57 1.19 6.19z"/><path d="M73.35 42.87c-.56.2-1.36.66-1.77 1.04l-.73.69v-1.66H64.54v.61c0 .56.1.61 1.09.61h1.09v11.17h-1.09c-.99 0-1.09.05-1.09.61v.61h8.49v-.61c0-.56-.09-.61-1.09-.61h-1.09v-3.96c0-3.62.05-4.05.56-5.03.9-1.79 2.79-2.69 3.9-1.87.66.49.85 2.02.88 6.66v4.2h-.97c-.88 0-.97.05-.97.61v.61h8.25v-.61c0-.56-.1-.61-1.1-.61h-1.09v-5.17c0-4.74-.05-5.22-.48-5.95-.97-1.58-4.03-2.21-6.48-1.34z" fill="#000"/><path d="M71.58 43.91l-.73.69v-1.66H64.54v.61c0 .56.1.61 1.09.61h1.09v11.17h-1.09c-.99 0-1.09.05-1.09.61v.61h8.49v-.61c0-.56-.09-.61-1.09-.61h-1.09v-3.96c0-3.62.05-4.05.56-5.03.9-1.79 2.79-2.69 3.9-1.87.66.49.85 2.02.88 6.66v4.2h-.97c-.88 0-.97.05-.97.61v.61h8.25v-.61c0-.56-.1-.61-1.1-.61h-1.09v-5.17c0-4.74-.05-5.22-.48-5.95-.97-1.58-4.03-2.21-6.48-1.34-.56.2-1.36.66-1.77 1.04z"/><path d="M20.62 43.55c0 .56.1.61 1.09.61h1.09v11.17h-1.09c-.99 0-1.09.05-1.09.61v.61h8.49v-.61c0-.56-.09-.61-.97-.61h-.97V42.94h-6.55v.61z" fill="#000"/><path d="M21.71 44.16h1.09v11.17h-1.09c-.99 0-1.09.05-1.09.61v.61h8.49v-.61c0-.56-.09-.61-.97-.61h-.97V42.94h-6.55v.61c0 .56.1.61 1.09.61z"/></svg>