<svg width="69" height="47.751" fill="none" xmlns="http://www.w3.org/2000/svg"><path d="M57.58 13.4c1.57 0 3.07.31 4.45.87 1.38.56 2.57 1.37 3.64 2.37 1.07 1 1.88 2.18 2.45 3.55.62 1.37.87 2.81.87 4.3 0 1.56-.31 3-.87 4.37-.63 1.37-1.45 2.55-2.45 3.55-1.07 1-2.26 1.81-3.64 2.37a11.853 11.853 0 01-8.91 0c-1.38-.56-2.57-1.37-3.63-2.37-1.07-1-1.88-2.18-2.45-3.55-.63-1.37-.88-2.81-.88-4.37 0-1.55.32-2.99.88-4.3.63-1.37 1.44-2.49 2.45-3.55 1.06-1 2.25-1.81 3.63-2.37s2.89-.87 4.46-.87zm0 21.82c1.25 0 2.38-.25 3.45-.81 1.07-.57 2.01-1.31 2.76-2.25.75-.93 1.38-2.12 1.82-3.43.44-1.31.69-2.68.69-4.17 0-1.5-.25-2.87-.69-4.18-.44-1.31-1.07-2.43-1.82-3.37-.82-.93-1.69-1.74-2.76-2.3-1.07-.56-2.2-.88-3.45-.88-1.19 0-2.32.32-3.39.88a8.963 8.963 0 00-2.82 2.3c-.82.94-1.44 2.06-1.88 3.37-.44 1.31-.69 2.68-.69 4.18 0 1.49.25 2.86.69 4.17.44 1.31 1.06 2.43 1.88 3.43.81.94 1.75 1.75 2.82 2.25 1.07.49 2.2.81 3.39.81z" fill="#000"/><ellipse cx="45.415" cy="8.977" rx="2.258" ry="2.244" fill="#000"/><path d="M42.27 13.46h-9.78v.44c1.19 0 2.13.87 2.19 1.93v11.09c-.12 1.25-.37 2.37-.69 3.37-.31 1-.81 1.87-1.38 2.62-.62.75-1.38 1.31-2.32 1.68-.94.38-2 .56-3.32.56-1.44 0-2.64-.25-3.51-.81-.88-.56-1.64-1.31-2.14-2.24-.5-.94-.88-2.06-1.06-3.37a29.78 29.78 0 01-.32-4.3v-8.48c0-1.12 1.01-2.05 2.2-2.05v-.44H15.55v.44c1.19 0 2.2.93 2.2 2.05v8.48c.06 1.62.19 3.12.44 4.43.25 1.37.69 2.55 1.31 3.55.63 1 1.57 1.81 2.76 2.37 1.2.56 2.76.87 4.77.87 1.82 0 3.39-.25 4.64-.81 1.26-.56 2.26-1.31 3.01-2.18v2.99h4.83v-.43c-1.19 0-2.19-.5-2.19-1.63V16.02c0-1.13 1-2.06 2.19-2.06 1.13 0 2.07.81 2.2 1.81v22.56c-.06 1.25-.13 2.43-.25 3.49-.13 1.06-.38 2-.69 2.81-.38.81-.88 1.43-1.57 1.87-.69.44-1.63.68-2.89.68v.57c1.57 0 2.83-.25 3.83-.75s1.82-1.12 2.38-2c.57-.87.95-1.87 1.2-2.99.18-1.12.31-2.37.31-3.68V13.46h-1.76zM14.8 23.5c.06 2.05-.06 3.92-.31 5.61-.13.74-.32 1.43-.51 2.12-.18.68-.44 1.31-.75 1.87s-.69 1.06-1.13 1.43c-.44.37-.94.62-1.57.69H4.51V2.68c0-1.19 1.01-2.19 2.2-2.19V0H.06v.49H0c1.19 0 2.13.94 2.19 2.12v30.42c0 1.19-.94 2.19-2.13 2.19v.49h15.49V23.5h-.75zM47.35 37.96h.57l1.25 3.24h-.62l-.25-.81h-1.26l-.31.87h-.57l1.19-3.3zm-.18 1.99h1l-.5-1.43-.5 1.43zM49.49 37.96h1.5c.38 0 .63.06.82.25.19.12.25.37.25.62 0 .13 0 .31-.06.38-.07.12-.13.18-.13.25-.06.06-.12.12-.19.12-.06 0-.12.06-.12.06.06 0 .12 0 .12.06.07 0 .13.07.13.13.06.06.06.12.12.19 0 .06.07.18.07.31 0 .18 0 .37.06.5 0 .18.06.25.12.31h-.62c-.07-.06-.07-.13-.07-.25v-.25-.37c0-.13-.06-.19-.12-.25-.06-.07-.13-.13-.19-.19-.06.06-.19.06-.31.06h-.82v1.31h-.56v-3.24zm.56 1.5h.94c.19 0 .32-.07.38-.13s.12-.19.12-.37c0-.13 0-.19-.06-.25 0-.07-.06-.13-.12-.13-.07-.06-.13-.06-.19-.06h-1.07v.94zM52.25 37.96h2.57v.5h-1v2.74h-.57v-2.74h-1v-.5zM58.14 40.89c-.12.12-.25.25-.37.31-.13.06-.32.13-.5.13-.13 0-.26 0-.38-.07-.13-.06-.25-.12-.31-.18-.07-.07-.19-.19-.19-.32-.07-.12-.07-.25-.07-.43 0-.13 0-.25.07-.31.06-.13.12-.19.19-.25.06-.07.12-.13.25-.19.06-.06.18-.12.25-.19-.07-.06-.07-.12-.13-.18-.06-.07-.06-.13-.12-.19 0-.06-.07-.13-.07-.19v-.19c0-.12 0-.24.07-.31.06-.12.12-.18.18-.25.07-.06.13-.12.26-.18.12-.07.18-.07.31-.07.12 0 .19 0 .31.07.13.06.19.06.25.12.07.06.13.13.19.25.06.13.06.19.06.31 0 .13 0 .19-.06.25 0 .06-.06.19-.12.25-.07.06-.13.13-.19.19s-.13.12-.25.12l.5.63c0-.07.06-.13.06-.19s.06-.13.06-.25h.44c0 .12-.06.31-.06.44-.06.12-.12.25-.19.37l.63.75h-.63l-.44-.25zm-.87-1.12c-.07 0-.13.06-.13.06-.06 0-.13.06-.19.12-.06.07-.06.13-.12.19-.07.06-.07.13-.07.25 0 .19.07.31.13.37.12.13.25.13.38.13.06 0 .18 0 .25-.06.06 0 .12-.07.18-.07.07-.06.07-.06.13-.12 0-.06.06-.06.06-.13l-.62-.74zm.18-1.5c-.12 0-.18.06-.25.13-.06.06-.12.12-.12.24v.13c0 .06.06.06.06.12 0 .07.06.07.06.13.07.06.07.06.13.12l.12-.12c.07-.06.07-.06.13-.13.06-.06.06-.06.06-.12v-.19c0-.12 0-.18-.06-.25.06 0 0-.06-.13-.06zM62.35 40.2c0 .13 0 .31-.07.44 0 .12-.06.25-.12.37-.06.13-.19.19-.32.25-.12.06-.31.13-.56.13-.19 0-.31 0-.44-.07-.12-.06-.19-.12-.31-.24-.07-.07-.13-.19-.19-.32-.06-.12-.06-.25-.06-.43v-.19h.56v.19c0 .18 0 .31.06.43.07.13.19.13.38.13.06 0 .19 0 .25-.06.06 0 .13-.07.13-.13.06-.06.06-.12.06-.19v-2.49h.56l.07 2.18zM64.35 37.9c.25 0 .44.06.63.12s.38.19.5.38c.13.12.25.31.32.56.06.18.12.43.12.68 0 .25-.06.44-.12.69-.07.18-.19.37-.32.56-.12.12-.31.25-.5.37-.19.13-.38.13-.63.13s-.44-.06-.62-.13a.968.968 0 01-.51-.37c-.12-.13-.25-.31-.31-.56-.06-.19-.12-.44-.12-.69 0-.25.06-.43.12-.68.06-.19.19-.38.31-.56.13-.13.32-.25.51-.38.18-.12.37-.12.62-.12zm0 .5c-.18 0-.31.06-.44.12a1.4 1.4 0 00-.31.25c-.06.12-.12.25-.19.37-.06.13-.06.32-.06.44s0 .31.06.44c.07.12.13.31.19.37.06.12.19.19.31.25.13.06.26.12.44.12.19 0 .32-.06.44-.12.13-.06.25-.19.32-.25.06-.12.12-.25.18-.37.07-.13.07-.32.07-.44s0-.31-.07-.44c-.06-.12-.12-.31-.18-.37-.07-.13-.19-.19-.32-.25-.12-.12-.25-.12-.44-.12zM67.24 39.95l-1.19-1.99h.62l.82 1.43.81-1.43h.63l-1.19 1.99v1.25h-.56l.06-1.25z" fill="#000"/></svg>