<svg width="110.093" height="36.375" fill="none" xmlns="http://www.w3.org/2000/svg"><path d="M48.93.27c-.37.21-.86.28-1.61.25-1.81-.07-3.38.79-3.38 1.84v.57l.86-.1c.75-.09.92-.03 1.47.4l.63.49-.35.48c-.2.26-.48.52-.65.59-.42.14-.89.86-.96 1.44-.04.28-.13.59-.2.71-.07.13-.09.37-.02.55.06.19.02.38-.08.45-.18.11-.07.91.19 1.23.16.21.33 1.31.42 2.71.04.53.18 1.37.32 1.86.28 1.05.22 1.3-.3 1.3-.55 0-1.16.47-1.16.91 0 .29.07.33.46.24.42-.1.44-.09.33.4-.05.28-.03.56.05.62.21.12 1.12-.32 1.53-.77.42-.48.84-.48.7.01-.11.3-.06.35.29.3.37-.05.41-.14.41-.93 0-.49.07-.92.17-.99.09-.08.18-.35.19-.62.06-1.82.06-1.8.51-1.8.37 0 .44.09.44.54 0 .6.23 1.12.75 1.68l.35.41h-.8c-.63 0-.86.08-1.07.38-.39.54-.35.72.21 1.05.45.28.77.28 3.82.07 1.83-.12 3.48-.31 3.65-.42.6-.31 1.44-1.31 1.65-1.94.26-.81.25-1.86-.07-2.87-.19-.62-.21-.95-.07-1.2.16-.31.21-.31.56-.07.7.49 2.4.25 2.4-.35 0-.38-1.09-1.29-1.68-1.41-.77-.14-1.88.45-2.17 1.15-.16.39-.2 1-.11 2.07.05.84.04 1.63-.05 1.75-.09.16-.18-.09-.23-.7-.09-1.04-.66-2.42-1.35-3.17-.24-.26-.33-.47-.21-.47.11 0 .37-.16.58-.35.21-.2.49-.35.61-.35.13 0 .23-.11.23-.25s.16-.31.35-.37c.19-.05.35-.17.35-.26 0-.07.28-.19.61-.25.36-.07.62-.22.62-.36 0-.13.23-.28.51-.35.4-.09.52-.23.61-.72.07-.33.23-.6.33-.6.46 0 1.17-.45 1.17-.73 0-.21.18-.32.67-.35.44-.04.65-.14.65-.32 0-.14.21-.35.49-.47.26-.12.47-.3.47-.4 0-.11.24-.41.54-.65.3-.25.49-.56.44-.68-.05-.14.05-.35.25-.46.19-.12.35-.4.35-.61 0-.49.03-.49-1 .03-1.44.74-3.17 1.02-5.06.79-2.44-.3-4.78-.3-5.45-.02-.59.25-1.33 1.09-1.62 1.88-.11.26-.23.44-.28.38-.04-.05-.27-.77-.5-1.59-.22-.82-.47-1.58-.52-1.68-.18-.26-.63-.23-1.24.1z" fill="#000"/><path d="M47.32.52c-1.81-.07-3.38.79-3.38 1.84v.57l.86-.1c.75-.09.92-.03 1.47.4l.63.49-.35.48c-.2.26-.48.52-.65.59-.42.14-.89.86-.96 1.44-.04.28-.13.59-.2.71-.07.13-.09.37-.02.55.06.19.02.38-.08.45-.18.11-.07.91.19 1.23.16.21.33 1.31.42 2.71.04.53.18 1.37.32 1.86.28 1.05.22 1.3-.3 1.3-.55 0-1.16.47-1.16.91 0 .29.07.33.46.24.42-.1.44-.09.33.4-.05.28-.03.56.05.62.21.12 1.12-.32 1.53-.77.42-.48.84-.48.7.01-.11.3-.06.35.29.3.37-.05.41-.14.41-.93 0-.49.07-.92.17-.99.09-.08.18-.35.19-.62.06-1.82.06-1.8.51-1.8.37 0 .44.09.44.54 0 .6.23 1.12.75 1.68l.35.41h-.8c-.63 0-.86.08-1.07.38-.39.54-.35.72.21 1.05.45.28.77.28 3.82.07 1.83-.12 3.48-.31 3.65-.42.6-.31 1.44-1.31 1.65-1.94.26-.81.25-1.86-.07-2.87-.19-.62-.21-.95-.07-1.2.16-.31.21-.31.56-.07.7.49 2.4.25 2.4-.35 0-.38-1.09-1.29-1.68-1.41-.77-.14-1.88.45-2.17 1.15-.16.39-.2 1-.11 2.07.05.84.04 1.63-.05 1.75-.09.16-.18-.09-.23-.7-.09-1.04-.66-2.42-1.35-3.17-.24-.26-.33-.47-.21-.47.11 0 .37-.16.58-.35.21-.2.49-.35.61-.35.13 0 .23-.11.23-.25s.16-.31.35-.37c.19-.05.35-.17.35-.26 0-.07.28-.19.61-.25.36-.07.62-.22.62-.36 0-.13.23-.28.51-.35.4-.09.52-.23.61-.72.07-.33.23-.6.33-.6.46 0 1.17-.45 1.17-.73 0-.21.18-.32.67-.35.44-.04.65-.14.65-.32 0-.14.21-.35.49-.47.26-.12.47-.3.47-.4 0-.11.24-.41.54-.65.3-.25.49-.56.44-.68-.05-.14.05-.35.25-.46.19-.12.35-.4.35-.61 0-.49.03-.49-1 .03-1.44.74-3.17 1.02-5.06.79-2.44-.3-4.78-.3-5.45-.02-.59.25-1.33 1.09-1.62 1.88-.11.26-.23.44-.28.38-.04-.05-.27-.77-.5-1.59-.22-.82-.47-1.58-.52-1.68-.18-.26-.63-.23-1.24.1-.37.21-.86.28-1.61.25z"/><path d="M106.09 26.56c0 1.31 1.06 2.03 2.36 1.61.75-.25 1.14-.77 1.14-1.54 0-.84-.42-1.54-1.07-1.77-.7-.24-.82-.23-1.51.07-.68.3-.92.73-.92 1.63z" stroke="#000"/><path d="M80.14 25.54c-1.28.39-2.26 1.4-2.78 2.89-.33.98-.3 3.98.07 4.96.86 2.27 3.11 3.34 5.6 2.64.88-.24 1.91-1.19 2.42-2.22.36-.74.42-1.07.42-3.02 0-1.94-.06-2.27-.42-3.01-.51-1.03-1.54-1.98-2.42-2.22-.77-.23-2.21-.23-2.89-.02zm3.15 1.28c.48.32.86.79 1.21 1.47.42.88.49 1.23.49 2.5 0 1.28-.07 1.63-.49 2.51-1.42 2.87-4.94 2.68-6.07-.35-.42-1.14-.49-2.94-.16-4.06.26-.88 1.24-2.07 1.98-2.4.82-.37 2.22-.23 3.04.33z" fill="#000"/><path d="M77.36 28.43c-.33.98-.3 3.98.07 4.96.86 2.27 3.11 3.34 5.6 2.64.88-.24 1.91-1.19 2.42-2.22.36-.74.42-1.07.42-3.02 0-1.94-.06-2.27-.42-3.01-.51-1.03-1.54-1.98-2.42-2.22-.77-.23-2.21-.23-2.89-.02-1.28.39-2.26 1.4-2.78 2.89zm7.14-.14c.42.88.49 1.23.49 2.5 0 1.28-.07 1.63-.49 2.51-1.42 2.87-4.94 2.68-6.07-.35-.42-1.14-.49-2.94-.16-4.06.26-.88 1.24-2.07 1.98-2.4.82-.37 2.22-.23 3.04.33.48.32.86.79 1.21 1.47z"/><path d="M3.5 25.72c0 .08.24.29.54.43.82.44 1.01 1.12 1.14 4.22.12 3.16-.02 4.05-.76 4.63-.92.71-2.15-.06-2.15-1.35 0-.67-.05-.77-.3-.68-.17.05-.68.17-1.13.29-.74.18-.84.27-.84.67 0 1.68 2.52 2.87 4.9 2.29.91-.22 1.91-.93 2.33-1.64.14-.25.24-1.63.29-4.01l.09-3.66.58-.51c.3-.28.56-.58.56-.68 0-.11-.96-.18-2.63-.18-1.59 0-2.62.07-2.62.18z" fill="#000"/><path d="M4.04 26.15c.82.44 1.01 1.12 1.14 4.22.12 3.16-.02 4.05-.76 4.63-.92.71-2.15-.06-2.15-1.35 0-.67-.05-.77-.3-.68-.17.05-.68.17-1.13.29-.74.18-.84.27-.84.67 0 1.68 2.52 2.87 4.9 2.29.91-.22 1.91-.93 2.33-1.64.14-.25.24-1.63.29-4.01l.09-3.66.58-.51c.3-.28.56-.58.56-.68 0-.11-.96-.18-2.63-.18-1.59 0-2.62.07-2.62.18 0 .08.24.29.54.43z"/><path d="M9.27 25.72c0 .1.2.47.44.84.49.77 1.26 2.77 2.54 6.6.51 1.54 1.02 2.85 1.12 2.92.11.07.46.14.75.14.74 0 .86-.21 1.91-3.2.47-1.31.89-2.4.95-2.4.05 0 .54 1.21 1.06 2.66l.97 2.68.89.05.89.06.3-.93c.67-2.05 2.43-6.76 2.8-7.5.23-.43.61-.98.86-1.21.86-.78.67-.89-1.73-.89-2.16 0-2.59.12-1.84.53.38.21.87 1.05.87 1.52 0 .54-1.62 5.32-1.75 5.18-.07-.07-.57-1.38-1.12-2.9-1.01-2.86-1.03-3.07-.38-3.63.15-.12.28-.33.28-.45 0-.2-.44-.25-2.19-.25-1.44 0-2.19.07-2.19.2 0 .1.19.43.44.75.23.31.58.92.79 1.36l.35.79-.83 2.21c-.45 1.22-.87 2.15-.94 2.08-.21-.23-1.61-4.83-1.68-5.55-.07-.58-.02-.77.37-1.12.24-.25.45-.49.45-.58 0-.07-.98-.14-2.19-.14-1.36 0-2.19.07-2.19.18z" fill="#000"/><path d="M9.71 26.56c.49.77 1.26 2.77 2.54 6.6.51 1.54 1.02 2.85 1.12 2.92.11.07.46.14.75.14.74 0 .86-.21 1.91-3.2.47-1.31.89-2.4.95-2.4.05 0 .54 1.21 1.06 2.66l.97 2.68.89.05.89.06.3-.93c.67-2.05 2.43-6.76 2.8-7.5.23-.43.61-.98.86-1.21.86-.78.67-.89-1.73-.89-2.16 0-2.59.12-1.84.53.38.21.87 1.05.87 1.52 0 .54-1.62 5.32-1.75 5.18-.07-.07-.57-1.38-1.12-2.9-1.01-2.86-1.03-3.07-.38-3.63.15-.12.28-.33.28-.45 0-.2-.44-.25-2.19-.25-1.44 0-2.19.07-2.19.2 0 .1.19.43.44.75.23.31.58.92.79 1.36l.35.79-.83 2.21c-.45 1.22-.87 2.15-.94 2.08-.21-.23-1.61-4.83-1.68-5.55-.07-.58-.02-.77.37-1.12.24-.25.45-.49.45-.58 0-.07-.98-.14-2.19-.14-1.36 0-2.19.07-2.19.18 0 .1.2.47.44.84z"/><path d="M29.06 30.79v5.26h.87l.04-3.89.05-3.87 1.57 3.87c1.51 3.69 1.6 3.89 2.05 3.89.44 0 .53-.18 2.05-3.99l1.58-3.98.01 3.98v3.99h.88V25.54H37.02l-1.68 4.4-1.68 4.37-1.82-4.37c-1.75-4.26-1.82-4.4-2.29-4.4h-.49v5.25z" fill="#000"/><path d="M29.06 36.05h.87l.04-3.89.05-3.87 1.57 3.87c1.51 3.69 1.6 3.89 2.05 3.89.44 0 .53-.18 2.05-3.99l1.58-3.98.01 3.98v3.99h.88V25.54H37.02l-1.68 4.4-1.68 4.37-1.82-4.37c-1.75-4.26-1.82-4.4-2.29-4.4h-.49v10.51z"/><path d="M44.39 25.7c-.17.26-3.78 10-3.78 10.19 0 .09.23.16.51.16.47 0 .52-.09 1.05-1.58l.58-1.57h4.48l.58 1.57c.56 1.49.61 1.58 1.08 1.58.33 0 .49-.07.44-.23-.04-.1-.93-2.47-2-5.25-1.83-4.87-1.92-5.03-2.38-5.03-.26 0-.51.07-.56.16zm1.56 3.83l.89 2.4-1.82.06c-1.01.01-1.85.01-1.91-.02-.03-.04.35-1.18.86-2.54.51-1.35.97-2.42 1-2.38.05.03.49 1.15.98 2.48z" fill="#000"/><path d="M40.61 35.89c0 .09.23.16.51.16.47 0 .52-.09 1.05-1.58l.58-1.57h4.48l.58 1.57c.56 1.49.61 1.58 1.08 1.58.33 0 .49-.07.44-.23-.04-.1-.93-2.47-2-5.25-1.83-4.87-1.92-5.03-2.38-5.03-.26 0-.51.07-.56.16-.17.26-3.78 10-3.78 10.19zm6.23-3.96l-1.82.06c-1.01.01-1.85.01-1.91-.02-.03-.04.35-1.18.86-2.54.51-1.35.97-2.42 1-2.38.05.03.49 1.15.98 2.48l.89 2.4z"/><path d="M51.82 30.78v5.27h.87v-4.73H55.3l1.63 2.36c1.52 2.21 1.66 2.37 2.2 2.37.3 0 .56-.07.56-.16 0-.07-.66-1.1-1.48-2.28-.83-1.19-1.49-2.17-1.49-2.2 0-.06.33-.16.73-.28.41-.11 1-.46 1.32-.77.54-.55.57-.67.57-1.74 0-1.36-.28-1.99-1.08-2.59-.54-.37-.77-.4-3.5-.45l-2.94-.07v5.27zm5.28-4.01c1.18.61 1.61 1.63 1.12 2.57-.42.82-1.22 1.1-3.52 1.23l-2.01.1V26.36l2 .11c1.1.05 2.18.19 2.41.3z" fill="#000"/><path d="M51.82 36.05h.87v-4.73H55.3l1.63 2.36c1.52 2.21 1.66 2.37 2.2 2.37.3 0 .56-.07.56-.16 0-.07-.66-1.1-1.48-2.28-.83-1.19-1.49-2.17-1.49-2.2 0-.06.33-.16.73-.28.41-.11 1-.46 1.32-.77.54-.55.57-.67.57-1.74 0-1.36-.28-1.99-1.08-2.59-.54-.37-.77-.4-3.5-.45l-2.94-.07v10.54zm6.4-6.71c-.42.82-1.22 1.1-3.52 1.23l-2.01.1V26.36l2 .11c1.1.05 2.18.19 2.41.3 1.18.61 1.61 1.63 1.12 2.57z"/><path d="M62.49 30.79v5.26h.88V31.5l1.37.01h1.34l1.58 2.23c1.42 1.99 1.63 2.22 2.15 2.27.35.04.56-.01.56-.16 0-.12-.68-1.15-1.5-2.31-1.19-1.63-1.47-2.12-1.28-2.24.14-.09.35-.15.47-.15.47 0 1.3-.57 1.61-1.11.49-.79.47-2.45 0-3.24-.63-1.01-1.45-1.26-4.5-1.26h-2.68v5.25zm5.5-3.94c1.26.6 1.51 2.32.46 3.1-.53.39-2.09.67-3.8.67h-1.28v-4.26l1.98.09c1.4.07 2.17.19 2.64.4z" fill="#000"/><path d="M62.49 36.05h.88V31.5l1.37.01h1.34l1.58 2.23c1.42 1.99 1.63 2.22 2.15 2.27.35.04.56-.01.56-.16 0-.12-.68-1.15-1.5-2.31-1.19-1.63-1.47-2.12-1.28-2.24.14-.09.35-.15.47-.15.47 0 1.3-.57 1.61-1.11.49-.79.47-2.45 0-3.24-.63-1.01-1.45-1.26-4.5-1.26h-2.68v10.51zm5.96-6.1c-.53.39-2.09.67-3.8.67h-1.28v-4.26l1.98.09c1.4.07 2.17.19 2.64.4 1.26.6 1.51 2.32.46 3.1z"/><path d="M73.17 30.79v5.26h1.05V25.54h-1.05v5.25z" fill="#000"/><path d="M73.17 36.05h1.05V25.54h-1.05v10.51z"/><path d="M87 25.98v.44h3.68V36.05h.88V26.42h3.67v-.88H87v.44z" fill="#000"/><path d="M87 26.42h3.68V36.05h.88V26.42h3.67v-.88H87v.88z"/><path d="M96.81 25.98v.44h3.5V36.05h1.05V26.42h3.5v-.88h-8.05v.44z" fill="#000"/><path d="M96.81 26.42h3.5V36.05h1.05V26.42h3.5v-.88h-8.05v.88z"/></svg>