<svg width="125" height="49" fill="none" xmlns="http://www.w3.org/2000/svg"><defs><clipPath id="prefix__a"><path fill="#fff" fill-opacity="0" d="M0 0h125v49H0z"/></clipPath></defs><g clip-path="url(#prefix__a)"><path d="M91.2 24.42l-1.99 5.42-.66.02-.67.01v.27H91.11v-.27h-.8c-.43 0-.79-.01-.79-.02 0 0 .34-.93.76-2.06l.75-2.06 1.7-.02 1.69-.01.77 2.09.77 2.08h-1.63v.27h4.6v-.27h-1.3l-2.01-5.44-2-5.43h-.43l-1.99 5.42zm2.31-1.18c.41 1.1.74 2.05.76 2.09.02.1-.07.1-1.55.1-.91 0-1.56-.02-1.55-.05.72-2 1.56-4.21 1.58-4.18.02.02.36.94.76 2.04z" fill="#000"/><path d="M89.21 29.84l-.66.02-.67.01v.27H91.11v-.27h-.8c-.43 0-.79-.01-.79-.02 0 0 .34-.93.76-2.06l.75-2.06 1.7-.02 1.69-.01.77 2.09.77 2.08h-1.63v.27h4.6v-.27h-1.3l-2.01-5.44-2-5.43h-.43l-1.99 5.42-1.99 5.42zm5.06-4.51c.02.1-.07.1-1.55.1-.91 0-1.56-.02-1.55-.05.72-2 1.56-4.21 1.58-4.18.02.02.36.94.76 2.04.41 1.1.74 2.05.76 2.09z"/><path d="M79.81 19.19l-1.71.02v.27h1.64v10.5H78.1v.27h4.86v-.27h-1.64V24.45l1.1.02c1 .02 1.12.03 1.36.14.36.17.65.46.83.84.19.43.24.67.34 1.92.15 1.97.5 3.15 1.26 4.33 1.41 2.17 4.16 3.74 7.36 4.21.75.1 2.32.12 2.99.02 2.54-.37 4.7-1.44 6.49-3.22.59-.58 1.17-1.24 1.17-1.33 0-.03-.07-.05-.16-.05-.12 0-.24.09-.64.52-1.75 1.85-3.99 3.03-6.57 3.47-.89.14-2.52.13-3.25-.03-3-.67-5.92-2.91-6.67-5.13-.17-.5-.31-1.46-.37-2.51-.08-1.6-.27-2.13-.93-2.63-.42-.33-.88-.54-1.49-.66l-.44-.1.41-.09c.7-.17 1.3-.54 1.67-1.04.54-.74.55-1.85.02-2.7-.32-.52-1.09-1.03-1.75-1.17-.37-.07-1.83-.09-4.24-.07zm3.46.37c.86.28 1.27 1.11 1.21 2.49-.03.72-.11 1.07-.35 1.45-.33.53-.77.69-2 .69h-.81v-2.35c0-2.19.01-2.35.1-2.38.21-.06 1.58.01 1.85.1z" fill="#000"/><path d="M78.1 19.21v.27h1.64v10.5H78.1v.27h4.86v-.27h-1.64V24.45l1.1.02c1 .02 1.12.03 1.36.14.36.17.65.46.83.84.19.43.24.67.34 1.92.15 1.97.5 3.15 1.26 4.33 1.41 2.17 4.16 3.74 7.36 4.21.75.1 2.32.12 2.99.02 2.54-.37 4.7-1.44 6.49-3.22.59-.58 1.17-1.24 1.17-1.33 0-.03-.07-.05-.16-.05-.12 0-.24.09-.64.52-1.75 1.85-3.99 3.03-6.57 3.47-.89.14-2.52.13-3.25-.03-3-.67-5.92-2.91-6.67-5.13-.17-.5-.31-1.46-.37-2.51-.08-1.6-.27-2.13-.93-2.63-.42-.33-.88-.54-1.49-.66l-.44-.1.41-.09c.7-.17 1.3-.54 1.67-1.04.54-.74.55-1.85.02-2.7-.32-.52-1.09-1.03-1.75-1.17-.37-.07-1.83-.09-4.24-.07l-1.71.02zm6.38 2.84c-.03.72-.11 1.07-.35 1.45-.33.53-.77.69-2 .69h-.81v-2.35c0-2.19.01-2.35.1-2.38.21-.06 1.58.01 1.85.1.86.28 1.27 1.11 1.21 2.49z"/><path d="M111.14 19.25l-1.68.01v.28h1.64v10.33h-1.64v.25l2.84.04c3.12.04 3.54.02 4.27-.26 1.82-.7 2.94-2.01 3.32-3.87.09-.44.1-.66.08-1.52-.02-.86-.05-1.07-.17-1.51-.53-1.93-1.88-3.17-4-3.65-.44-.11-1.76-.13-4.66-.1zm4.16.39c1.59.43 2.45 1.46 2.82 3.38.13.71.13 2.74 0 3.38-.35 1.6-1.06 2.7-2.05 3.17-.57.26-.86.31-1.99.34-.6.01-1.16.01-1.26-.01l-.19-.04V19.54l.12-.03c.07-.01.57-.01 1.12 0 .82.01 1.09.04 1.43.13z" fill="#000"/><path d="M109.46 19.26v.28h1.64v10.33h-1.64v.25l2.84.04c3.12.04 3.54.02 4.27-.26 1.82-.7 2.94-2.01 3.32-3.87.09-.44.1-.66.08-1.52-.02-.86-.05-1.07-.17-1.51-.53-1.93-1.88-3.17-4-3.65-.44-.11-1.76-.13-4.66-.1l-1.68.01zm8.66 3.76c.13.71.13 2.74 0 3.38-.35 1.6-1.06 2.7-2.05 3.17-.57.26-.86.31-1.99.34-.6.01-1.16.01-1.26-.01l-.19-.04V19.54l.12-.03c.07-.01.57-.01 1.12 0 .82.01 1.09.04 1.43.13 1.59.43 2.45 1.46 2.82 3.38z"/><path d="M44.99 19.4v.14h1.64v10.33h-1.64v.27h9.05v-1.68c0-1.56-.01-1.67-.1-1.67-.07 0-.11.1-.21.47-.32 1.29-1.14 2.27-2.1 2.53-.25.06-.64.08-1.89.08h-1.57v-5.42l.86.02c.76.02.88.03 1.07.14.48.26.76.7.99 1.61.11.4.15.49.24.5l.12.02v-4.83l-.11.02c-.09.01-.14.1-.25.47-.27.99-.62 1.49-1.15 1.66-.15.05-.57.1-1.02.11l-.75.04v-4.67h1.43c.83 0 1.53.02 1.7.06.4.08.86.35 1.12.65.24.27.59.91.75 1.38.08.23.12.29.22.29h.12V19.27h-8.52v.13z" fill="#000"/><path d="M44.99 19.54h1.64v10.33h-1.64v.27h9.05v-1.68c0-1.56-.01-1.67-.1-1.67-.07 0-.11.1-.21.47-.32 1.29-1.14 2.27-2.1 2.53-.25.06-.64.08-1.89.08h-1.57v-5.42l.86.02c.76.02.88.03 1.07.14.48.26.76.7.99 1.61.11.4.15.49.24.5l.12.02v-4.83l-.11.02c-.09.01-.14.1-.25.47-.27.99-.62 1.49-1.15 1.66-.15.05-.57.1-1.02.11l-.75.04v-4.67h1.43c.83 0 1.53.02 1.7.06.4.08.86.35 1.12.65.24.27.59.91.75 1.38.08.23.12.29.22.29h.12V19.27h-8.52v.27z"/><path d="M55.36 19.4v.14H57v10.33h-1.64v.27h3.54v-.27h-1.64l.01-4.99c0-2.75.01-4.97.03-4.94.01.03.79 2.33 1.73 5.11.94 2.78 1.72 5.06 1.75 5.06.03 0 .81-2.28 1.75-5.08.94-2.8 1.72-5.12 1.74-5.14.01-.03.02 2.2.02 4.96l.01 5.02h-1.64v.27h4.86v-.27h-1.69V19.54h1.69v-.27h-3.36l-1.34 4.03c-.74 2.21-1.36 4.03-1.37 4.03-.02 0-.64-1.82-1.38-4.03l-1.35-4.03h-3.36v.13z" fill="#000"/><path d="M55.36 19.54H57v10.33h-1.64v.27h3.54v-.27h-1.64l.01-4.99c0-2.75.01-4.97.03-4.94.01.03.79 2.33 1.73 5.11.94 2.78 1.72 5.06 1.75 5.06.03 0 .81-2.28 1.75-5.08.94-2.8 1.72-5.12 1.74-5.14.01-.03.02 2.2.02 4.96l.01 5.02h-1.64v.27h4.86v-.27h-1.69V19.54h1.69v-.27h-3.36l-1.34 4.03c-.74 2.21-1.36 4.03-1.37 4.03-.02 0-.64-1.82-1.38-4.03l-1.35-4.03h-3.36v.27z"/><path d="M68.26 19.4v.14h1.64v10.33h-1.64v.27h9.1v-1.68c0-1.59-.01-1.67-.1-1.67-.08 0-.12.09-.22.47-.22.85-.55 1.46-1.05 1.92-.7.64-.91.69-2.95.69h-1.6v-5.42l.88.02c.79.02.91.03 1.1.14.48.25.76.72.98 1.62.11.45.14.5.25.5h.12V21.92h-.12c-.11 0-.14.04-.19.25-.13.58-.39 1.2-.6 1.45-.38.44-.8.56-1.88.57h-.54v-4.66l1.6.02c1.52.01 1.61.03 1.9.14.65.27 1.09.79 1.45 1.72.14.38.22.51.29.51.09 0 .1-.08.1-1.33v-1.32h-8.52v.13z" fill="#000"/><path d="M68.26 19.54h1.64v10.33h-1.64v.27h9.1v-1.68c0-1.59-.01-1.67-.1-1.67-.08 0-.12.09-.22.47-.22.85-.55 1.46-1.05 1.92-.7.64-.91.69-2.95.69h-1.6v-5.42l.88.02c.79.02.91.03 1.1.14.48.25.76.72.98 1.62.11.45.14.5.25.5h.12V21.92h-.12c-.11 0-.14.04-.19.25-.13.58-.39 1.2-.6 1.45-.38.44-.8.56-1.88.57h-.54v-4.66l1.6.02c1.52.01 1.61.03 1.9.14.65.27 1.09.79 1.45 1.72.14.38.22.51.29.51.09 0 .1-.08.1-1.33v-1.32h-8.52v.27z"/><path d="M99.31 19.4v.14H101v10.33h-1.69v.27h9.14V26.79h-.12c-.11 0-.13.03-.19.25-.27 1.11-.97 2.16-1.68 2.53-.53.27-.76.3-2.41.3h-1.52V19.54h1.64v-.27h-4.86v.13z" fill="#000"/><path d="M99.31 19.54H101v10.33h-1.69v.27h9.14V26.79h-.12c-.11 0-.13.03-.19.25-.27 1.11-.97 2.16-1.68 2.53-.53.27-.76.3-2.41.3h-1.52V19.54h1.64v-.27h-4.86v.27z"/><path d="M15.68 9.75c-1.03 1.02-1.89 2.26-1.89 2.75 0 .7-.59.86-2.7.86h-2.7v2.7c0 2.43-.16 2.7-1.35 3.02-2.26.54-4.04 3.19-4.04 6 0 2.05.26 2.69 1.83 4.26 1.03 1.02 2.21 1.83 2.7 1.83.7 0 .86.6.86 2.7v2.7h2.59c2.32 0 2.59.16 3.35 1.73 2.37 5.02 8.96 5.02 11.33 0 .76-1.57 1.03-1.73 3.4-1.73h2.54v-2.7c0-2.1.16-2.7.86-2.7.49 0 1.67-.81 2.7-1.83 1.57-1.57 1.84-2.21 1.84-4.26 0-2.76-1.3-4.75-3.78-5.78-1.51-.59-1.62-.86-1.62-3.29v-2.65h-2.65c-2.37 0-2.69-.16-3.29-1.56-.97-2.43-2.43-3.4-5.4-3.72-2.48-.22-2.8-.11-4.58 1.67zm7.12-.22c.97.65 2 1.89 2.38 2.97.64 1.83.81 1.94 3.29 1.94h2.59v2.38c0 2.1.16 2.43 1.56 3.02 2.27.92 3.35 2.32 3.67 4.8.27 1.95.11 2.38-1.62 4.11-1.02 1.02-2.32 1.88-2.91 1.88-.81 0-.97.44-.97 2.54v2.59l-2.54.16c-1.89.11-2.59.38-2.59 1.03 0 .43-.81 1.62-1.83 2.64-1.41 1.41-2.27 1.84-3.83 1.84-1.57 0-2.43-.43-3.84-1.84-1.02-1.02-1.83-2.21-1.83-2.64 0-.65-.7-.92-2.54-1.03l-2.59-.16-.16-2.59c-.11-1.84-.38-2.54-1.03-2.54-.43 0-1.62-.8-2.64-1.83-3.08-3.08-2.16-7.29 1.94-8.96 1.46-.59 1.62-.92 1.62-3.02v-2.38h2.65c2.48 0 2.69-.11 3.02-1.56.32-1.57 2-3.46 3.51-4 1.56-.59 2.96-.37 4.69.65z" fill="#000"/><path d="M13.79 12.5c0 .7-.59.86-2.7.86h-2.7v2.7c0 2.43-.16 2.7-1.35 3.02-2.26.54-4.04 3.19-4.04 6 0 2.05.26 2.69 1.83 4.26 1.03 1.02 2.21 1.83 2.7 1.83.7 0 .86.6.86 2.7v2.7h2.59c2.32 0 2.59.16 3.35 1.73 2.37 5.02 8.96 5.02 11.33 0 .76-1.57 1.03-1.73 3.4-1.73h2.54v-2.7c0-2.1.16-2.7.86-2.7.49 0 1.67-.81 2.7-1.83 1.57-1.57 1.84-2.21 1.84-4.26 0-2.76-1.3-4.75-3.78-5.78-1.51-.59-1.62-.86-1.62-3.29v-2.65h-2.65c-2.37 0-2.69-.16-3.29-1.56-.97-2.43-2.43-3.4-5.4-3.72-2.48-.22-2.8-.11-4.58 1.67-1.03 1.02-1.89 2.26-1.89 2.75zm11.39 0c.64 1.83.81 1.94 3.29 1.94h2.59v2.38c0 2.1.16 2.43 1.56 3.02 2.27.92 3.35 2.32 3.67 4.8.27 1.95.11 2.38-1.62 4.11-1.02 1.02-2.32 1.88-2.91 1.88-.81 0-.97.44-.97 2.54v2.59l-2.54.16c-1.89.11-2.59.38-2.59 1.03 0 .43-.81 1.62-1.83 2.64-1.41 1.41-2.27 1.84-3.83 1.84-1.57 0-2.43-.43-3.84-1.84-1.02-1.02-1.83-2.21-1.83-2.64 0-.65-.7-.92-2.54-1.03l-2.59-.16-.16-2.59c-.11-1.84-.38-2.54-1.03-2.54-.43 0-1.62-.8-2.64-1.83-3.08-3.08-2.16-7.29 1.94-8.96 1.46-.59 1.62-.92 1.62-3.02v-2.38h2.65c2.48 0 2.69-.11 3.02-1.56.32-1.57 2-3.46 3.51-4 1.56-.59 2.96-.37 4.69.65.97.65 2 1.89 2.38 2.97z"/><path d="M18.65 9.97c-1.57.59-2.7 1.94-3.03 3.72-.32 1.73-.43 1.83-2.69 1.83H10.6l-.16 2.54c-.16 2.43-.27 2.59-1.99 2.92-2.22.48-3.19 1.35-3.62 3.45-.43 2.21 1.35 4.42 3.83 4.91 1.84.32 1.89.43 1.89 2.7v2.37h2.38c2.26 0 2.37.06 2.69 1.89.44 2.05 2.54 4.05 4.38 4.05 1.88 0 3.93-1.94 4.15-3.94.16-1.67.27-1.73 2.75-1.89l2.54-.16v-2.32c0-2.27.11-2.38 1.83-2.7 2.38-.43 3.78-2.1 3.78-4.43 0-2.21-1.08-3.45-3.51-3.93-1.72-.33-1.83-.49-1.99-2.92l-.16-2.54h-2.43c-2.49 0-2.54-.05-3.13-2.8-.22-.92-.97-1.84-1.95-2.32-1.67-.87-1.94-.92-3.23-.43zm3.77 1.78c.6.59 1.08 1.78 1.08 2.7 0 1.56.06 1.62 2.7 1.62h2.7v2.69c0 2.65.05 2.7 1.62 2.7 3.13 0 4.96 3.72 2.86 6.05-.49.54-1.62.97-2.7.97H28.9V33.87h-2.7c-2.64 0-2.7 0-2.7 1.73 0 2.21-1.35 3.67-3.4 3.67-2.21 0-3.61-1.4-3.61-3.61v-1.79h-5.4v-2.69c0-2.65 0-2.7-1.73-2.7-2.26 0-3.67-1.35-3.67-3.57 0-2.05 1.57-3.45 3.89-3.45 1.46 0 1.51-.11 1.51-2.7v-2.69h2.7c2.64 0 2.7-.06 2.7-1.62 0-2 1.67-3.78 3.51-3.78.75 0 1.83.48 2.42 1.08z" fill="#000"/><path d="M15.62 13.69c-.32 1.73-.43 1.83-2.69 1.83H10.6l-.16 2.54c-.16 2.43-.27 2.59-1.99 2.92-2.22.48-3.19 1.35-3.62 3.45-.43 2.21 1.35 4.42 3.83 4.91 1.84.32 1.89.43 1.89 2.7v2.37h2.38c2.26 0 2.37.06 2.69 1.89.44 2.05 2.54 4.05 4.38 4.05 1.88 0 3.93-1.94 4.15-3.94.16-1.67.27-1.73 2.75-1.89l2.54-.16v-2.32c0-2.27.11-2.38 1.83-2.7 2.38-.43 3.78-2.1 3.78-4.43 0-2.21-1.08-3.45-3.51-3.93-1.72-.33-1.83-.49-1.99-2.92l-.16-2.54h-2.43c-2.49 0-2.54-.05-3.13-2.8-.22-.92-.97-1.84-1.95-2.32-1.67-.87-1.94-.92-3.23-.43-1.57.59-2.7 1.94-3.03 3.72zm7.88.76c0 1.56.06 1.62 2.7 1.62h2.7v2.69c0 2.65.05 2.7 1.62 2.7 3.13 0 4.96 3.72 2.86 6.05-.49.54-1.62.97-2.7.97H28.9V33.87h-2.7c-2.64 0-2.7 0-2.7 1.73 0 2.21-1.35 3.67-3.4 3.67-2.21 0-3.61-1.4-3.61-3.61v-1.79h-5.4v-2.69c0-2.65 0-2.7-1.73-2.7-2.26 0-3.67-1.35-3.67-3.57 0-2.05 1.57-3.45 3.89-3.45 1.46 0 1.51-.11 1.51-2.7v-2.69h2.7c2.64 0 2.7-.06 2.7-1.62 0-2 1.67-3.78 3.51-3.78.75 0 1.83.48 2.42 1.08.6.59 1.08 1.78 1.08 2.7z"/><path d="M15.52 21.08l-3.89 3.89 4.21 4.21L20 33.33l4.2-4.2 4.16-4.16-3.94-3.94c-2.16-2.11-4.16-3.89-4.42-3.89-.33 0-2.33 1.78-4.48 3.94zm8.36.49l3.4 3.34-3.62 3.67-3.61 3.67-3.67-3.61-3.67-3.62 3.35-3.4c1.83-1.88 3.61-3.4 3.88-3.4.32 0 2.11 1.52 3.94 3.35z" fill="#000"/><path d="M11.63 24.97l4.21 4.21L20 33.33l4.2-4.2 4.16-4.16-3.94-3.94c-2.16-2.11-4.16-3.89-4.42-3.89-.33 0-2.33 1.78-4.48 3.94l-3.89 3.89zm15.65-.06l-3.62 3.67-3.61 3.67-3.67-3.61-3.67-3.62 3.35-3.4c1.83-1.88 3.61-3.4 3.88-3.4.32 0 2.11 1.52 3.94 3.35l3.4 3.34z"/><path d="M17.13 22.16c-1.24 1.24-2.26 2.54-2.26 2.86 0 .27 1.19 1.68 2.59 3.08l2.59 2.54 2.64-2.7 2.65-2.7-2.65-2.7c-1.45-1.51-2.8-2.7-2.96-2.7-.17 0-1.35 1.03-2.6 2.32z" fill="#000"/><path d="M14.87 25.02c0 .27 1.19 1.68 2.59 3.08l2.59 2.54 2.64-2.7 2.65-2.7-2.65-2.7c-1.45-1.51-2.8-2.7-2.96-2.7-.17 0-1.35 1.03-2.6 2.32-1.24 1.24-2.26 2.54-2.26 2.86z"/></g></svg>