<svg width="37.037449" height="36.245117" viewBox="0 0 37.0374 36.2451" fill="none" xmlns="http://www.w3.org/2000/svg" xmlns:xlink="http://www.w3.org/1999/xlink">
	<desc>
			Created with Pixso.
	</desc>
	<defs/>
	<path id="path" d="M36.01 19.1L36.03 19.12C36.59 19.12 37.03 18.68 37.03 18.12C37.03 17.56 36.59 17.12 36.03 17.12L36.01 17.14L36.01 19.1ZM16.35 1.65L16.38 1.65C16.74 1.22 16.69 0.6 16.26 0.24C15.84 -0.13 15.22 -0.08 14.85 0.35L14.86 0.38L16.35 1.65ZM14.86 35.86L14.85 35.88C15.22 36.31 15.84 36.36 16.26 36C16.69 35.63 16.74 35.01 16.38 34.59L16.35 34.59L14.86 35.86Z" fill="#000000" fill-opacity="0" fill-rule="nonzero"/>
	<path id="path" d="M36.03 18.12L1.03 18.12M15.62 35.24L1.03 18.12L15.62 1" stroke="#C23A35" stroke-opacity="1.000000" stroke-width="2.000000" stroke-linejoin="round" stroke-linecap="round"/>
</svg>
