<svg width="25.000000" height="47.500000" viewBox="0 0 25 47.5" fill="none" xmlns="http://www.w3.org/2000/svg" xmlns:xlink="http://www.w3.org/1999/xlink">
	<path id="path" d="M5 25L19.72 25C18.74 31.54 15.5 36.66 10 40.35L5.52 43.35L8.25 47.5L12.75 44.5C16.57 41.95 19.57 38.65 21.74 34.59C23.91 30.54 24.99 26.22 25 21.62L25 5C25 3.61 24.51 2.44 23.53 1.46C22.55 0.48 21.38 0 20 0L5 0C3.61 0 2.44 0.48 1.46 1.46C0.48 2.44 0 3.61 0 5L0 20C0 21.38 0.48 22.55 1.46 23.53C2.44 24.51 3.61 25 5 25Z" fill="#F8E36B" fill-opacity="1.000000" fill-rule="nonzero"/>
</svg>
