<svg width="40.000000" height="40.000000" viewBox="0 0 40 40" fill="none" xmlns="http://www.w3.org/2000/svg" xmlns:xlink="http://www.w3.org/1999/xlink">
	<path id="Vector" d="M20 0C9 0 0 9 0 20C0 31 9 40 20 40C31 40 40 31 40 20C40 9 31 0 20 0Z" fill="#29B6F6" fill-opacity="1.000000" fill-rule="nonzero"/>
	<path id="Vector" d="M30 11L26.3 30.1C26.3 30.1 26.1 31 25.1 31C24.5 31 24.2 30.7 24.2 30.7L16 24L12 22L6.9 20.6C6.9 20.6 6 20.29 6 19.6C6 19 6.9 18.7 6.9 18.7L28.2 10.2C28.2 10.2 28.9 10 29.3 10C29.6 10 29.9 10.1 29.9 10.5C30 10.8 30 11 30 11Z" fill="#FFFFFF" fill-opacity="1.000000" fill-rule="nonzero"/>
	<path id="Vector" d="M19 26.5L15.6 29.89C15.6 29.89 15.5 30 15.3 30C15.2 30 15.2 30 15.1 30L16.1 24L19 26.5Z" fill="#B0BEC5" fill-opacity="1.000000" fill-rule="nonzero"/>
	<path id="Vector" d="M25.9 14.2C25.7 14 25.4 13.89 25.2 14.1L12 22C12 22 14.1 27.89 14.4 28.89C14.7 29.89 15 29.89 15 29.89L16 23.89L25.8 14.8C26 14.7 26.1 14.39 25.9 14.2Z" fill="#CFD8DC" fill-opacity="1.000000" fill-rule="nonzero"/>
</svg>
